<svg xmlns="http://www.w3.org/2000/svg">
  <symbol id="marker" viewBox="0 0 24 24">
    <path
      d="M12,0C7.8,0,4,3.4,4,7.6S7.5,16.8,12,24c4.5-7.2,8-12.2,8-16.4S16.2,0,12,0Z"
    />
  </symbol>
  <symbol id="arrow" viewBox="0 0 999 465">
    <path
      d="M999,2C951,65.4,877.4,317.2,711.2,382.3S120.2,390.9,2,392.5M999,2C951,65.4,877.4,317.2,711.2,382.3S120.2,390.9,2,392.5"
    />
    <path d="M179,338.7,2,392.5m177-53.8L2,392.5" />
    <path d="M172.2,465.1,2,392.5m170.2,72.6L2,392.5" />
  </symbol>
</svg>