<svg xmlns="http://www.w3.org/2000/svg">
  <symbol id="facebook" viewBox="0 0 24 24">
    <path
      d="M19 0h-14c-2.761 0-5 2.239-5 5v14c0 2.761 2.239 5 5 5h14c2.762 0 5-2.239 5-5v-14c0-2.761-2.238-5-5-5zm-3 7h-1.924c-.615 0-1.076.252-1.076.889v1.111h3l-.238 3h-2.762v8h-3v-8h-2v-3h2v-1.923c0-2.022 1.064-3.077 3.461-3.077h2.539v3z"
    />
  </symbol>
  <symbol id="instagram" viewBox="0 0 24 24">
    <path
      d="M15.233 5.488c-.843-.038-1.097-.046-3.233-.046s-2.389.008-3.232.046c-2.17.099-3.181 1.127-3.279 3.279-.039.844-.048 1.097-.048 3.233s.009 2.389.047 3.233c.099 2.148 1.106 3.18 3.279 3.279.843.038 1.097.047 3.233.047 2.137 0 2.39-.008 3.233-.046 2.17-.099 3.18-1.129 3.279-3.279.038-.844.046-1.097.046-3.233s-.008-2.389-.046-3.232c-.099-2.153-1.111-3.182-3.279-3.281zm-3.233 10.62c-2.269 0-4.108-1.839-4.108-4.108 0-2.269 1.84-4.108 4.108-4.108s4.108 1.839 4.108 4.108c0 2.269-1.839 4.108-4.108 4.108zm4.271-7.418c-.53 0-.96-.43-.96-.96s.43-.96.96-.96.96.43.96.96-.43.96-.96.96zm-1.604 3.31c0 1.473-1.194 2.667-2.667 2.667s-2.667-1.194-2.667-2.667c0-1.473 1.194-2.667 2.667-2.667s2.667 1.194 2.667 2.667zm4.333-12h-14c-2.761 0-5 2.239-5 5v14c0 2.761 2.239 5 5 5h14c2.762 0 5-2.239 5-5v-14c0-2.761-2.238-5-5-5zm.952 15.298c-.132 2.909-1.751 4.521-4.653 4.654-.854.039-1.126.048-3.299.048s-2.444-.009-3.298-.048c-2.908-.133-4.52-1.748-4.654-4.654-.039-.853-.048-1.125-.048-3.298 0-2.172.009-2.445.048-3.298.134-2.908 1.748-4.521 4.654-4.653.854-.04 1.125-.049 3.298-.049s2.445.009 3.299.048c2.908.133 4.523 1.751 4.653 4.653.039.854.048 1.127.048 3.299 0 2.173-.009 2.445-.048 3.298z"
    />
  </symbol>
  <symbol id="youtube" viewBox="0 0 24 24">
    <path
      d="M9.279 13.52h-.939v5.027h-.908v-5.027h-.94v-.854h2.788v.854zm5.395 1.721v2.406c0 .537-.2.954-.736.954-.296 0-.541-.108-.767-.388v.333h-.813v-5.88h.813v1.893c.183-.222.429-.405.718-.405.59 0 .785.499.785 1.087zm-.83.049c0-.146-.027-.257-.086-.333-.098-.129-.279-.143-.42-.071l-.167.132v2.703l.19.153c.132.066.324.071.413-.045.046-.061.069-.161.069-.299v-2.24zm-2.347-5.859c.229 0 .354-.183.354-.431v-2.119c0-.255-.111-.434-.371-.434-.237 0-.353.185-.353.434v2.119c.001.24.137.431.37.431zm-.733 8.07c-.099.123-.317.325-.475.325-.172 0-.215-.118-.215-.292v-3.325h-.805v3.626c0 .88.597.885 1.031.636.16-.092.315-.227.464-.403v.479h.807v-4.338h-.807v3.292zm13.236-12.501v14c0 2.761-2.238 5-5 5h-14c-2.761 0-5-2.239-5-5v-14c0-2.761 2.239-5 5-5h14c2.762 0 5 2.239 5 5zm-10.566 4.427c0 .45.137.813.592.813.256 0 .611-.133.979-.569v.503h.847v-4.554h-.847v3.457c-.104.129-.333.341-.498.341-.182 0-.226-.124-.226-.307v-3.491h-.847v3.807zm-3.177-2.621v2.233c0 .803.419 1.22 1.24 1.22.682 0 1.218-.456 1.218-1.22v-2.233c0-.713-.531-1.224-1.218-1.224-.745 0-1.24.493-1.24 1.224zm-3.155-2.806l1.135 3.67v2.504h.953v-2.504l1.11-3.67h-.969l-.611 2.468-.658-2.468h-.96zm11.564 11.667c-.014-2.978-.232-4.116-2.111-4.245-1.734-.118-7.377-.118-9.109 0-1.876.128-2.098 1.262-2.111 4.245.014 2.978.233 4.117 2.111 4.245 1.732.118 7.375.118 9.109 0 1.877-.129 2.097-1.262 2.111-4.245zm-1.011-.292v1.104h-1.542v.818c0 .325.027.607.352.607.34 0 .36-.229.36-.607v-.301h.83v.326c0 .836-.358 1.342-1.208 1.342-.771 0-1.164-.561-1.164-1.342v-1.947c0-.753.497-1.275 1.225-1.275.773-.001 1.147.491 1.147 1.275zm-.83-.008c0-.293-.062-.508-.353-.508-.299 0-.359.21-.359.508v.439h.712v-.439z"
    />
  </symbol>
  <symbol id="linkedin" viewBox="0 0 24 24">
    <path
      d="M19 0h-14c-2.761 0-5 2.239-5 5v14c0 2.761 2.239 5 5 5h14c2.762 0 5-2.239 5-5v-14c0-2.761-2.238-5-5-5zm-11 19h-3v-11h3v11zm-1.5-12.268c-.966 0-1.75-.79-1.75-1.764s.784-1.764 1.75-1.764 1.75.79 1.75 1.764-.783 1.764-1.75 1.764zm13.5 12.268h-3v-5.604c0-3.368-4-3.113-4 0v5.604h-3v-11h3v1.765c1.396-2.586 7-2.777 7 2.476v6.759z"
    />
  </symbol>
  <symbol id="github" viewBox="0 0 24 24">
    <path
      d="M19 0h-14c-2.761 0-5 2.239-5 5v14c0 2.761 2.239 5 5 5h14c2.762 0 5-2.239 5-5v-14c0-2.761-2.238-5-5-5zm-4.466 19.59c-.405.078-.534-.171-.534-.384v-2.195c0-.747-.262-1.233-.55-1.481 1.782-.198 3.654-.875 3.654-3.947 0-.874-.312-1.588-.823-2.147.082-.202.356-1.016-.079-2.117 0 0-.671-.215-2.198.82-.64-.18-1.324-.267-2.004-.271-.68.003-1.364.091-2.003.269-1.528-1.035-2.2-.82-2.2-.82-.434 1.102-.16 1.915-.077 2.118-.512.56-.824 1.273-.824 2.147 0 3.064 1.867 3.751 3.645 3.954-.229.2-.436.552-.508 1.07-.457.204-1.614.557-2.328-.666 0 0-.423-.768-1.227-.825 0 0-.78-.01-.055.487 0 0 .525.246.889 1.17 0 0 .463 1.428 2.688.944v1.489c0 .211-.129.459-.528.385-3.18-1.057-5.472-4.056-5.472-7.59 0-4.419 3.582-8 8-8s8 3.581 8 8c0 3.533-2.289 6.531-5.466 7.59z"
    />
  </symbol>
  <symbol id="mail" viewBox="0 0 24 24">
    <polygon points="18.6 7.1 5.4 7.1 12 12.5 18.6 7.1"/>
    <polygon points="19 8.7 12 14.3 5 8.7 5 16.9 19 16.9 19 8.7"/>
    <path d="M19,0H5A5,5,0,0,0,0,5V19a5,5,0,0,0,5,5H19a5,5,0,0,0,5-5V5A5,5,0,0,0,19,0Zm1.3,18.3H3.7V5.7H20.3Z"/>
  </symbol>
</svg>