<svg xmlns="http://www.w3.org/2000/svg" viewBox="40 7 980 1253" style="fill: currentColor; color: #00679E">
  <path
    d="M338.3,30.6c4.3-2.4,7.1,2.6,11.1,2.2.7-3.4,3.9-3.2,6.7-2.8,11.6,7.1,42.7-.3,49.1,17.5,8.1,2.2,11.9-7.6,21.2-6.8-5.3,2-5.3,3.8-3.6,8.1,5-8.1,9.5-4.7,14.9-11.2,8.1-5.9-4.5,4.5,8.2,6.9,13.8-1,21.7,16.7,25.9,7.7.1.7,1,.7,1.2,1.4-2-11.6,9.5-.3,8.3,5.6.9,3.6,6.8,5.1,5.5,9.1-.2-.6-2-2-.7-2.5-1.4-1.2-3,1.4-4.2.3.6-.5.9-2.9-.4-2.5-2.3,2.9,2.1,2.5-4.2,3.9-3,3.2.8,10.2-4.1,7.6.5.6-2.3,1.6-2.7,2.5-4,3-10.8,8.8-11.6,5.8a24.3,24.3,0,0,1-4.5,8c-2.4-1.5-.2,2.1-2.7,1.8.9-2.2-7.5-.4-7.1.8s-1-.8-.9-1.1c1.4-3.3-3.6.4-4.1,2.1-8.2-1-.4.6-1.6,5.4,1.9-14.5,16.7,4,14.2-5.6-2.2-1,1.3-1.5,2-2.8-.1,3.6,2.1-3.8,3.7-3.7,3.7-4.8,19.1-9,18.6-15.5s6.7-5.6,7.7-2.7c5.2.5.7,13.4,1.9,18-2.3,9.4-25.8,11.2-17.7,16.1,7.6-.2,37.8-12.8,33.7,2.1-2.5,1.2,4.7,7.4.2,7.6-1.1.3-2.6,1.3-1.1,2.2-4.2,2.1-3.8,1.8-1.7,6.1.6,1-3.8,3.7-1.9,4.1,5.6-3.4,5-9.4,8.9-13.9,5.9-6.7,17.8-7,26.6.9,13.9,1,20.2,14.7,32.6,14.2,9.2-3.4,17.4-17.1,27.3-11.2-2.1-.3-10.6-1-4.3.2,5.7,3.9,10.8-3.4,15.7-2.7,3.3,5.3-11.2,5.5-5.8,7.6,3.7,30.9,3.2,22.6-23.4,41.5-8.1-3.5-16,11.7-5,15.3,4.8-2,12.7,3.4,5.6,6.5.7,4.2,1.2,6.1-2.8,8.4-10.4.9-5,2.7,1.4.6,2.7-3.7,3.3-4.5,7-3-3,5.5,3.9,1,6,1.4-1.5-3.4-10.9-.7-6.3-6.9-2-2-4.1,3.6-4.8.3.7-1.6,2.9-1.4,4.3-1.4,12.8-10.3,26.6-10.2,38-4.2-1.9,3.2-3.3,8.4,2.6,8.6,2.8-.4,3.9-4.2,5.7-4.6,1.8,4.4,3.9,3.2,7.5,3.7-2.1,3.5,3.5,2.8,3.3,5.7,3.5,1.4.3-5,4.4-4.1,1.9-8.7-3.6-5,.8-7.9,1,2.3.2-1.7,2.4-.9-3.2-2.3-1.3-1.7-.2-4.6s4.7-1.1,1.2-3c.8-2.4,1.7,1,3.3.4,5.5-.9,2-6.5,6.7-7.5,4.7-8.4-3.9-2.8-6.7.9s-1.2,1.9-1.6-.8c-1.8,1-1.8,3.5-2,5.2-1.7-9,14-12.2,18.5-18.6,14.7,2.5,28.8-1.7,42.5-4.9,2.4,4.6-3.2,17.1,7.2,14.3-5.6,1.7-7.6-8.2-4.5-9.1s4.3-4.9-.9-3.1c9.8-11.9,30.6-23.1,39-40.3,1.3-2.8,6-16.3,7.2-7,12.1,6,29.7,1,41.2,4.2,2.7,7-9.5-.7-12.2,4.4-4.3-.2-12.7-7.3-14.7.1-2.4,0-2.7-5.1-5.7,0-8.2,1.3-.7,1.9-1.9,4.2-1.8-2.8-7.7-.4-7.9,2-15.4-8.4-7.7,9.7-13.7,4.4-.9.9,1.9,6.3-2.9,5.3-2.6,2.9,4.7,5.5-.2,7,2.3,3.6,14.8,4.5,8.7,1.9-9.2-1.6,1.1-7.1,4-9-3.5-3.5,2.6-3.7,4.9-3.9,3.5-3.3-.4-4.5,3-6-1.3-2.5,1.4.8,2.7.1-4.8,5.6,10.9-2.7,9.3-4.2s3.7-2.4,4.7-1.9c.9,2-2.1.4-2.7,1.8,1.1,2-2.3,6.8.9,2.7,1.3-8.3,3.2,7.6,5.4-.1,2.9,4.8,2.5-.6,4.4-1.6-.6,3.8,3.3,1.8,2.2,8,1.5-2.4,8.7-.9,8.4-6.3,1.7-4.4,14.9-11.7,15.9-7-2.3.6-.7,3.1-1,4.5,5.7,6,8.7-1.2,5.7,10.1.3,2.7,5,3.8,3.1,6.4-1.1,6.8,6.8,1.7,7.5,4.5-1.3-.7-5,1.6-3.1,2.3,5.1-6.1,5.9,3.6,10.6,2.4,6.8-2,5.4,8.8,10.9,9.8-7.7,6.6,3.2-1.4,5.1,1.4,3.3.7-.4,2-1.4,3.1.2,3.4,2.1-.2,3.2-.8,1,2.9,3.5,6.3,4.6,9.6,4.3,4.8,6.2,1.3,2.3-3.3,4.1-3.7,11.4-1.3,16.2-3.8,3.2-1,7.1-7.6,10.3-3.8-9,3.2,6.2,3.2,3.5,6.4,4,3.5,5.9,3.5,4,9.5-.6.4-2.9,1-1,1.6-4.8,5.9-2.6,7.6,4.9,11.2,4,8.3,15.5,8.5,3.3,14.4-2.4,5.4-.8,1.5-4,3.7.4,2.6-2.3,1.2-.7,4.4,11.7,5,30.1,26.6,44.3,13.8,6.4.7,4,6.6-.2,8.2s10.3,2,4.6,6.8c5.8,8,3.3,14.6,5.1,22.2,4.7,8.7,5.7,20.5,9.4,29.4-1.8,7.9,6.1,10.8,2.9,15.9-11.6,11.1-.1,28.8-16.7,37.2-20,9.1-10.3,14.2-15.8,29.8,14.4,2.6,11.1,7.9,23.7,12.5,7,12.2,20,17.1,28,26.4,6.9,4-5.8,7.7,1.5,13.7-.9,4.2-2.6,8.1-5.3,10.5-9.2,1.8.2,29,7.2,28.2,15.9,1.3-.8,18.5,5.9,26,11.7,2.9,2.3,14.4,1,20,7.1,12.2-23.8,22.4-7,29.4,1.3,7,2.6,14.8,10.1,17.5,10.5,23.1-22.1,18.8,19.8,33.5,6.5,2.3,3.5,8.3,5,12.7-2.2,1,1.1,3.5,1,4.7s-1.7,1.9-.2,3.5c9,13.7,6.2,14.1,2.7,28.5-1.5,4.9-1.5,10.5-3.3,15.4-2.2,1.3-2.6,2.5-1.1,4.4-2.1,2.2-2.9,5.6-3.4,8.9-2.9,7.1-8.3,12.4-11.7,18.5-.6,15.9-11,5.7-20.7,3.2-2.5-2,8.2-17.2-1.6-10.9-12.3,6.4,6.1-15.4-8.3-12.9.8-4.5-6.1.7-2.9-5.7-1.2-3.6-1.7,1-2.4,2.3-5.1-3.1-3.5.1-8.4.7a36,36,0,0,0-11-5.7,21.8,21.8,0,0,0-4.7,11.3c2,2.3,8-1.3,6.4,2.1-3.4.1-.7,1.6-.7,3.3,5.7.9,12.1,1.6,7.8,8.5-5.7,2.5-11.3-.1-16.6,2.3,2.6,5.2-24.7,15.3-24.7,10.6-4.4.2-5.4,6.8-10,4.6a6.6,6.6,0,0,0-1.8,4.9c3.1,1.9-.6,4.7-2.9,3.1-.6,5.9-7.6-.1-11.2,1.1s-5.4,4.2-7.9,2.2-5.1-.1-6.9,1.2-7-1.5-8.7,1.8c-1.9,1.2,1.3,1.3.4,5.9-1.4-.9-3.3,2-3.1,2.9.4,6.2-9.3,10.7-14.9-.4,1.2,7.1-5.5,6-6.4,11.7-2.4.2-3.2,1.1-3.9-1.9-6.2-1.2-4.2,6.3-7.2,10.2-2.9,5.4-1.7,3.5-7.4,3.3-1.6-4.9-4.5,5.3-11.5-.7-1.9,4.6.6,10.5-4.4,12.9-9.6,12.1-13.7-15.2-32.2,4.8-4.5-3.9-14.3.3-20.1,2.1-2.4,2.2-.3,7.3-4.4,6.5-4.6,2.7-.9,3.5-6.8,4.6.2,6.6.1,2.8-4.1,7-2.4,4.2,1.9,6.6-2.9,6.2-1.8,3.3.8,6.5-1.3,9.9-4.6,2.6-4.8-4.5-4-7.5-11.8-7.8,1.6-1.3-3.8-7.3-11.4.6-.5-12.6-15-7.6,7,8.7-5.6,7.3.3,12.8,17.7,6.3,4,16.5,11.6,21.1,1.8,1.6,6.4,3.2,4.2,6.7,6.7.2,8.5,5.4,14,7.6,3.6,2.1,3.7,1.4,4.5,4.3,2.6-2.7,7.6,1.8,5.2,4.4-5.7,9.3,16.3-2.2.8,19.4-4.2-2.4-1.9,6.8-2.9,8.5-3.9,1.9-10.7,5.4-4.3,9.2.8,5.8,8.6,5,10.2,8.4s-2.2,6.9,1.9,9.3c1.1-.5,2.5-.8,2.1,1,2.5,5,.1,13.7,8.3,14,1.8,6.5-1.4,16.2,8.1,17.2,9.4,8.3,3.7,12.6,18.2,14.4.6-3.1-.1-3.6,4-2.3,5.9,1.6,13.1,6,11.8,12.7,3.4,1.2,3,2.4,6.1,4.7,2.2,4.2,3.4,6.3,7.3,9.7s.7,7,6.7,9.6c10.5-1,20.2,9.2,20.3,18.5-1,5.5,6.4,6.2,9.7,10,3,.3-.7-4.5,2.8-4.4,5.5.1,6.4-.3,9.2,3.8,2.9-1.3,4.4,7.8,7,10.3,8.8-2.5,8.6,5.3,14,11.2,2.2,3.5-1.4,6.1,3.9,6.6a46.9,46.9,0,0,0-4,8.8c3.4,6.2,3.1,19.3-2.3,23.5s-2.7,15.4-14.7,2.5c-7.1-4.8-5.4.1-9.5-2.5-2.5-2.8-5.2-6.3-6.3-1.7-11.9,4.4-2,23.9-10.1,33.4-12.8,18-36.3,9.3-48.7,26.4-8.2-1-9.7,4.7-13.9,9.2-2.8-.3-2.7,4.7-4.1,4.6-2.2-1.9-2.3,0-3,1.6-1.7,10.4,13.5,13.3,13.6,24,8.1,1.6,8.3,10.8,13.9,18-25.5,43.3,9.4,5.2,8.9,35.7-3.7,3.4-.3,6.1-3.7,7.6s-.8,2.8-.1,3.2c-4.6,4.5,2.1,9.4-3.3,12.7-8.1,5.1-15.6-9.8-24.2-11.5-5.2-4.7,1.5-6.5,1.4-10.1-4-4.1-6-1.6-3.7-8.8-26.7-5.2-13.5,6.3-30.5,6.9-3.5-2.9-4.4-11-8.4-10.9-6.1,2.7-11.8-1.8-17.3,2.6-2.9-3,4.2-15.9-3.7-6.1-14,3.9,7.7,15.6-9.1,17.8-19.8-6.8-34,7.3-53.3,2.3-8.7,1-1.8,13.2-11.5,12.7-6.8.7-12.5-2.2-16,5.8,1.8,2,3.4,1.2,4.5,5-13.5-4.1-10.5,4-18.7,7.3-7.8,1.1,4-6.4-3-5.6-2.9.7-11.1,1.7-11,5.2-3,.9-18.4,2.9-15.2-2.7,1.5-3.8-5.2-5.9-5.1-9.9-1.8-1.9-5.8.9-7-1.5s2.9-3.1,4.8-3.4c1.5-3.6-5.4-4.6-7.6-2.6-8.8,5-13.3-5.9-22-5.2-6.9-1.2-10.2,9.7-18.9.9-.6-1.3,2.4-3.4,1.6-4.9-8.2-1.3-.6,7.9-4.8,12.7,8.5,10.2.4,18-7.3,25.8-2.4,8-12.4,10.1-19.7,11.9-2.6-3,2.6-4.2,3.8-6-4-6.7,8-11.5-2.9-13.4-4.8.9,1.2,6.4-7.1,3-3.2,6.3-2.9-4.3-5.5-6.1,8.6-4.8-2.5-6.4-2.2-11.6-4.7-.1-5.9-1.1-7.7-5.1,0-5.8.2-3.6-3.9-3.5-3.4,3-2.3-3.9-7.6.8-1.1-2.8-4.9-1.2-5.8-2.9,3.4-3.5-2.3-8.6-5.3-5.3-11.3,27.3-38.8-8.5-55.2-12.1-20.4,3.4-11.3-9.7-38.3,1-4.1-4.5-4.8-5-1.9-7.9-4.1-.9-7.3-6.1-10.2-2.9s1.7,2.7,2.6,4c-2.2,5.7-2.1,1.1-7.7.2-1.6-4.6,2.2-14-5.1-9.4.1-3.1,0-5.8-4-6.6-1.2,1.1,1.5,5.6-1.6,5.1.1-4.5-2.9-8.3-7.6-6.2-.2,1.5,2.2,3.5-.5,3.1-6.9-.1-13.7,8.8-14.6,14.2-3.3,6.6,4.8,4.7,6,9.1-.2-2.9,3.3-1.1,5.3-1.6-.3-4.2,4.4-3,7.4-4.2,5.4,3.9,1.2,7.8,1.4,3.2-2.3,2,0,15.7-5.1,5-4-3.7-7.8.9-11,4.2,4.3,1.5,4.2,2.5-.4,3.4-6.2,0-15.2,3.1-17.4-5.8a12.7,12.7,0,0,0-7.2-.5c-.8-3.9-13.9,6.3-14.4,8.5-5.1-1.1-7.8,2.3-13.4.6-2.6-.1-2,3.5-5.5.6-1.3-9.1-3.9-3.9-9.7-5.4-1.8,6.3-24.6,12.7-18.6,1.6,2.1,1.2,2.3-2.1.5-2.6,3.4-7.2-5.3,3.9-8,2.1s-1.8-8.8-5.4-11.5c-4-16.9,3.7-30.2,6-47,6.5-4.9,1.2-10.2-2.2-14.9-.3-16.5,11.3-27.6,14.5-43.3,7.6-3,3-5.4,3.2-11.8,3.2-12.7,7.4-23.8,9-36.4,2.6-9.2,16.4-12.9,16.1-23.7,1.6-3.1,6.6.7,7.5-6.3,13-1.1,8.1-24.8,21.3-28.5-10.5-1.5-23.4-7.7-32.4-14-4.3,4.5-10.2,1.9-14.6-1.7-3.1,4.7-6.5,2.5-10.3,1.2-3.7,5.9-6.5-2.8-10.4-4-6.7,2.4-6.4-3.6-10.1-6.3-3.9-5.9,1.6-1.3-2.2-7.1-3.5-.4-6.1,2.8-4.4-2.5-3.5.6-9.7.8-9,5.7-5.3-.3-7.8,7.9-8.3,3.8-6.2-1.7-17.4,2.6-18.9-4.8-4.3-2-1.5,8.8-6.6,5.8,0-9.8-6-18.2-16.7-15-10.8-4.3,0,4-6.3,9.2-9-4.8-13.4,1.3-12.2-10.8-6.4,4.4-1.8-10.9-11.6-13.3-12.9-15.1,7.9-2.8-6.6-15.5.2-7-7-7.9-13.2-11.9-8.3,5.4-5.5-2.4-7.1-8.5,5.2-6.1-2.4-6.4,2.4-8.4-2.4-2.6,3.1-4.1,4.3-6.3,5.1-11.3-3.4-4,2.3-9.5,1.2-2.4,4.1-3.5,5.6-5.6s-.9-3.7,1.8-1.7c-3.5-4.5,2-6.8-1-11.1,7.9-6.7-12.4-.3-15-9.7-8.5,3.6-1.3-.7-8.8-4.6-5.3-.3-5.5-6.9-7.1-10.6-.4-1.3-2.2-1.9-3.2-2.4-3.7-.6-.8-5.4-5.1-6.3,1.9-3.9-2.1-7.9-2.6-12.7.5-3.1,1.8-3.7,1.5-7.3.5-1.6,4.8-4.7,1.1-5,1.3-.5-1-5.5,2-3.8,8.6-.6-2.9-9.1,3.5-9.7,1.8-5.8,11.6-2.5,10.5-9.1,2.1-7.4,7-1.9,11.8-4.5,1.5-6.1-10.6-7.8-3.4-13.8,1.5-7.9.3-4.7-2.7-10.3,2.2-3.5-3.3-4.1-5.6-3.9-5.7-2.1-8.3,2.3-10.3-7.1-6.5-3.6,9.6-8.6,8.2-13.9-16.1.6-5.3-2.4-15.9-12.4,0-3.8-5.9-3.8-8-2.5s1.3-4.8-2.6-5.5c-.6-1.1.2-2.3,0-3.4s-5.9-3-4.8-5.4c7.9,3.1,1.3-10.6,10.3-7.2,2.6-5.5.2-3.2.5-7.7,3.1-6.5-7.8-2.8-6.8-8.5-3.2-1.4,2.8-3.6,1.1-5.1-5.7-.4-9.9.3-14.6.7,3.7-5.7-7.2-10.1,1.9-14.3,2.1,1.8,2.3,7.6,6.3,3.3-1.1-8.9,28.7-16.8,18.8-20.3.3-.7,3.5-1.9,4.2-2.2-3-4.8-9.4,7.2-11.5.3-2.6-13.9,15.6-21.5,16.8-34.8-3.4,1.3-2.3-2.1-1.6-4.3,7.7-16.1-18.1-22.8-10.3-35.9-19.4-4.5.6-12.3-17.2-14-2.2-4.6,8.8-1.2-.8-12-1.2-5.7,10.9-1.6,12.3-8.2,8,6.8,15.3.1,4.6-4.9,5.9-3.9,8.3,1.7,12.2,4.6,4.1-.5,8.5-2.6,9.6,3,4.2-2.4,6.5,2.4,10.3,3.4.8-7.6-2.4-3.6-1.6-7.7,2.1.4,4.5,3.2,6.3,1.3,6.2,3.8,15.6-6.3,23.4-7.6s1.6,6.9,11.1-.7c1.5-3.9,6.8-7.6,6.1-9.6-1-6.9-12.8-8.2-15.3-12.8,2.2-5.2,6-1.9,7.2-7-.5-6.8,10.1-.4,12.6-5.5,2.1-7.5,10-9,13.8-15.5,11.6,2.2,1.3-6.8,3.9-12.4,8.9-10.8-1.1-16.7-5.3-26.3-5.7,9.8-21.4.8-30.2-2.1.4-8.6-5.7-11.7,6-12.4-17.3-19.3,18.3-14.4,29-11.5,5.5-2.2,2.8-22.9,4.4-28.9,6.9-15.2,18.6-28.7,13.8-47-1.8-3.5-3-9.3,1.3-11.7.8-8.2.8-17.3,5.3-24.6-3.6-1-9.9,1.1-6.9-4.1-34.5,19.4-17.4-38.1-10.2-24.1.1-4.3,2.1-4.3,6.4-7.1-19.4-1.2,6.1-18.6,13.5-21.3,21.1,5.8,73.1-17.1,79.4,1.8,1.8,4.9,23.5,17.8,9,24.3,4.4.9-4,2.8-5.6,1.9-.8,6.4,2.8,10.6,8.9,8.5,10.9,25,31-15.6,9.3-11.1-1.7-28.3,20.9-4.8,34.8-2.8-7.3,7.3-9.2,17.5-6.3,28.8,5.5-4.5-5.9-20.9,7-24.1,2.7-3.2.3-8.1-2.2-10.8-9.8-13.9-2.6-38.8,10.2-49.5,5.8-3.2,7.5,4.5,12.7,6.2,6.6,4.5,28.6,2.5,28.7,1.3,37.7-20.6,43.3,35.8,71.7,46.8,12.9,1.8,26.2,1.2,3-3.2-6.8-2.7-19.4-6.6-19.1-15.4,1.4.1.3,4.7,2.6,4.6,2.3,2.2-3.8-10.8-4.7-12.7-12.4-2.7-10.3-17.1-20.4-22.9-14.5-12.2-47.1,3.9-46.8-20.6-2.8.3-7.5-7.2-4.1-8.9,4.8-3.3,10.8,5.3,14.2-.6-7.4-24.2-7.2-9.5-15.2-14.7-2.8-3.2-4.7-7.1-2.5-11.1,4.7-7-.8-9.1,9.8-9.6,7.5-6.2,5.5-11.6-2.5-2.5-5.8,5.1-2.9-5.4-12-.6-10.3-7.1-7.8,11.2-19.4-4.4,4.8,6.9-1.1,1.2-1.4-2.6,4.1,13.9-5.1-.8,2.6-5,1.3,4,6.6-.2,9.4-.3-.3-5.1-5.4.3-9.1-1.6,2.6-13.2,31.8.9,36.2-13.6a35.8,35.8,0,0,1,10.5-3.4c-6.8-1-2.4-.8-3.4-3.3-2.6-4.6-5-6.2-6.2,0-1.8,4.6-17.3,9.3-14.8,1-4.8-4,10-4.7,5.9-11.3-3.5-.1-4.1,3.5-8.8.7,4.2,0,13.5-1.8,9.3-7.9-2.4-.1-6.6,1.7-7.3-.3,7.6-.5.7-10-4.2-11.2s-.3-6.2-4-6.8c-4.3-3.6-1.2,5.1-2.8,6.8-8.5-.3-.6,7-13,6-18.2,5.8,12.5-4.6,13.1-9.1,1.3-20.1-10.4-14.8-10.8-30.3-9.1-4.1-21.8,11.7-26.5,1.1-9.5-.4-6.8,12.4-7.4,20-5.2,1.7,1.3-56.1,18.2-47-2.3-.3-11.8-.4-4.5,1.8,5.7,4.7-12.3,6.2-6.5,14.2C303.5,40.5,333.5,35.8,338.3,30.6Z"
  />
  <path
    d="M345.6,1192c-1,.8-3.7.1-5.5,1.2C340,1188.7,344.2,1187.2,345.6,1192Z"
  />
  <path
    d="M935.2,198.9c-5.8-2.4-13,.5-18.8-1.4-3.4,2.1-8,6.8-11.7,4.1,2.8,1,4-2.8.8-3-1.4.1-3,7.9-8.9,3-11-3.1,20.7-5.2,4.8-18.7-.5-4.4,3.5-4.7,6.7-4.3,1.7.9-1,3.5,1.4,3.3-1.8.7-3.2,5.5-1.2,6-.4-4.1,3.6-5.6,6.6-4-3.6.6,1,3.7,2.1,2.7-1.4-1.9.2-3.9.5-6.4-.3-11.3-5.4-1.1-5.3-9.8-1-3.9-12-4.9-7.9.5,0,4.2-5.5,3.9-6.5,6.4-3-1.4,2.3-8.4,4.2-9.8-2.9-.3-2.7,1.6-3.2,3.2-1.4-2.9-6.7,1.2-7.4,3.5-10.7,1.8,7.6-12.8-1.1-14.9-3.6-3.6-7.3-10.9,1.4-9.9,2.8,5.9,5.9,12.2,12.4,14.9,8.6,2.2,36.5,23.8,27.9,26.5C935.6,191.9,935.5,195.8,935.2,198.9Z"
  />
  <path d="M344.4,151.1c-1.4-.3,0-2.6.8-1.5Z" />
  <path
    d="M343.3,155c-.6.4-1.1,1.1-.2,1.5C341.8,157.7,340.5,154.2,343.3,155Z"
  />
  <path
    d="M342.6,170.6c-6.9-.3,1.2-11.3-.7-5.1-.3,1.9,3.1,2.3.4,2.8C342.5,168.9,343.3,170.1,342.6,170.6Z"
  />
  <path
    d="M314.3,189.1c-2.5-.1.1-1.7-.6-3.3-4,1.6,1-5.5,4.5-2.8.9,1.4-3.1-.5-3.3,3C319,184.1,313.7,187.8,314.3,189.1Z"
  />
  <path
    d="M321.2,190.8c-1-.3-.4-1.5-.3-2.2C323.4,186,325.7,192.4,321.2,190.8Z"
  />
  <path
    d="M265.9,212.7c-1.6,1.6-12.9-3.9-11.1.2C246.9,209.6,263.8,210.5,265.9,212.7Z"
  />
  <path
    d="M233.5,216.5c-3.3-6.3,22-3.7,12.6-2.6C241.9,216.3,237.2,215.4,233.5,216.5Z"
  />
  <path
    d="M208.2,221.8c-1.9,0-5.7.2-7.7-1.1C202.3,218.4,207.7,219,208.2,221.8Z"
  />
  <path
    d="M224.6,217.7c-5.7-2.7-12.5,7.5-13,1.8C211.8,211.5,238,219.1,224.6,217.7Z"
  />
  <path
    d="M284.5,223.3c-.9-.3-5-.6-2.4-1.3.1-.4-.3-.5-.6-.6C286.1,217.5,291.5,219.7,284.5,223.3Z"
  />
  <path
    d="M178.5,222.3c6.9-2.7,30-1.4,10.6,1.9C185.6,223.5,172.4,226.6,178.5,222.3Z"
  />
  <path
    d="M163.8,229.1c-4.7-.6-11.4,2.9-15.8,1.1C148.3,227,185.8,227.5,163.8,229.1Z"
  />
  <path
    d="M150.1,237.4c-6.2-2-1.1-6.4,3-3.8C152.6,235.4,150.3,236.9,150.1,237.4Z"
  />
  <path d="M145.8,242.5c-1.2-.7,1.6-2.3,1.7-1.1S146.4,241.7,145.8,242.5Z" />
  <path
    d="M132.4,245.7c-2.8.6-9.6-.2-7.1-4.8,5.1-4.9,24-1.1,10.1.7-1.3.3-2.4,2-3.9,1.9C133.7,244.5,136.5,249.7,132.4,245.7Z"
  />
  <path d="M258.7,146.8c.2,1.1,2.3.9,2.2.2S260.3,146.2,258.7,146.8Z" />
  <path
    d="M255.2,146.5c.8-.2,2.4-.1,2.1.9h.1C257.7,150.4,256.4,148.3,255.2,146.5Z"
  />
  <path
    d="M332.1,61.1c-3.1,9.6-13.3,5.4-20.8,2.1C309.3,52.5,334,52,332.1,61.1Z"
  />
  <path d="M346.4,75.3c-2.9-.7-.6-2.2,1.1-2.5S347.3,74.8,346.4,75.3Z" />
  <path
    d="M305.5,77.7c-6.2-7.4-7.8-10.9,1.5-15.6-7.7,4.5,8.3,14.1,1.3,13.9,1.7.9,2.5.7-.2,1.1C308.3,78.4,306.3,78,305.5,77.7Z"
  />
  <path d="M317.5,86.6c-4-.4-1-6.7.6-1.2C317.3,85.3,317.5,86.1,317.5,86.6Z" />
  <path
    d="M327.1,86.7c-1-1.3-7.3-4.7-2-3.3C328.6,81.3,333.4,87.5,327.1,86.7Z"
  />
  <path
    d="M320.3,96.6c-4.2.3-4.9-14.1-.2-5.5C318.7,93,321.5,95.9,320.3,96.6Z"
  />
  <path
    d="M342.9,92.1c-.6,7.6-11.3,6.3-11.3-.6C334.8,89.2,349.8,82.9,342.9,92.1Z"
  />
  <path d="M346.5,101.9c-1.5-1,1.6-.9,2.2-.8Z" />
  <path d="M328.2,102.5c-.5.1-.8-1-1-1.3S330.1,101.7,328.2,102.5Z" />
  <path
    d="M321,108.8c-5.3-.1-7.9-8.2-1.5-6.5C319.6,104.9,324.1,105.6,321,108.8Z"
  />
  <path
    d="M858.7,99.3c.6-1,1.8-5,1.2-7.2.9-1.3-2.6-4.1-1.3-5.4,4.4.6-2.3-2.7-.8,1.3-20.3-1.8-4-17.4-21.1-3.2-12.2,6.4,1.5-6.5-1.3-11.7-11.7,4.2,0,8.5-10.7,12.2-6.8,4.3,4.3-3.6,4.6-6.7-3.6-10.3,17.5-13.4,23.1-10.2-9.7,5.7-7.4,17.7,5.7,16.3,18.5-6.7,27.8,5.4,8.7,15.5-.9,6.8,3.7,14.3,11,12.1,3.9,2.6,4.6,8.7,9.6,9.6-7.7.6-2.6,17.6-8,8.6,1.8,2.3,2.6,1.1,1.6-1.2-1.4.4-6.2,2.2-6.1-.2,4-2.7,8.9-4.9,1.1-5.1-.6.7-6.8,3.3-4.6,1.4,13.1-4.2,3-3.4,4.5-6.8-1.4-1.9-2,6.5-4.8,4.9-1.6-7.5-13.5,2.3-16.9-.6,1.3,3.6-.1,2.9-4,5.2-2,9.3-8.9.2-6.4,9.2.7-.3,1.8-1.9.3-1.5-.1-3.3,1.2,1.5,4.3-1.3,8.4,9.3-8.3,5.7-12.1,2,4.3.1,2.5,3.4,4.7-4.3-1.2,1.4-3.3,1.2-1.9,3.3-8.1,1.7-9.1-3.8-11.5-2.2s1.2-4.7-2-4.1c-.5,1.2-5,2.7-5.5,1.8.6-2.7,2.2-3.8,4.6-1.8-2.2-3.9-11.2-5.6-5-12.5,6.5-.5,8.3,2,14-1.3-1-1.9-3.3,1.3-3.7-3.3,6.1-.7-2.2-.7-2.3-4.5-9.2,5.1-5.9-5.7-1.5-2.9,1.6-2.1,3.4-2.1,6-2.9-4-.5,1.1-1,2.1-2.1-8.1-1.3-2.3-2.5-5.3-5-8.8,4.2-4.6-6.2-9.1-4.8,3.6-2.2,11.7-2.2,15.8-.3.1,4.2,3.7,5.5,1.9,2.4-3.1-6.6,13.2-12.5,4-3.5,4.8.6.1,2.8,1.1,5,9.2-3.7,1.5-3,1.1-5.4,2.5-3.6,1.2,1.6,4.5,2.9,3.1,3.2.1,2.5,1,5.5C857.7,103.3,851.5,98.2,858.7,99.3Z"
  />
  <path
    d="M821.6,83.1c-1.4-1-.2,1.3-1.1,1.5-1-5.4,0-2-3.8-1.5,3.7,7-5.2,11.5-4.1,19.7C810.1,99.8,818.3,69.5,821.6,83.1Z"
  />
  <path
    d="M818,104.9c-.8-8.4,14.8-9.1,10.5-2.7C826.3,99.1,819.9,108,818,104.9Z"
  />
  <path
    d="M802.6,107a5.1,5.1,0,0,0-.2-1.3c2.4-.5,7.9.4,8.1-3C813.8,106.3,804.7,105.7,802.6,107Z"
  />
  <path
    d="M797.5,107.1c-1.3-1.5,3.6-2.1,3.6-.8C799.7,105.7,798.7,106.7,797.5,107.1Z"
  />
  <path
    d="M774.2,108.1c6,2.4-1.1,1.1-3,1.8C769.9,109,773.3,107.3,774.2,108.1Z"
  />
  <path d="M777.3,110.6c.3,1.2-1.5,1.4-2.2.8A1.5,1.5,0,0,1,777.3,110.6Z" />
  <path
    d="M598.9,105.1c-.9-2.3-2.8.5-4.4.1-3.7-1.1-1,.4.8,2.4-7.5-1.3-2.5-11-.1-14.9,9.5-5.3,23.1,3.6,25.9,13,8,11-3.4,2.9-9.4,5.5-.6-1.3,1.6,0,1.6-1.5-4.2-1.6-6.2,2-2.7,1.4C597.9,117.4,602.9,102.4,598.9,105.1Z"
  />
  <path
    d="M861.2,126.9c-.9-.7,1.4-3.2,2.5-3.4C863.9,124.9,861.9,126.1,861.2,126.9Z"
  />
  <path
    d="M642.4,177.2c-.9,6.5-5,9.4-4,.4-3.3,4.1,0,6.6-5.7,4.2,3.7,2.6-2.3.4-1.7-2.3C630.5,174.2,648.7,170.3,642.4,177.2Z"
  />
  <path d="M817.6,88.7c1.3-.3,1.1.9.1,1.2Z" />
  <path d="M823.2,95.3c-.5,1.5-1.2.3-1.2-.7S823,94.8,823.2,95.3Z" />
  <path d="M817.1,127.2c.2-1.2,1.4-.6,1.8.2S817.5,128.2,817.1,127.2Z" />
  <path d="M903.4,138.3c-1.2-.2.6-2.2,1.3-1.5S903.6,137.6,903.4,138.3Z" />
  <path d="M887.9,146.4c0-.6-.5-2.8.2-3.2S888.3,145.7,887.9,146.4Z" />
  <path
    d="M848.6,149.9c-2.4-3.5,3.5-.5,1.2,1.5C849.6,150.8,849.5,149.7,848.6,149.9Z"
  />
  <path
    d="M430.4,224.5a5.9,5.9,0,0,1,2.4,5.8C432.2,231.1,429.8,224.3,430.4,224.5Z"
  />
  <path d="M439.4,242.8c-1.4-1.2-2.4-2.5.2-1.2S441.8,244.3,439.4,242.8Z" />
  <path
    d="M450.6,247.2c2.1,1.3,9.1-.4,9.3,1.8C458.2,249,442.7,246.5,450.6,247.2Z"
  />
</svg>