<svg xmlns="http://www.w3.org/2000/svg" viewBox="0 0 997.2 419" style="fill: currentColor; color: #00679E"><path d="M745.9,205.7c-7.2-22.3-.2-7.9-11.3-9-1.7-2,1.6-5.9-.7-8.4-.4-1.4-2,.4-1.9-1.1.9-3.2-2-2.8-3.3-5.6s-.6-5-3-5.7c1,1.9-8.3,4-8.9,2.3-4.2.5-1.9,5.4-5.7,6.4-6.2,3.3-9.2,11-15.3,12.7-1,5.4-.8,11.3-1.5,17-1.5-.2-3.6,2.5-1.4,3.1-3.4-.5-3.2,5.4-6.4,3.3-6.4-12.6-12.1-27.3-12.5-41.3.5-.7-.7-2.7-.9-1.4,0,7-10.3,1.5-8.7-2a2.6,2.6,0,0,0,3.1-1.1c-1.9.3-3.2.5-4.5-1.1s-3.3-1.6-3.8-3.4-.9-1.4-1.7-2.1-.4-1.6-1.9-1.3c-6.6-.1-22.3,3.5-24.9-4.2,0-.9-1.6-2-1.9-.9s-3.5,1.5-5.1,1.4-.8-.7-1.2,0-1.4-1.1-2.5-.8c.5-1.2-2.4-2.5-3.4-3.1-3.9-1.3-4-10.6-9.5-6.5-3.5,3.4,4.3,7.6,4.8,11.1.8,6.5,1.9-2,4,1.4.1,1.9-1.2,5.9,1.7,5.6,4.8-.1,7.8-2.4,10.5-6.5,2.3-2.6.3,3.8,1.7,4.8,1.3,3.3,6,1.7,7.2,5,3.2,2.2.7,4.5-1.2,6.8.9,1.6-.2,2.4-2,1.3-1.7,1.4.5,4.8-1.9,4.9s-1.6,3.4-4,3.2a1.6,1.6,0,0,0-1.8,1.7c-1.4,2.7-9,.5-8.6,5.4-4.5.9-25.9,15.1-25.1,6a24.4,24.4,0,0,1-1.3-9.3c-2.8-5.4-6.9-9.9-10-14.7.5-5.1-2.7-7.8-5.4-11.2-1-2.7-3.9-9.3-6.8-9.8-3.4,2.4-4.1-2.9-6-5.3,2.6,6.1,5.1,12.6,9.1,18.1-2.3,3,3.7,5.1,4,8.3s.4,7.8,4.1,10.6c1.2,6.1,3.4,8.2,7.8,11.5,1.8,2,3.9,3.8,5.2,6.1s-.6,1.4-1.3,1.9c2.3.8,2.6,4.8,5.5,3.8,4.7-2.6,10.8-1.4,15.3-4.3s.4,10.3-1.5,12.6c-3.8,13.5-16.8,20.2-24.3,31.2-3.2,2.9-4.4,7.3-6.2,11.4s2.5,3.5,1.4,6.4,0,6.6,2.7,7.8c1.1,4.5.3,9.9,1.2,14.6-2.6,7.8-12.2,9.3-16.6,16.1.7,4.5,2.9,7.9,1.9,13.1-1.3,3.4-6.8,2.1-7.8,5.8,3.5,6.3-11.6,23.4-18.3,24.4-2.5,1.4-5.7.9-8.9,1s-6.9,2.9-9.8,1.7c-5.4-2.7-1-.8-4.2-5.1-.3-1.4,2.4-2,.3-4.7-9.7-12.9-8-27.7-16.3-40.7-3-6.3.2-15.4,4.2-20.4,1.5-3.3-1.1-6-1.7-9.1,1.3-2.3.4-4.2-.7-6.7-1.6-8-8.7-12.6-11.2-20.1,2.2-.4,1.3-2.5,1.8-4s.2-1.2-.1-1.7c2.3-3.7,1.7-8.7-2.2-10.4-13.3,3.6-5.4-9.2-19.1-5.3-9.3,6.3-16.2,1.3-26.1,5.7-5.5-2.1-8.7-7.7-14.2-10-1.1-2.4-.8-5.7-3.2-7.5s-3.9-3.2-4.2-5.5c-2.7.3-4-2.6-3.7-5a3.4,3.4,0,0,0-1.8-4.5c2.8-1.8,2.3-4.8,3.4-7.5s.8-5.1-.7-7c.5-1.9,1.2-4.5-1.6-4.7,1.1-7.4,6.3-14,10.2-20.1,1.7-4.1,8.6-3.7,10.2-8.8-.6-3.9.5-9.2,4.9-11s3.9-5.1,6.3-7.5c-2.7-4-4-3.9-8.9-3.5.6-2.4.4-4-1.7-5.5.5-2.6,3-5.2,2-8.1-5.8-16.8,26.1,3.6,20.8-14.5-3.1-5.6-9.4-4.3-9.7-7.4,2.3-3.2,11.3,2.7,8-3.8,4,.9,4,1.6,7.6-.6,2.6.2,1.2-3.2,3.4-3.5,5.2-.1,6.5-5.5,9.2-6.5s10.2.4,9.3-3.5c.9-1.1-1-.4-1.2-1.3,1.4-1.6-.8-2-.6-3.9-.1-3.4,4.6-3.5,6.9-4.6.7,1.7-1.5,3.2,1.2,3.7a3.6,3.6,0,0,0,.1,4.3c.4,0,2.1.7,1.6-.2-5-2.6,2.5-2.2,3.2-4.5-2-2.1-3.9-4.2-4.6-7.1-4.1-1.4-9.6,6.4-14.7,1.6-.7-.4-.7-1-.2-1.7s-2.2.9-1.5-1.8-1-.4-.7-4.3c.8-1.1-.9-3,1.5-2.9,2.9-1.5,5.7-2.5,8.2-3.9s6.8-1,7.2-3.7c3.2.1,3.6-2.9,5.5-3.9,2.5-2.7,10.9-6,2.1-4.5-6.1,1.6,3-2.5,4.4-2.6s2.6-1.7,2.3.4c.9-.7,2.5.5,2.1-.6s3.9-.5,4.9-2.4,5-.8,6.8-.1A9.3,9.3,0,0,1,538,31c1.2,0,6.5-2.3,7.5-.2-.8-.3.6,0,1.1-.5s.3,1.5,1.1.7c3-2.3,7.6.3,11.2.9-4.5,1.6-.7,1.9,1.7,1.4A134.1,134.1,0,0,1,586.2,39c3,8-15.3,3.6-20.2,2.8-.2,1.7,3,.8,3.5,2.5-2.4,3.7,5.4,5.5,8.2,4.9.4-1.4-5.8-1.2-3.3-2.9,20.5,1.8-1.6.2,16.2-4.2,1.2.6,2.8,0,3.9,1.2,1.8-1.7,1.5-2.1-.5-2.9,1.4-1.9,1.3-3.1-1-3.6,2.3-.5,7.8-.8,9.4,2-2.7.4-6.6.6-1.8,2.4,7-1.3,14.5-5.7,22.9-5.7-1.9,1.5-.8,2.4,1.4,1.8s7.5-.5,11.1-1.9c.3-1.5,1.1.2,1.5.9-1.5,1.9,8.9-1.3-1.2-2.9-6.8-3.7,23.7,2.2,25.7,3.8,3.5-.1,0-1.4-.9-2.7s-3.9.5-3-1.5c2.9-1.6-2.2-2-.2-3.2,5.4-.4,8-8.5,13.6-5.1-1,1.6,7.5.2.9,4.7,2.3.4,2.4,1.4,1.7,3.3,0,7,7.5,1.1-3.4,9.8,3,.7,5.9-1.6,8.5-3.2s-1.7-2.3.6-3.2,4.9-.9,2.2-.9-7.7-1-3.6-3.7c-1.2-1.7-5.1-1.8-1.7-3.3s5.6-1,1.6-3.1c1.6-1,6,1.2,3.4,3.2-.2,1.8,4.3,1.7,2,.4s1.6-.6,2-1.4c3.2-4.2,13.6,3.5,15,.3-3.1-.4-4.6-.9-5.9-3.9,5.7-.4,13.9.1,18.7-1.1-16.9-1.5,26.2-6.7,30-5,3.6-1.1,7.6-.2,10.4-2.6,5.9-2.9,11.5.4,16.3-.2,2-.4-.1.4-.1,1.6,5.5-.5,13.4-1.4,17.4,1.3s-8.5,3.4-11,5.1-5.2.6-7.1,1.8c4.6,1,6.8-2.5,10.7-1.8,2.2-.8,3.3,1.7,5.7.2-1.6-.8-4.4.6-3.5-1.7,1.6.4,3.4-.4,5,.2-1.7,4.3,10.5,1.1,14.1,2,1.4,2,8,1.7,12.5,1.7,2-3.4,6.4-1.5,10.1-1.2s8.9.6,7.4,5.1c2.9,2,6.2,2.4,8.3-.9,6.4,1.4,13.7.2,20.4.6-3.7-5,11.1-2.4,15.3-2.7,6.9.1,12.2,1.7,18.2,3.4,4.2,2.7,10.1-.5,15,.6,2.5.6,8.4-.7,7.8,3.3,8.7,1.4,18.1-.4,26.5,0-.1,1.9-4.3-.3-2.9,1.4,2.5,0,4.5,2.6,6.8.4-7.1-5.2,16.3-1.2,19.7-1.1,7.5,1.4,17.3,3.7,21.6,7.8-1-3.2,7.9-.6,10.8.8,1.7,3.8-6.1.9-5.1,4.2-2.2,3.9-9-.1-11.8-1.7s-5.2,1.6-7.3-1.8c-.4,0-2.6.1-1.4.8,2.8,2.3-5.9,3.9-7.9,3.3-1,1.1,1.5,1,2.2.6.9,2,5.3,4.6,2,5.9-8.2-1.4-16.9,2.3-23.9,6.2-2.3.5-7.5-3-10.9.4-1.5,1-1.9.5-1.3-.9-1.7-.4-2.9,2.4-4.4,1.1l-2.6.2c-1.7,4.1-7.7,5-.8,5.9.3,1.2-2.6,1.9-.5,3,3.9,3.5-7.1.6-2.7,5.7-1.3,2.5-8.5.1-5.8,5-1.2.3-4,0-4.1,2s-8.2,8.1-9.4,7.1c8-3.6-1.3-11,1.4-18.2.3-2.4,3.9-1.9,3.2-4.7a12.7,12.7,0,0,0,7.8-3.3c3-3.4,8.6-4.1,11.3-6.9a4.4,4.4,0,0,1,1.8-3.1c0-1.2-5,.4-3,2.2-4.1.2-7.5,4.6-9.5,2.2s2.2-2.1-1.3-2.3-8.1,1.8-12,4-1.3,1.7.4,3.2a8.2,8.2,0,0,1-4.4.3c-2,0-5.6,2-7.2,0,3.9-1.2-2.2-.9-3.6-1.6-6.5,3.4-15.3-1.5-22,2.8-2.5,2.9-25.2,12.9-13.8,12-.7,3.5.6,1.7,1.7.1-.6-.9-1.6-1,.1-1.8,3.5-.6-.5,3.9.3,4.7,2.4-.6,4.2-3.6,6.9-1.7s4.7,2.1,3.3,5.4c1.3,1,1.6-1,1.5-2s1.7-.7,2.1-2.5c-1.4-4.4,2.7,1.4,2.4,3.6-1.2,4,2.4,8.5,3.6,12.4-2.4-4.5-7.2-.2-5.4,3.1.6,1.7,3.1,2.4,2,4.3-1.9-3.8-5,3.7-4.7-1.5s0-8.7.8-13.1c-3.2-8.1-4.3,4.8-5.2,7.3-6.4,5.2-12.6,20.7-22.4,17-2.6.7-4.6,2.5-6.8,4.3,1,2.9-2.5,4.4-4.8,5.5s2.9,4.5,3.3,7.2,1.8,8.8-2.4,8.7-8,3.5-5.1-2.9c.5-1.7-2.6-3.7.4-4.3.5-1.5-1.3-1.8-2.4-2.3-6.2,1.2,2.2-5.2-3.9-6.2-3.5-.6-5.9,3.5-8.9,3.2.2-1.3,2.2-1,.2-2.2.6-1.3,2.3-1.6,2.6-3.2-2.3-2.6-6.1,1.8-7.9,3.5s-3.4.4-4.3,1.4c-1.5,3.8,5.6,1,3.5,4.9,3.2,1.8,2.5-3.1,8.4-.5,1.7-.5,2.1,1,1.1,2.2a6.2,6.2,0,0,0-5.3,2.5c-4.9,2.7-2.5,3.8-.1,6.9.8,3.7,4.3,5.1,4.1,8.9-1.5,1.9-4.6,1-.4,3.2,1.9-2.6,1.3.9.3,2.1-1.1,3.8-4.1,5.8-5.8,9.5a1.7,1.7,0,0,0,.1,2.5c-3,2.1-5.2,4.9-8.3,6.7-3.7,3.9-8.7,2.1-11.5,5.6-1.7-.1-4.8-.1-5.9,1.7s.4,2.2-.8,2.5-1.9-3-1.7-3.7c-4.6-1.2-4.5.4-7.9,2.3-9.3,8,7.8,13.1,6.9,22,2.4,8.6-7.4,10.2-11.2,15.6-2.2,2.1-1.9-2.6-1.1-3.9-1.9-2.2-3.8.8-3.9-3.1-1.9,2.4-1-2.2-2.4-2.7a6.1,6.1,0,0,0-5.1-2.7c.2-1.6,0-3.2-2-2.1-.1,6.6-4.7,10.3.5,15.4.3,4.9,4.9,5.2,7.4,8.9,2.5,2.1,1.2,5.5,1.7,8.3s3.7,4.6,1,5.5c-8.2-2.7-9-10.5-11.3-17.1h0c-.7-1.8-2.3-2.6-2.8-4.3-2.7,1.7-1.8-2.4-1.4-4.3s-.2-3.9.9-5.8-1.7-.2-1.7-1.7c1.6-.5,1.1-1.6.6-2.6S746.3,206.7,745.9,205.7ZM568.4,157.1c.4.2.6.2.5-.4S568.6,157.9,568.4,157.1Zm120.4-56.2c.6.6.5-.1,0,.1S687.5,101.1,688.8,100.9Zm-47.2.3c-1.4-.5.2.4.6.2Zm45.8-63.1c4.2-1.5-4.7-3.9-1.2-1.7a1.5,1.5,0,0,1,1.2,1.9Zm-48.9,65.5c-1.7-.6-.1,1.2-.9,2s.4,3.5,2.3,2a2.5,2.5,0,0,0-1.4-4C640.2,102.6,637.9,101.9,638.5,103.6ZM504.4,76.4a16.1,16.1,0,0,0-3.7-.7c-.3,3.1,5.6-1.4,2.6,2.2,2.4.6,6.2-3.5,7.5-.7,3.9,3.4,9.4-3.7,13.7-1.2.7,2.7,5.6-1.1,6.8-2.2-1.5-2.8.3-6.8,3.7-6.8,1.5.2,2.4,2.8,4.1,2,4.4-7.3-6.4-.4-5.8-4.1,1.8-.3,1.4-.2.9-1.5,2.1-.9,1.8,1.3,3.4.8-.2-4.7,10.2-.8,12.8-3,5.7-.7-.2-2.7-2.9-1.9-5.4.8-11.3,3.3-15.6-.4.2-1.9.3-4.1-.8-5.9,1-.9.5-.9.4-1.9,3.2-.1,7.6-2.1,9.4-4.7,5.5-1.9-7.9-3.5-9,.7,1.5,4-15.9,5-10.3,11.5,1.6.2,3.5,1,4,2.6-1.3,2.9-4.4,2.3-6.1,4.3-.1,1.7-1.8,4.4.8,2.8-.9,2.4-1.9,3.4-4.3,3.6s-5.6,5.2-8.2.8C507.3,74.2,507.1,77,504.4,76.4Zm32.2,55.9h0c-.6-.8-1.2-1.2-1.7-.1-.6-1-.9-1.3-1.8-1.1-.5-1.5-2.5-3.4-1.2-4.6-1,.1-.6-1.1-1.7-1.1.3,3.5-1.9.8-.3-1.2-8.2-5.6,2.6-8.8-11.2-12.7-2.7-1.8-5.3-3.6-5.5-5-.6.6-3.1-.7-3.2-2.3-2-2.1-2.9,1.2-3.3,2.6,3.4,2.5,4.9,7.6,9.4,8,.7,0,1.9-.1,1.3,1s4.9,2,6.2,4c1.9,5.2-4.9-3.5-4.8,2.1,3.5,1.3-.4,4-1.7,5.6-3.3-.4-1.4,2.3-2.5,4-1.4-.1-8.1-2.8-7.4-4.1,3.2-1.6,13.2,1.1,8.9-6.1-2-.5-3-2.3-4.9-3.3-3.6-.9-6.4-4.2-9.3-5.7-1-6.7-7-4.3-10.6-1.4s-7.1-2.8-9.9.6c.8,4.2-.7,5.1-4.8,6.2-2.2,1.1-6.3,4.7-3.4,7.2-1,1.4-2.6,1.7-2.6,3.8a3.8,3.8,0,0,0-3.6,2.5c-3-.2-13.5,1-6.9,4.6,6.3,1.1,10.4-1.4,15.9-4s12.2-1.2,18.1-1.5c1.8.8,3.2-.4,4.9-1s2.2,2.6,3.9.9c.3-.1.7.2.6.5-3.8,3.6,3.3,5-2.5,8.4-.9,2,1.2,1,2.2,1.1,1.1,4.4,6.4,2.1,9.2,3.8,3.4,0,2.6,3.7,5.4,4.3s5.3,2.3,8.1,3c4.3-.7.2-5.1,3.2-6.8,6.7-4,12.3,3.8,19.3,3.5,4.6,3.2,7.6-1.1,12.1-.4,6.2,3.6,8.5-1.3,10.6-7.6,2.1-2.7-.6-6.4,1.8-8.7-1.5-.3-2,1.4-3.5.1s-5,4-7.5,1.3c-4.5-4.7-4.9,3.8-10-1.3a.6.6,0,0,0-.9.7c.3,1.8-2.5,2.4-1.3.4s-3.2-.2-2.6-2.5c2.2.9,1.1-1.7-.5-1.6s.6-.6,1.3-.8c-1.5-1.2-3.8,0-3.6-2.3.9.7,3.7-.8,1.7-1-4-.1,3.5-8.3-5.3-5.2-1-1.5-1.7.3-.3,1.6-1.3-.4-1.1.7-2.5.8-6.6-5.3,2.8,6.1,4.8,6.9s-4-3.7-3.2.3c-1.8-2.1-1.3,1.4-3.2.7C536.4,130.4,537.3,131.5,536.6,132.3Zm12.9-19c4,8.7,13.4.6,20,1.2a22.1,22.1,0,0,0,13.6,3.2c14.9-1.2-9.2-15.7-14-11.3s-2.1-.6-4.9-1.6,1.5-1.3,1.3-2.5c-4.6-.2-7.5-3.2-10.1,2.1.1,2.2-3,1.7-3.1,3.9S549.9,110.8,549.5,113.3Zm55.2-9.5c-3.5,4.6,2.3,12.4,7.2,15.6,1.4,1.3-2.7.4-2.1,2.8-1.9,4.2-2.2,5.9,2.6,7.5,5.4,5.5,14.1-2.1,7.6-6.7.3-1.6,1.4-1.8-1-1.8-.7-1.8.9-3.5-.7-5.1s1.2-3.4-.5-3.7-3.8-4-5.9-5.4c1.2-1.3,2.3.5,2.4-1.7s4.3,0,4.7-2.1c3.1-3.8-2.5-3.4-4.8-3.8S608.2,103.1,604.7,103.8Zm-43,143.3a14.2,14.2,0,0,0-.7,7.1c1.3-.8,3.1.5,4.6-.5C563.2,253,573,242.9,561.7,247.1Zm16.8-145.5c-2.2-1.1-.4-1.2.8-1.8,4.4-1.8-3.7,0-5.5.6C564.2,102.6,576.4,107.4,578.5,101.6ZM777.3,73.2c-2.8.9-2.8,4.5-5.5,6s-5,4.8-8.4,5.6c-.5,0-2.9.2-1.2.7,4.4,0,6.4-3.4,10.4-4.3s-.1-2.2,2.6-2.7S776.5,74.9,777.3,73.2ZM554.2,259.7c-1.7,4.2.7,7.9,2.8,11.5.6.9.3,2.6,1.8,2.3-1.5-2-.9-5.1-3-6.5s-1-.7-.7-1.6S554.8,261.5,554.2,259.7Zm14.6,25.2c1.5-1.3-1.4-10-1.7-7.1,1.9,3.5-.4,7.3,1.1,10.9S568.7,287.9,568.8,284.9Zm55.1-167.1c-1.5-1.2-2.3-5.1-4.7-2.8C618.6,118.7,621.5,118.4,623.9,117.8Zm54.9-15.4c1.5-.5,3.6-2.7,1-2.1S676.5,107.1,678.8,102.4ZM548,119.4c1.5.2,2.7,0,4.3.2C554.9,117.6,549.1,117.2,548,119.4Zm87.1-12.1a8.9,8.9,0,0,0,.3-2.8C634.4,105.4,634,106.7,635.1,107.3Zm-134.5-34c1.1.3,1.1-.2,1.1-1.2A2.2,2.2,0,0,0,500.6,73.3Zm191.4,27c-.7.2-1.8-.2-1.6.8S691.6,101.2,692,100.3Zm-9.4.1c.6.2,1,.4,1.5,0A1.2,1.2,0,0,0,682.6,100.4Zm5.3-72.5c-.1.2.8.2.7,0Zm1.4,2.3c.2-.3-.8-.3-.7,0ZM830,28.1c.1-.3-.6-.4-.8-.2S829.7,28.1,830,28.1ZM550.2,130.7c-.7-.3-.7-.2-1.4,0S549.5,130.9,550.2,130.7ZM531,75c.4.1.6.2.8,0S531.4,74.7,531,75ZM875.8,28.2c-.1,0-.2,0-.1.1S875.9,28.4,875.8,28.2Zm-189.2-.7c-.2.1,0,.1.1.2S686.7,27.6,686.6,27.5ZM546.3,122.8c-.2.1-.3.2-.1.4S546.5,123,546.3,122.8ZM497.7,69.7c.1,0,.1-.1.1-.2S497.6,69.6,497.7,69.7Zm38.8,53.9v-.2C536.4,123.2,536.3,123.7,536.5,123.6ZM869.9,80.8Zm-184-51.1c.1,0,.2.1.2-.1ZM487.8,82.9c-.1,0-.1.1,0,.1S488,82.9,487.8,82.9ZM535,126.5Zm1.1.4c-.2-.1-.3-.2-.4,0S536,127.1,536.1,126.9Zm103.8-26.1c-.1-.2-.2-.1-.4,0S639.8,100.8,639.9,100.8ZM963.1,47.2c0-.2-.1-.1-.2-.1Z" transform="translate(-2.1 -1.7)"/><path d="M233.5,28.3c1.2-.8,1.9-1.1,1.1-2.5,2.8-2.4,9.8-3.7,13-1.5,1.7-2.1,4.7-.3,7.2-.8,4.8-.3,7.5,3.3,11.9,4.2s11.3,2,16.2,4c-2.8,1.5,4.6-.5,3.1,2.3.4.6,1.4.3,1.7,1.2s-4.2-.3-2.7,1.5,4.6,1.6,7,1.4,5.5,2.1,7.9,2.8c5.8,1-.5,1.8,0,3.8-2.3.1-2.8.1-3.5,2.1-3.8.8-8.6-6.8-10.7-2.4,1.3,2.6,4.6,1.8,6.5,3.5.2,1.1,4.1,3,.8,3.6-.8,1.6,2,2.5-.6,2.3s-5-1.8-7.6-2.8c-5.4-1.5,1.5,1.3,3.5,2.4,4.4,3.6-2.1,1.2-4.5,1.1s-5-1.7-7.8-1.3a33.8,33.8,0,0,0-6.8-4.6c-3-2.1-14.1,3.1-13.3-2.3,3.5-2.2,7.8.1,11.8-1.6-4.5-2.1,2-2.6,3.8-4.4.1-1.8-5.1-3.9-3.9-2.2.8.1,2.1.1.8.9s-5.1-.6-2.2-1.3c-1.4-2.9-1.6,5.6-7.9,2.4-2.2-3.6,5.3-1.7,5.2-4.1-.9,0-1.8.8-2.8.7s-.2-1.8,1.2-1.4-1.3-.5-1.9-.8-2.6,1.3-1.9-.1c-2-4-4.9.3-8.4-.1-1.9-.5-3.7-1.2-5.6-.5,1.9,1.9,5.3,1.6.9,3.9,4.4,3.6-.2,3.2-3,5.5-1.2-.6-3,.5-.9,1s-1.7.6-2.2.1-6.7-3.2-4.6-.6c-3.9.6-4.4,7-9.7,5.7-1.4-.2-2.2,1.3-3.6,1.2s.6,1.4-.3,1.7c-4.9,1-11.1,4.4-10.8,10.3-.2,2.2,2.7,1.1,4,1.4,1.7,4.6,3.4,5,7.9,4.7,6,.9,10.9,5.3,17.1,5.5s5.3,2.6,6,7.2h0c1.9,1.9,3.7,3.9,6.2,5,1.1-1.3.8-1.4,2.3-.8-.4-1.2,1.6-1.8.8-2.9-3.3-8.7-4.1-5.2,3.8-9.3s-3.2-7.2-2.9-9.9c2.8-1.7,3-5.2-.9-5,4.6-.9.3-2.8,2.2-5.3,4.9,1.2,10.3-.4,14.8,1.6,2.9,1.7,5.3,3.2,8.7,3-2,4.4,1.8,5.9,5.3,7.7,3.7-.9,5.5-3.2,7.4-6.3,3.2,1.3,5.3,6.4,8.9,7.8,0,1.6,1.4,2.7,1,4.6,1.3.7,2.6,1.3,3.2,2.7,2.8.3,5.1,1.3,7.8,2.1-1.4,2.7,3.3,2.3,4.4,3.7,1,4.4-1.6,6-5.8,6.3s-4.1,3-6.7,3.4c-5.9,1.3-14.2-2.7-19,1.5-1.3,2.1-4.9,1.5-6.1,4-.9.9-1.4,2.1-.2.5,5.5-5.3,23.5-2.6,9.3.6,1,1.4,4.5-.6,4.1.8s-.6,4.9,1.8,4.4c-1.1-.7-2.2-1.7-.4-2.3.8,2.2,3.6,1.7,5.6,1.7-1.9,3.1-1.9.8-4.6,1.2,5.7,4.6,7.3-4.3,9.6-2.3-1.1,1.8,1.4,1.5,1.1,2.8s-2.8,1.4-4.1,2.5a29.4,29.4,0,0,0-11.7,5.2c-4.2-1-1.1-4.8,1.9-5.4-2.6-1.7-5.5,1.7-7.8,2.2s-8.5,2.1-8.9,6.6c2.3,3.7,1.7-.5,2.6,1.5s-2.6,2.6-2.5,1.1c-3.8.8-3.8,2.9-8.4,3.2a6.5,6.5,0,0,1-3.4,5.2c.1-2.1-.5-.5.2.8s-3.7,6.8-2.6,1.7c-2.5-1.1.5,4.9,1,6.6s-2.8,1.8-2.3,2.7.3.8-.1.9c-2.8.6-4.7,2.7-7,4.1-13.1,7.6-.2,16.1-3.8,26.3-3.2.5-4.7-4.9-6.5-7.3s.4-5.1-2.6-7.2c-1.4-2.7-3,1.4-5,.1-.9-3.5-5.4-.9-7.2-2.1-7.2-.7-1,4.9-3.9,4.2-1.2-1.9-1.6,0-3.2-.5s-1.2.3-2.2-.8-3.7,0-5.3-.9c-4.6,1.1-10.4,4-11.6,8.9,2,3.9-1,8.1-.7,12.6.6,8.2,6.8,17.5,15.7,12.8,1.4-.4,1.1,0,1.4.7.6-2.3,3.3-4.1,3-7,1.8-3.1,11.8-4.5,10.3.7.2,1.6-1.5.1-1.7,1.2s-.3,7.6-2.2,5.6c1.3,2.3-2.2,8-1,7.7,4.5,1.2,14.6-2.7,14.7,4.4s-2.5,12.3,3.1,17.3c2.5.4,4.7.3,6.9-1.8,4.2-1.5,6.4,5.9,8.9,2,2.6-1.7,1.5-4.9,4-6.7,3.3-.1,6.4-2.1,9.1-4.2,4.9.8-2.6,2.7.3,4.8,7.7-2.5-.3-6.1,7.8-1.7,2.4,2.4,1.8,3.7,6.2,2.4,2.7,1.1,4.8,2.7,6.9,0h-.1c1.3-.1,6.5-.8,5.7.3s-1.9.5-.8,1.7,2.8-.9,1.9-2c1.5-1.4,2.2,0,1.9,1.6-4.6,1.6,2,.5.5,4.6,5.4.3,6.4,5.7,10.4,8.4,7.2-.4,16.4,1.8,17.3,10.3.3,2.2,3.8,3.1,2.4,5.6s2.5,3.1,4.4,3.9c-.5,1.4-.6,4.8-.7,2.4,2.9-2.7,6-.6,8.9.9a2.2,2.2,0,0,1,2.6,2.4c.5.6,1.5,1.9,2.2.5,1.9.1,3.3,1.7,5,1.5,6.2-.6,9.3,3.4,13.9,7,3.7,0,5.2,1.6,5.6,5.5,1.4,12.8-14.4,16.6-11.4,30.5-2.4,8.3-4.1,23-15.4,21-.6,1.7-1.6.5-2.2,2.7-1.9-.7-3.8.5-5.1,1.9-7.3,5.3.1,7.8-8.4,17.9-4.3,4.6-7.8,14-14.5,14.5-2.6.7-12.8-4.3-5.7.4.8.5.9,1,.6,1.9-.4,2.6,3.8,2.9.1,6.1-2.8,6.9-16,1.1-14,10.1-2.2,2.3-4.9.8-7.5.2-2.2,7.2,6.5,1.5,3.2,6.2-3.8.4-4.1,3.9-5,6.7-12.9,3.6.9,5.9-.4,7.8s-5.7,2.8-5.4,6.7c-3.9,2.8-5.2,2.9-1.9,7.8-1,0-4.1-.3-1.7.7s5.4,6.6,10.5,6.2c-4.8,3.1-11.3,3.4-17.4.8.3-1.7-1.7.3-1.9-1.1s-1.3-.3-1.5-1-1.8,0-2.1-.6-1.6-1.1-.8-2.1c-1.5-.3-1.1.1-2.7-1.5,3.5.1,3.1,1.5.8-2.4.7-2.3.9-2.6-1.8-1.2-1.1-.1-.5-1,.6-1.3s-1.6-.8-1.8-1.7-.3-2.4-.3-3.9c-2.8-5,7.2-5.5,1-8.2-.3,1-1.6,1.4-1.2-.1s5.4-4.4,2.3-6.1c2.3-1,1.2-4.1,3.4-1.9-1.5,1.2,1.1,2.6.9.6,0-.5-.2-1,.4-1.3.1-3.1,2.8-8-.7-5.8.2,1.7-.2,6.2-2.8,4.1.6-5.7,3.7-10.5,2.3-16.5-.4-4.4,5-9.5,5.1-14.7.9-7.2-.2-13.7,2.7-20.7.4-6,.9-11.4,1.6-17.4,2.4-12.5-11.4-13.6-17-21.9-1.4-7-6.2-14.2-9.2-21.2a7.3,7.3,0,0,0-4-3.7c-.8-3.8-1.4-8,3-9.6-4.8-3.2-1.3-8.9.3-12.9,3.7-.5,1.8-4.5,5.2-5.3,3.1-2.6.9-6.8,1.7-10.2s-2.8-4.3-2.8-7.2-3.3-1.7-5.4,0c1.4,1.7,1.1,2.9-1.2,3.2s-3.7-4.6-5.7-2.9c-1.7-.9-2.6-1-2.4-3-2-2.5-4.4-1-6-3.6,1.7-4.3-5.1-5.8-4.8-9.2.2-1.2-.8.1-1.3,0-3.6-.6-7-2.1-10.4-3.2s-4.3-5.8-7.8-6.3c-7.4,3.5-14.6-2.1-21-5.6-3.7-.9-8-3.7-9.7-7.2.7-2.4,1.2-3.8-.1-6.1-1.2-5.4-9.5-8.2-10.1-12.8.2-1.5-2.4-2.2-3.3-3.3s-4.9-4-5.6-5.5c-.1-4-1.8-7.7-5.8-8.3-.9,8.3,3.5,4.3,4.5,9.7a39.7,39.7,0,0,0,5.6,8,2.9,2.9,0,0,0,1.5,3.3c-1.5,1.8.3,2.2,1.9,2.3,1.5,2.1.6,6.7-1.5,2.6-1.5-2.2-3.8-2.2-5.5-4.3,2.3-5.4-4.7-5.6-7.2-8.8-.9-.7-.4-.9.5-.8,4.5-1.5-2.1-4.7-3-6.5-2.6-6-4.8-13.4-12.3-14-2-.1-1-2.6-2.5-3.5a17.1,17.1,0,0,1-4-7.2,16,16,0,0,1-4.8-8.9c-1.4-7.3,3-15.1-.8-22.2-1-4.3-7.4-4.9-10.1-8.1s4.4,0,3.8-.6-3.4-2-3.9-3.9-2.5-.9-3-2.3-3.5-.9-3.6-3.3,1.3-1,0-2.4c-1.5,1.6-.6-.6-1.5-1.3-.3,1.4-1.1.3-1.8-.1s-.7,2.2-2,.8c-1.3,1.4-2.5-1-3.6-1.7.5-.5.3-1-.3-1.4s1-.6.5-1.4c-1.7,3.4-1.3.6-2-1.6,0,5.2-1.8-.8-3.6-.1.1-1.6-2.1-2-2.2-3.5-7.4-3.4-13.5-6.5-22.2-4.9.5-1.9-3-.9-4.3-2-.3,1.2-2.7,1.1-.9-.2-1-.9-2.7-.8-4.4-.3.5.9,1.1.6,1,1.8,2.4-2,1.5.9-.4.9-.2-2.9-13.9,4.7-10.9.7-1.5-1.8,1.3-1.6.7-3.3s2-.8,2.8-1.1-3.8.1-4.6,1.8h0c-12,7.2,5.8,1.3-11.1,9-1.1,2.3-4.6,1.5-5.9,3.4s-3.1.5-4,2.1c-.5-.1-.2-.7-.7-.6s-1,2.6-2.6,1.5-2.6.8-4.2,1-5.2,2.7-7.3.9c1.4-2.4,5.1-.9,7-3s3.6-1.4,5.1-1.2c1.1-1.7,3.1-1.9,4.8-2.7,6.2-2.8,2.7-6.9.5-4.4-1.6.3-4-2.5-5.4-1s-.6.8-1.6.2c-3.4,1.6-.7-2.5-2.9-3.8-3,1.4-8.4.3-8.2-2.9-3.3-.9-2.5-2.5-.2-4.1,3.5-4.8,6.4.2,7.4-3.6,6.6,1.7,3.5-.5,4.4-2.9-6.3,1.6-16,1.6-19.3-2.8,3.5-.5,6.5-2.1,10.1-2.3,1.9.5,4.3,2.3,7.2,1.1-4-3.8-21.5-6.3-6.5-7.7,5.8-3.9,12.3-3.9,19-5.4,3-1.3,6,.3,8.9.7s3.8-.9,5.1.5c15.1,1,30.2,1.8,44.9,4.5,1.2-3.4,6-.7,8.4-1.6s8.7-2.8,11.7-.6c3.4-3.5,4.4-1,8.1.8,1.9.2,2.7-3.2,4.6-.7s1.6,1.4,2.8.2c7-1.6,14.6,2.9,21.8,1.9,2.1.3,6.5,1.9,1.8,2.3.8,2.5,11.1.1,14.6-.3-3.2,1,6.1,2.8,3,.4h0c-2.7-2.1,4.1-1.9,5.5-2.6-.8-1.8-9.4,2.3-12.5,1.5-5.1.8-10.2-2.2-16.4-2.8-4.5-2.9,7.7-2.3,10-2.1,6-1.3-11.2.3-14.2-1.4,2.5-2.6-6.4-1.5-.6-3.5-.8-2.8-6.5,3.1-10.5,2.8-1.2.7-11.6-2.5-9-3.1s2.2-2.9,4.3-3.4c-3-2,.3-2.2,2.4-2.1,7.2.1,14.9-.3,21.7,2.2,1.2,1.6,4.1-.7,4.2,2.3,1.9-1.4,6.1-1.1,7.6.6,1.7-1.2,5.2-2.7,8,1.5,4.3,1.9-4.1-6.1,3.1-3.6.3-.3.5-.8.8-1,15.6-2-6.6,4.9,16,9,2.1,3.1-2,1.1-3.8,1.1,1.2.7,1.4,1.4,2.8,1.3-1.3.8-.3,1.2-.8,1.8-2.8-1.1-6.9.2-10.3-1.2-3.3,1.7,12.7,3.8,16.6,3.3,7.4-2.9,2.5-1.5-.3-3.3,3.9-3.9,12.4.5,8.3-3-.4-2.3.4-3.8,3.2-4.2-3.7-9.5,8.3-5.2,14.4-5.5-2.9,3.8-8.1,2.2-10.7,5.3,1.7.9,3.1.9,3.8,2.7,8.5,3.2-5.3,1.8,6.9,3.7.2.8-.6.5-.9.8s1.8,3.4,1.5,1c1.9-2.6,4.3-1.4,6.1.4s-2.9,1.4-.1,2.7,3.2.5,2.7-1.7,1.3.1,1.8.5,1.2-2.1,2.9-2.4c-2.3-4.8-2.8-1.3-6-3.2-3-.3-9-1.8-7.2-5.9s9.5-4.3,14-3.2C231.2,24.7,233.3,27.6,233.5,28.3ZM254.6,26c-1.7,1-6.3-2-4.9,0-2.1,2.4,2.9-.2,4.4.9C254.5,26.3,255.5,25.5,254.6,26ZM227.8,99.2c3.4,2.8,7-.1,9.9,1.5.6-1.5-1.3-5.3-3.3-3.5-1.5-5-5.6-2.5-9-2.1-1.3,1.8-11.4,5.6-4.8,4.4C221.8,102.6,231.1,94.9,227.8,99.2Zm3.2,5.3c-.4,1.9-5,13.9,1.3,10.2,2.1-2.4-1.1-5.2.8-7.7s6.3-6.7-.6-3.4C230.7,102.5,229.1,106.4,231,104.5Zm15.7-1.7c-2,2.8-5.7-1.1-8.7-.1.6,1.3,3.1.8,3.5,2.3s-1.2,3-1.3,4.4c1.1-.1,2.4-2.3,3.2-.4.9,5.7,4.1-2.4,2.8-4.3C252,109.4,251.6,103.3,246.7,102.8ZM143.9,44.5c4.1-3.5-3.4-.5-5.6-1.7,4.7-3.5-6-.1-9.2.1,4.7.1,9.8-.4,2.7,2.5.4,3.7,6.4-3.6,7,.5C139.9,43.6,141.6,44.1,143.9,44.5ZM152,56c-.7,1.8-1.9.9-3.3,1.4,6,1.9,11.2-1,16.1-3.8-4.1,1.6-7.3,1.4-11.7.4C155.1,55.5,154.2,56,152,56Zm89.3,59.5c3.1,3.4,15.9-5.1,8.9-2.5C246.9,112.9,244.3,114.4,241.3,115.5ZM198.7,81.4c3.3,3.8,6.5,4.2,2.9-1.1C199,77.3,196.2,78.8,198.7,81.4Zm7.6-46.6c.1,1.4,1.4.8,2.1,1.2-2.6.5-4.1,4.3-.9,3.8-1.5-2.9,4.3-1.2,5-3.6C206.9,37.7,214.7,32.5,206.3,34.8Zm54.2,73.3c-2.4,1.7-5.7-.1-8.4,1.9C251.1,111,263.1,111.8,260.5,108.1ZM274.2,218c1.9-.8,1.3-2.6-.4-4C272.5,215.5,273.1,216.5,274.2,218Zm1.2-174.7c.8-1,4.1.4,3.4-1.1S273.4,40,275.4,43.3Zm4.2,370.1c-1.4-.3-3.3.4-2.4-2C274.2,412.6,277.3,415.5,279.6,413.4Zm51.2-71.1c0,1.7-2.4,2.5-2.1,3.9S333.3,341.6,330.8,342.3ZM234.7,208.8a2,2,0,0,0,2.3,2.7A4.4,4.4,0,0,0,234.7,208.8ZM127.8,91.8c1.1,1.3,2.4,1,2.8,2.6C133.1,93.6,129.8,91.9,127.8,91.8ZM281.2,296.7a4.3,4.3,0,0,0-2-1.8C278.4,295.8,280.6,297.9,281.2,296.7ZM204,88.6a2.4,2.4,0,0,0,1.1-2.4C203.6,87.3,203.5,87.5,204,88.6ZM241.3,102c.7.5,2.1,1,3,0ZM226.8,45.4a4.6,4.6,0,0,0-3-1.1A3.6,3.6,0,0,0,226.8,45.4ZM100.4,69c1.1.5,2.7-.9,1.1-1.7A2.8,2.8,0,0,1,100.4,69ZM132,95.2a1.6,1.6,0,0,0-2.1.5C130.7,95.5,131.4,96.1,132,95.2Zm96.5-65a2.7,2.7,0,0,0-2-.2C227.2,30.1,227.8,30.5,228.5,30.2Zm48.1,69a3.3,3.3,0,0,0,1.7-1.6C277.8,98,276.9,98,276.6,99.2Zm15.9,281.6c.9.1,1.3.6,1.7,0S293.2,380.2,292.5,380.8Zm-24.2,7.8c.5.2.4-.6.5-.9S268,387.9,268.3,388.6ZM125.6,90.4c.5.5.7,1.1,1.3,1.4C126.3,90.5,126.3,90.5,125.6,90.4ZM274.9,411.8a2.8,2.8,0,0,0-1.9.8A2.7,2.7,0,0,0,274.9,411.8ZM269.4,118c.8-.1,1.3-.1,1.8-.6A1.6,1.6,0,0,0,269.4,118ZM200.8,38.6c.9.5.9.5,1.5.1ZM307.3,79.2c.1-.5-.9-.2-1,.1S307,79.2,307.3,79.2ZM265.2,403.5c-.5.5-.5.5-.6,1S265.1,404.6,265.2,403.5Zm-22.7-370c0-.2-1-.2-.9,0ZM222.6,152c.3-.3.4-.5-.1-.5S222.4,151.8,222.6,152ZM237,33.3c-.2-.2-.5-.4-.8,0Zm11.8.1c-.2-.4-.5-.1-.1.1ZM99.1,68.6c.3-.4.1-.8-.3-.6ZM23.3,41.2c-.2-.1-.4-.2-.5.1S23.2,41.7,23.3,41.2ZM279,411.1c-.1-.3-.3-.4-.4-.2S278.8,411.1,279,411.1ZM126,43.1c-.2.2-.2.3.1.4S126.3,43.3,126,43.1Zm47.6-2.8c-.1-.2-.3-.3-.4-.1S173.4,40.6,173.6,40.3ZM204,37.4c.1,0,.3-.1.1-.1S203.7,37.4,204,37.4Zm-94.5-2.7c.3-.2.4-.3.3-.6S109.5,34.3,109.5,34.7Zm127.7-5.6c-.1,0-.1-.1-.2-.2S237,29.4,237.2,29.1Zm38.3,385.7c-.2,0-.4.1-.2.2S275.6,415,275.5,414.8ZM144.7,26c.2-.1.3-.2,0-.3S144.6,25.9,144.7,26ZM9.9,45.7c-.2-.2-.2.2,0,.1Zm284.6,58.9h-.2C294.4,104.7,294.4,104.7,294.5,104.6ZM26,42.2h0Zm88.7,37c-.1-.1-.2-.1-.2,0Zm-10-8.4h0C104.9,70.9,104.8,70.8,104.7,70.8ZM232,32.5h.1C232.1,32.4,232,32.4,232,32.5ZM106.4,73.9h0C106.2,73.8,106.2,73.9,106.4,73.9Zm159,322.5c0,.2.1.2.2.2S265.5,396.4,265.4,396.4ZM98.1,65.1v-.2C98,65,98,65.1,98.1,65.1ZM201.9,167.4c-.1.1-.1.1,0,.2S202,167.5,201.9,167.4Zm76,250.5h0ZM262.1,133.5c-.2-.1-.3-.3-.4,0S262,133.7,262.1,133.5ZM103.8,71.9c.1,0,.2,0,.2-.1S103.9,71.7,103.8,71.9Z" transform="translate(-2.1 -1.7)"/><path d="M850.4,284.2c2.7-1.3,2.2,4.1-.3,4.3.2,1.8-1.3,3.2-1.5,4.8,15,11.1,15.8,12.8,17-6.9,1.9-13.7,4.7-.8,6,5.3,5.1-1.9,3.6,5.9,6.1,8.2,1.1,5.5-.1,5.3,4.5,8.2s3.8,4.3,5.9,8.6c.7-1.6,1.2.8,2.2-.2,1,1.1.4,2.3.8,3.4,8.7,5.6,8.3,17.8,5.3,26.8-2.9,5.4-7.7,10.4-7.6,17.2-2.4,2.4-6.9,1.3-9.5,4.3-.5,3.2-4.6-2.8-6.8-.8s-8.8-.6-11.4-2.6-.3-5-3.2-6.3c-1.4.1-7.7,3.1-6.1.1,2.7-.1,6.4-.7,4-4.1-.1,1.8-4.5,4.4-3.2,1.7,1.9-.4,1.9-4,2.4-5.8-1.3,1.4-2.8,2.3-4.2,3.7a9.4,9.4,0,0,0-1,2.3c-.5,0-2.4-.6-2.3-1.8s-2.1-3.3-2.9-4.6a2.1,2.1,0,0,0-2.4-2.3c-7.9-3.7-16.5-.4-24.3,2.6-1.9,2.9-4.2,3.6-7.7,2.7-7.2-.6-13.1,8.9-18.9.1a6.7,6.7,0,0,0,1.2-8.6c-1.7-5.4-3.1-10.9-5.8-15.8.8-2.8,1.1-1.7,2.3.2-.4-4.7-2.9-4.4-1.1-10.6-.6-1.5,1.6-5.1,1.4-1.7.9-.8,1-1.9,2.3-2.2,5-4.3,11.4-3.8,17.1-6.9,3.3-2.6,1.5-6.9,5.1-9.5.6.7.8,3.5,1.9,1.6-2.4-3.6,3.2-.7,1.8-4.1,3.4-3.8,7.2-8.9,10.9-2.2,6.3-.6,1.2.3,4.1-3.9,3.8-7.8,3.4-2.7,7.8-5.4.4-1.4-4-1.8-1.1-2.6s3.3,2,5.4,2.4,2.5.9,3.5.6,1.6-.3,2.2.1Zm23.7,81.5a.5.5,0,0,0,.4.9C874.8,366.2,874.5,366,874.1,365.7Zm-86-36.3c-.1-.1-.1-.4-.3-.2S787.9,329.6,788.1,329.4Z" transform="translate(-2.1 -1.7)"/><path d="M400.5,32c27.8.9-15.1,5.3-20.5,8.2-4,6.1-18.9,2.5-19,7.7-1.2,2.3-2.2,4.2-5.1,5.1-.7,2.8-1.9,6.2-3.6,7.9s-4.9-.4-6.8-1.8-5.4.3-7-1a98.5,98.5,0,0,1-9.9-9.3c-1.1-2.8-2.9-3.4-4.9-5.3.1-2.9-1.9-3,.7-5.6.9-3.4,8.2.6,5.8-3.7-1-2.2-5.2,3.2-10.1-.2.4-.8-.4-3.3.6-1.8,1.7-.4-.7-1.4,1.9-1.7,1.2-3,1.2,1.3,3.5.4,4.8.3-1-.9-2.2-2.1-1.4,1.1-2.8.9-4.6.8s.4-2.9-2.9-3.4c1.8-.4,2.8-2.7.5-1-.4-.4.1-.9,0-1.4-2.9,1.1-.8-1.6-3.1-1.2,2.2-8.6-44-1.4-37.7-8.5-13.7-1.9,6.4-3.6,11.5-3.6,8.2-.8,1.5-1.9-2.5-2.3,6-2.9,14.2-.6,19.2-3.5,29.2-.5,55.8-3.9,89.2-2.8,6.7-.1,13.3,1,20,1.6-4.5,1.4-.6.2-2.2,2.5,2.5.5,5.2-3.5,6.1-.6,1.4.7,1.8-1.2,2.8-.8,5.6,1.7,13.2-1.3,19.1,1-1.9.9-23.2,3.6-19.6,4.6-.1.6-.9.2-1,.7,2.1,1.4-1.4.3-2.2.5s-4,1.3-2.1,1.7,7.5.9,3.9,1.2c1,1.2,3.4-.6,4.1,1.2s-1.8.7-1.3,2.5c-2-1.4-3.2-3.1-6.2-1.9,1.2.7,6.1,2.5,3.2,4-1.3,1.5,6.2.7-.2,2.3-2.4,1.3-4.8,2.7-8.8,2.4,2.4-.4,4.1,2.2,1.1,3.2,1.4.3,4.1,3.3,1.7,4.1-4.8,1.1-7-3.3-10.2-2C403.9,31.8,400.3,31.7,400.5,32Zm7.9-4.6c-1.8-.8-.3.5,1,.1Zm-3.4-.5c.2.3-.1-3.3-2.6-2.1C403.9,24.8,403.8,26.5,405,26.9ZM402.7,4.8a2.3,2.3,0,0,0,3.1-.4C404.5,4.5,403.6,4.3,402.7,4.8ZM338.9,3.7a2.5,2.5,0,0,0,1.9.3C340.2,3.6,339.7,3.2,338.9,3.7ZM280,14.8c-.1-.3-1.4-.3-1.6,0Zm6.3-.6c-.1.4.8.3.7.1Zm119.5,9.5c-.2,0-.5-.2-.6,0S405.6,24.1,405.8,23.7ZM413,17c.2-.1.4-.2.2-.3S412.9,16.8,413,17ZM326.6,32.8h-.2C326.4,32.9,326.4,32.9,326.6,32.8Zm-1-.3h0C325.4,32.4,325.5,32.4,325.6,32.5Zm69.5-1.4c.1,0,.1-.1,0-.1S395,31.1,395.1,31.1ZM320,25.6c0-.2,0-.2-.1-.2S319.9,25.6,320,25.6Zm96.5-5.7h-.2C416.3,20,416.4,20,416.5,19.9Zm-3.7-6.3h-.4C412.6,13.8,412.7,13.8,412.8,13.6Zm3.7-4.9c-.1,0-.2.1-.1.1S416.6,8.8,416.5,8.7Z" transform="translate(-2.1 -1.7)"/><path d="M252.1,19.3c-1.4,4.8-15.8,1.3-21.4,2.5-4.6-.7-10.4.8-14.4-1.7-.3-1.8-1-3.3-4.1-2.7-5.5.1,1,1.3,1,3.3s-3.6-.1-5,.8-1.8-1.2-3.1-1,.3-.9-.3-1.2-1.2.5-1.5-.1c6.3-.9,7.4-1,.1-3,5.8-2.5,14,1.1,20.4-.2,1.3-1.5,7,.3,4.1-2.1.2-.6.7-.5,1.1-.6s1.1-1.6.1-1.3-5,.5-7.4.9c-5.9.2-28.2-4.3-10.1-7.1,4.9-.6,10.5,2.5,14.8,1.8-3-.6-5.7-1.7-8.6-2.1,1.2-1.1,3.9-.6,5.6-.8,11.2-.5,22.2-1.9,33.5-1.8,36.2-.7,70.3-.6,9.2,7.2-1.9,4.7-8.9,2.9-12.7,5,.6,1,1.8.2,2.8.5s-.8,1.6-1.6,1.4c-2.6-.6.2,2.1-3.2,1.5-4.7-3.5-17.6-.1-25.5-1.5C219,21,248.3,16.5,252.1,19.3ZM229.3,7.7a5.4,5.4,0,0,0,3,1.5C232.6,6.9,231,7.3,229.3,7.7Zm6.1,6.4a2.7,2.7,0,0,0-3.4-.7C233.2,13.2,234.1,14.2,235.4,14.1Zm4.4-6.2c.7.1,1.3.5,1.9-.2S240.4,7,239.8,7.9Zm-2.4,2.4-.9.6C237,11,237.3,10.9,237.4,10.3Zm13.1-2.9c.1-.1-.1,0-.3-.1S250.4,7.4,250.5,7.4Zm-16.4.3h0Zm-19.5,2.4c-.1,0-.1.1-.1.2S214.7,10.2,214.6,10.1Z" transform="translate(-2.1 -1.7)"/><path d="M843.2,253.8c-3.2.8-4.1-1.1-6.1-2.4s-3.5-2.5-1.7-2.5,1.4.2,2.4-.2c2.1-2,5.3-.5,7.1.8.4,3.5-.1,3.8,1.9,6.7s4.9-3.8,6.9-4.7c8,.7,16.7,6.7,23.8,9.3-2.3,4.3,4.1,2.8,5.4,5.9-.5,2.6-5.5.2.6,5,.5,3.3,13.3,9.9,5.1,8.2-10.6-1.7-6.7-6.7-14.8-9.1-3,0-2.4,5.2-5.6,5.1s-5.9-3.8-9.5-3.5c-4.2,2.5-5.8-1.8-1.3-3.1a24.5,24.5,0,0,0-1.7-4.5c-2.8-4.2-8.9-3.4-12.3-6.6-1.8.5.9,2.7-2.1,1.3-1.1-1-.3-3.1-2.6-4,.1-1.1,1.8-.3,2.4-.8s1-.6,2.2-.3C842.9,253.8,843.7,253.5,843.2,253.8Z" transform="translate(-2.1 -1.7)"/><path d="M776.7,239.8c2.2,2.8,4.7,1.7,4.5-1.7,5.8-.4,6.5-6.8,11.6-7.6-.1-.4-1.3-.7-.3-1,5.5-5.1,2.8-7.1,8.8-1.2,3,1.2,2.7,3.1-.7,2.9,2.7,1.7-.2,1.8-1.2,3.1a1.8,1.8,0,0,1-.5,2.3c1.4,2.7,1,4.9,3.9,6.7-1.3,1.9-5.2-.4-3.8,4.6.6,1.6-1.7,2-2.4,2.9s-.2,2.4-.6,3.7-1.2,1.7-.6,2.7c.2,3.8-.8-.3-4.7,2.5-.7-1.4-.4-2.9-2.8-2.1-1-1.7-2.2-.3-3.7-.3-3.1,1,.4-1.6-5.2-1.3-1.8-.3-.9-4.1-1.5-5.6C774.3,250.8,773.5,241.4,776.7,239.8Z" transform="translate(-2.1 -1.7)"/><path d="M604.8,292.3c.7-1,0-3.6,1.6-3.2-.6-2.3.9.2,1.4-1.2,1.3-9.3,5.8,4.9,4.7,8.3-.6,1.1-1.4.1-1.7-.7-1,1.4,1.7,3.5.2,4.5-4.7,6.4-2.1,26.9-13.5,26.7-4.5-1.5-5.1-8-4.7-12,.7-2.3,3.7-4.6,2.8-7.4C591.3,298.3,599.4,297,604.8,292.3Z" transform="translate(-2.1 -1.7)"/><path d="M766,253.7c-3.7-.6.1-6,3.1,2.2-5.7-.2.2,9.6-4.5,8.7-10.4-1.2-13.6-18.1-20.4-24.9-.6-1.8-12.6-12.8-5.3-10.3,1.3,1.2,3.5-.1,4.8,1,2,3.8,5.8,5.5,7.9,9.2,1.2-1,5.7,2,5.5,3.2,2.3.2,2.8,1.9,3.7,3.5-1.2,1.8-1.2,3.5,1.3,3.5.7,1.7,1.4,5.1,3.9,3.8C765.5,254.7,766.5,255.1,766,253.7Z" transform="translate(-2.1 -1.7)"/><path d="M454,70.6c-.1-.8,3.4-.9,1.5-1.3-.4.3-.7.4-.7-.1-2.4-2.7,7.9-4.3,9.1-6.4,2.4.9-.5,3.2-1.9,3.7.6,1.5,3.6,0,5,.7s-3.2,3.4-1.4,4.8,2.5,3,4.1,4.2,4.5,3.3,3.5,5.3c3.2-1.9,6.4,1.7,2.4,3.4-1.1.9.9.9,1,1.5-2.3,2.6-6.7,1.4-9.8,2s-3.3-.7-4.5,1.3c-2.2-1.2-3.5.9-5.7.4,1-1.8,6.2-3.7,5.4-4.4s-6.4-.8-1.7-2.3c1.4-.5.6-2-.9-1.6.8-.6,0-2.1,1.1-2,5.4,1.2,3-1.1,2.1-4-1.5-.2-3.9,1.2-4.5-.5s1.7-1.2,1.1-1.8-3.4,2-2.4-.8c-.9.1-1.4,1.5-2.3.3C456.8,71.4,456.9,71.6,454,70.6Z" transform="translate(-2.1 -1.7)"/><path d="M838.8,141.9c.8,3.1-4.6,11.5-5.1,4.5a8,8,0,0,0-1.4-3.1c-2.3-2.3,3.1-1.8,3.3-4.6,4.1-2.6,7.1-4.4,12-4.4,1.1,1,2.2.4,2.2-1s2.1-1.5,1.8-3,1-1.8,2-1.5-1.2,1.2-.5,2c3.3-.8,9.9-6.4,7-9.5,1.9-7.6,6.4-5.1,6.5,2.1-.8.9-1,2.2-1.6,2.9s-1.3.6-1.1,1.7-2.5,4-.5,6.4c-3.1,3.3-1.1,2.5-4.7,2-.1,1.3-1.4,2.3-1.6.4-1.3,1.4-2.3,1.3-4.2,1.2s-1.5-.4-.6.7c-1.2.6-2,1.9-3.1,3-2.9-.8-1.4-4.4-3.8-.3-1.2,1.4-3.2-.7-3.8,2.4-1.4-.1-3.5-2.2-1.8-2.7s-.6-2.5,0-.8c-1-.4-5.1-.1-2.7.4S837.5,142.3,838.8,141.9Zm7.7-4c-1.2-.2-1.2-.2-1,.9S846.2,138.4,846.5,137.9Zm-3.1.7c-.6-.1-1.5.2-1.6.8S843.1,139.2,843.4,138.6Zm4.5-.4c-.2-.4-.7-.4-.7.1S847.6,138.3,847.9,138.2Zm12.5-2.7c.1-.1.1-.1,0-.1Z" transform="translate(-2.1 -1.7)"/><path d="M529.6,7.5c27.9,1,20.5,2.1,1,3.5a61.4,61.4,0,0,1,7.3,2.2c.7.6,3.6-.5,3.1.8-3.8,1.1-7,.9-10.8.5,2.8-1.1-.5-1.9-1.9-2.3-5.8.4-8.5,6.6-15.3,3.2s-5.4-1.8-10.9-3.7c-.6-1.9,2.4,1.3.2-2.6,4.9.3,10.4-1.3,14.7,1.3C516.2,7.2,526.7,8.4,529.6,7.5ZM527,10.2c-.2-1.1-1.7-.6-2.8-.9C525.1,10.4,525.9,10.7,527,10.2Zm-14.4,2.5c.8,0,1.4.2,2-.4S513.3,12.1,512.6,12.7Zm15.2-2.1a1.1,1.1,0,0,0,1.2-.2C528.5,10.2,528.1,10.2,527.8,10.6Zm-23.7,1.1c.3-.1,0-.2-.1-.2S504,11.6,504.1,11.7Z" transform="translate(-2.1 -1.7)"/><path d="M626.7,26.8c-.4,3.1,3.6,3.3,5.7,4.2-1.6,1.7-4.1.1-6.1.3s-4.9.1-6.1-1.6c-1.2,1.5-9.3-1.4-1.8-3.1-1.1-1.4,2.9-2.1,4.2-2.4-2.6-1.5,3.1-1.4,4.1-2.9,4.2-3.6,31.9-7,37.1-4.8C651.4,19.7,637.6,18.8,626.7,26.8Z" transform="translate(-2.1 -1.7)"/><path d="M409.5,49.1c4.5-1.2-2.2-1.9-3.5-2.2,7.8-2.3,2.4-.9-1.4-1.9,2.3-2.1,7.5-4.3,8.8-.4.8,1.8,2.9-1.9,3.5-1.3s2.3-.7,3.9-.1,4.6.7,6.4-1c3.7,0,4,1.5,7.4,2.7,2.3,3.6-12,5.7-14.6,6.2C417.3,50,410.7,50.6,409.5,49.1Z" transform="translate(-2.1 -1.7)"/><path d="M953.1,375.7c5.6-3.8,2.3,4.2-.7,6.2s1.9,2.3-.3,2.3c-7.1.1-5.4,12.8-15.1,7.4-8.7-3,9.6-8.8,10.5-12.9.1-1.6,2.3-1.5,2.4-3.1S952.7,373.2,953.1,375.7Z" transform="translate(-2.1 -1.7)"/><path d="M813.4,250.5c-5.2,1.7-.9,3.9-1.5,7.3.7,1.5,3.2.7,2.2,2.5.9.9-.6,1.8.2,2.6-.5,3.2-4.3-.1-1.8-2-1.5.4-3.6,2.4-2.9-1.3-.9-.8-2.4-1.7-1.5-3s.4-.9,0-1.3c-4.2-.5,1.2,9.3-3.1,9.2s1.7-7.4-2.7-6.7c-1.4-2.4,1.4-4,1.2-6.3s.8-5.6,2.7-8,5.3.2,9.2.1c2.2,1.1,3.1-3.9,4.8-1.9-.7,8.8-19.8-1.9-12.8,8.6,1.8.6,4-2.3,6.8-2,1.3-.3,1.3.9.6,1.8s.6,1.1-.2,1.7C812,252.3,814.7,248.1,813.4,250.5Z" transform="translate(-2.1 -1.7)"/><path d="M315.4,85.9c4.8-2.1,2.9,1.2.7,3.6,1.2.8,3.5.1,1.8,1.9,1.5.2,1.5.2,2.2.8,4.1-4.4,2.6,3,5.3,2.1.6,1.1-1.4.9-1.6,2.4s.8-.7,1.4-.8.3.7-.2,1.7c3.6-1.2.6,4.5-2.6,2.5-.8-.9,1.7-3.1-.4-1.9s-4.7,3.4-4.4.8c2.8-.8-.4-1.1-1.7-1.3s-10.9,1.2-7.1-2c.8-.5.5-.7-.2-.8s1.5-.9,1.8-1.8A35.7,35.7,0,0,1,315.4,85.9Z" transform="translate(-2.1 -1.7)"/><path d="M966.2,369.8c-3.1-2.5-3,7-7.3,7.3s2.9-4.9-3.7-6.3c-1.4-.7-.5-1.9.7-2,5-4.4-5.9-11.7-3.5-14.4,2.3,2.5,5.5,3.1,5.1,7.4,2.3,1.4.9-2.9,2-1.4s1.3,2.4,1.3,4C965.3,368.1,969.8,359.3,966.2,369.8Z" transform="translate(-2.1 -1.7)"/><path d="M150.9,16.6c2.3.2,4.4-2,6.4-.6-5.4,1.2,5.8,1.7,8,2.8,5.7.2-2-1.9,3.1-2.7,3-1.5,4.5,3.1,7.7,1.7,1.1-.4,4.7-.4,3.6,1.5-4.3,3.2-10.4,0-15.3,2.1-3,.5-6.8,1.5-9.5-.4,1-.1,2.1-1.2.7-1.1-5.5,1.3-13.6.4-4.6-3.4Z" transform="translate(-2.1 -1.7)"/><path d="M778.9,268.1c.7-1.3,1-1.9,2.3-.8s7.6-.4,7.6,1.6-3.1,0-3,1.2,4.1-.8,4.6,1.6,2.5-.6,3.3,1.1c-.2,3.8-3.7-1.5-3.1,1.4-3.8-1.6-8.1-.8-12.1-2.3s-6.2-.6-9.3-1.7-1.8-2.7-4.1-2.1,1.3-1.4,1.5-3.1C771.5,264.7,774,268.4,778.9,268.1Z" transform="translate(-2.1 -1.7)"/><path d="M811.5,204c-3.8-3.4-.5,3.3-2.4,4.2s-4.1-4.7-1.2-4.4c-.4-.9-1.4-1.2-.5-2.3s.9-1.2,0-.7-2.6-4.3-2.4-5.8c3.5,2.4-.7-8.9,4.3-6.8.9,1.4,2.7-.5,2.8,1-.6,3.3,2,5.2-2,7.7-1.5,3.5,1.5,1.6,1.6,3.5-.7.2-1.9.3-1.1,1.2a12.1,12.1,0,0,1,5.8,1.4c1.2-1.9,2.3,1.4.5,1s-1.1.7.1,1.1.4,2.1-.7,2.5,1.1,1.2.5,2c-4.3-.7-1.4-3.9-3.8-6.1C813,206.2,812.8,204.9,811.5,204Zm3.4,2.9c.7.3,1-.7.1-1S814.9,206.6,814.9,206.9Z" transform="translate(-2.1 -1.7)"/><path d="M454.8,83.7c-3.7.9-16.3,4.8-8.5-2.2-.3-1.8-2.6-.9-1.6-4.2,4.7.1,2.6-.2,5-2.7C459.8,72.9,456.9,77,454.8,83.7Z" transform="translate(-2.1 -1.7)"/><path d="M262.7,180.2c.2,1.7,4.8,1.5,3.8,3.3s-9.5,2-9.3,0c2.6-1.8-.5-1.5-1.8-2.2-1.4-3.2-5.8-3.2-9.1-4.2-1.5-.1-1.3-.7-1.3-1.6-3-.6-5,3.5-8,2.6C243.7,168.3,254.8,177.1,262.7,180.2Z" transform="translate(-2.1 -1.7)"/><path d="M725.4,8.7C731,5.6,737.8,5.5,744,7c-3.6,2.3,3.2.9,5.4,1.6,3.6,4.6-8.2,2.5-12.3,2.4C733.3,9.3,727.8,11.5,725.4,8.7Zm7,.4c.6.1.7.3.9-.1S733,9,732.4,9.1Z" transform="translate(-2.1 -1.7)"/><path d="M876,109.7c2.6,3.3-5.3.9-5.7,5-3.6.4-1.8-2-7.3-1.3-2.2,0,1.1,1.2,1.1,2.1s-2.2,1.5-3.3.9c.9-1.4-1.4-2.7.1-3.8s1-.4,1.1-.9c-.6-2.8,2.5.6,2.7-1.4,2.2-11.6,1.4-3.5,9-1.7,4.7-2,.8-.2,2.3,1.1Z" transform="translate(-2.1 -1.7)"/><path d="M820,215.7c1.2-.2.1-1.3,1.1-1.9s-.2,3.6.8,1.7.7.8.2,1.3a10.4,10.4,0,0,1,.8,10c-2.9-4.8-1,.2-1.8,1.9s-3.3-1-4.3-2,1.4-3.8-1.3-4.3c-1.2,3-3.1-1.4-3.6,2.1-2,1.7-.9-3.9.8-3.5,4.5-4.6,2.6,1.7,5.2-1.6,1.3-.3.5-1,.5-1.8C820.3,218.8,821,217.5,820,215.7Z" transform="translate(-2.1 -1.7)"/><path d="M203.2,24.7c4.4,1.5,0,4.8-2.9,4.6s-9.1-2.3-13.1-3.5c1.9-2.5,4.2,1.1,6.4-.2-.4-1.4-1.8-.9-3.1-1.4,2.7-1.6,13.7-3.5,12.7.5C200.6,24.3,202.7,26,203.2,24.7Z" transform="translate(-2.1 -1.7)"/><path d="M234.3,43.7c3.4-.6,2.7,1.1,5.4,2A53,53,0,0,1,250,50c-2.9,1.9-6.1-.1-8.9-.9-1.3,1.1-5.2,4.4-6.3,1.8-.5-1.1-7.9.2-2.1-2A7.7,7.7,0,0,1,234.3,43.7Zm2.4,1.5c.2.1.4.3.5-.1S236.8,44.8,236.7,45.2Z" transform="translate(-2.1 -1.7)"/><path d="M883.4,379.2c-.9.9.7,3.9-1.6,2.6-4.4,5-8.1-3.7-7.9-7.7C877.7,376.4,887.8,372.2,883.4,379.2Z" transform="translate(-2.1 -1.7)"/><path d="M270.6,187c-1.1-2.8-3.3-4.1,2-2.7,3-1.3,12.4,2.2,9.5,5.5-1.6-2.1-3.6.1-5.5-.5s-1.4,1.5-2.1,2.2c-1.2-2.3-4.1-2.4-6.2-1.7s-3.7-1.7-1.5-1.9S272.8,189.2,270.6,187Z" transform="translate(-2.1 -1.7)"/><path d="M852.3,19.8c3.6-5.2,12.4-.7,17.9-1.7C885.7,19.7,856.4,22.9,852.3,19.8Z" transform="translate(-2.1 -1.7)"/><path d="M202.5,19c-3.4,5.5-31.7-5.6-14.1-1.4,2.5-2.3,6.2-1.6,9.1-1.2S201.7,16.9,202.5,19Z" transform="translate(-2.1 -1.7)"/><path d="M623.9,6c3.1,1.3,13.7-3.1,12.6-.3,1.9.6,9.5-.2,8.2,1.9-1.7,0-12.1,2.9-8.9.7-3.7.1-7,1.5-9.8-1,1.2,2.2-2.9.1-4,.7-.1-1.1,1.4-1.1,1.9-2Zm12,1.6c1-.1,1.9-.9,2.9-1.1C637.6,6.7,635.9,5.8,635.9,7.6ZM637,8c.8.2.8.2,1.2,0Z" transform="translate(-2.1 -1.7)"/><path d="M700.1,224.2c-6,11.4-7.2-3.9-5.8-8.4C697.7,215.9,699.1,221.6,700.1,224.2Z" transform="translate(-2.1 -1.7)"/><path d="M141.7,17.9a30.2,30.2,0,0,1-10.8-.1c3.9-1.7,19.8-5.8,20.2-2.5s-2.4.8-3.8,1.9-3.4,2.7-5.9,1.8c-.4-.5.4-.7.3-1.1C145.9,18.4,145.1,15,141.7,17.9Z" transform="translate(-2.1 -1.7)"/><path d="M812.2,273.3c.8-1.5,7.1-2,7.5-.4-1.8.7-3.4.3-5.1.7-4.5,1.5-9.1.4-13.4.8-1.6-.2-4.3,2.2-4.9-.3-2.8,2.6-2.4-3.5.2-1.4s2.4-1.6,3.9-.6a2.9,2.9,0,0,0,2.7,0c-.2,1.4.9.9,1.8,1.1C807.2,271.5,809.6,273.2,812.2,273.3Zm-12.7-.3c-.1.6.1.8.7.5A1.8,1.8,0,0,1,799.5,273Z" transform="translate(-2.1 -1.7)"/><path d="M181.5,12.4c.4-1.5-3.2-1.4-1.3-2.3,5.8.1,12.7-.2,17.6,2.9C194.5,14.9,186.2,12,181.5,12.4Zm1.9-.7c-.3-.5-.3-.5-1.1,0Z" transform="translate(-2.1 -1.7)"/><path d="M748.2,13c3.5-1.6,7.6-4.5,11.2-2.4C775.1,11.7,752.8,14.3,748.2,13Z" transform="translate(-2.1 -1.7)"/><path d="M815.7,216.2a2.1,2.1,0,0,0-.9,1.6c-1.1,1.2-2.8-1.2-2.8-2.3s2-1,.4-1.8-2.1.4-1.6-1.6-1.3-6.9,2.2-4.7c.4,1.3-.7.4-1.3.1-1.4,2.9,4,2.8,3.8,5.5,1.3-1-1.2-1,.4-1.7S815.4,215.1,815.7,216.2Zm-2.2-3.5h-.1C813.4,212.7,813.3,212.7,813.5,212.7Z" transform="translate(-2.1 -1.7)"/><path d="M811,168c-.2,5.9-5.5,15-4.9,3.6C807.1,170,808.7,165.4,811,168Z" transform="translate(-2.1 -1.7)"/><path d="M889.1,262.4c.8,3.8,4-1.5,4.2-2.8,3.7-.3,1.2,2.5,1.4,4.1-2.2.8-3.8,3-6.4,2.8s-4.5-.8-4.2-2.7C886.3,263.8,888,264,889.1,262.4Z" transform="translate(-2.1 -1.7)"/><path d="M157.7,13.7c1.2-.9,2.6-.5,3.9-.8-3-.3-4.1-.7-.4-1.1C176.8,9.2,164.4,18.6,157.7,13.7Z" transform="translate(-2.1 -1.7)"/><path d="M775.9,183.8c6.2-2.3,5.2,3.5.9,5.6C772.9,189.7,773.2,185.6,775.9,183.8Z" transform="translate(-2.1 -1.7)"/><path d="M209.7,12.4c-1.1,2.2,3.2.4,4.3,1.6-4.5,1.8-10,.4-14.1-1.7C200.6,9.6,207.4,12.3,209.7,12.4Z" transform="translate(-2.1 -1.7)"/><path d="M820,273.4c13.4-2.7-3.6,4.8-6.7,7.7.2-1.6,2.1-2.2,2.4-4S818.9,275.3,820,273.4Z" transform="translate(-2.1 -1.7)"/><path d="M615.4,8.8c-5.6,0-12.9.1-17.7-1.5,5.9.3,13.1-2,17.9.2C612,7.8,611.5,8.2,615.4,8.8Zm-12-1.2c-.2.1-.1.2.1.2S603.5,7.7,603.4,7.6Z" transform="translate(-2.1 -1.7)"/><path d="M51.1,65.9c-2.7.5,1.2,2.2-5.1,4.1-1,1.8-4.9.8-1.3.1,0-.1,0-.4-.1-.4-2.5-1.3-.6-2.4,1.1-3.1S49.8,63,51.1,65.9Z" transform="translate(-2.1 -1.7)"/><path d="M827.7,239.2c.2,1.3-.3,3.3,1.7,2.2,1.5,1.7-1.5,2.6.7,4.2-3-.3-2.6,1.2-1.2,3.6-2,.9-6-1.5-2.5-1.8C827.1,244.8,824.5,241.5,827.7,239.2Z" transform="translate(-2.1 -1.7)"/><path d="M306.8,409.6c1.3-2-4.4,1.9-3.4-1.3,1.2.6,1.3,0,1.2-1.2C311.3,405,316.8,409.4,306.8,409.6Z" transform="translate(-2.1 -1.7)"/><path d="M820,215.7c-1.5-1.5-2.9-3.7-2.5-5.9,1-.4,1,1.6,1.5.1-3.2-2-.1-4.5,1.7-1.8C822.2,213.9,819.2,209.5,820,215.7Z" transform="translate(-2.1 -1.7)"/><path d="M891.2,19.8c-2.6,2.8-9.4.9-13,.1C881,17.6,887.1,20.1,891.2,19.8Z" transform="translate(-2.1 -1.7)"/><path d="M829.8,257.4c-5.2,3.1-3.4-4.6,3.7-1.7a2.3,2.3,0,0,1,1.9,3C833.4,257.9,832.1,257,829.8,257.4Zm-1.8.1c.2-.1.3-.2.1-.5S827.7,257.3,828,257.5Z" transform="translate(-2.1 -1.7)"/><path d="M870.8,24.9c-2.9-.2-14.3.2-7.9-1.5C856.8,21.3,871.3,22.3,870.8,24.9Z" transform="translate(-2.1 -1.7)"/><path d="M974,28.5c9.8,1.3,1.2,2.6-3,2.3C964.7,31.4,971.2,28.2,974,28.5Z" transform="translate(-2.1 -1.7)"/><path d="M927.7,309.7a24.5,24.5,0,0,1,8.1,6.8C932.8,317.3,928.5,312.6,927.7,309.7Z" transform="translate(-2.1 -1.7)"/><path d="M107.3,77.7c-1.6,2.6.7,4.3,1.8,6.3C105.4,82.6,99.1,76.5,107.3,77.7Z" transform="translate(-2.1 -1.7)"/><path d="M805.3,210.5c-2.6,1.4.8,2.8-.2,3.3-3.2,1.3-3.9,5.1-7.3,6.6-.3-2.4,2.8-3.1,3.7-5.1S802.8,210.7,805.3,210.5Z" transform="translate(-2.1 -1.7)"/><path d="M293.5,90.6c2.3-.9,6.2.5,7.8,2.1C299,94.2,295.7,91.8,293.5,90.6Z" transform="translate(-2.1 -1.7)"/><path d="M667.8,399.9c1.9,3.4-7.4,3-4.1-1C666.3,399.8,665.4,400.9,667.8,399.9Z" transform="translate(-2.1 -1.7)"/><path d="M261.5,190.4c-2.5.5-4.5.8-6.4-1.1C256.3,187.1,260.2,188.8,261.5,190.4Z" transform="translate(-2.1 -1.7)"/><path d="M612.4,35.4c-1.6.7-6.1,2.4-6-.2S611,34.1,612.4,35.4Z" transform="translate(-2.1 -1.7)"/><path d="M240.3,54.6c-2-2.4,3.6-3,5.1-2.4C245.1,53.4,241.9,54.8,240.3,54.6Z" transform="translate(-2.1 -1.7)"/><path d="M808,278.2c-1.6,2.1-3.3-1.1-5.2-1.2C802.5,274.4,807.7,276.2,808,278.2Z" transform="translate(-2.1 -1.7)"/><path d="M968.7,302c.1,2-2.2,2.5-3.8,1.7S967.4,300,968.7,302Z" transform="translate(-2.1 -1.7)"/><path d="M40.2,182.9c2.7.5,4,2.8,1.2,3.9S39.8,184,40.2,182.9Z" transform="translate(-2.1 -1.7)"/><path d="M905.5,268.6c-2.6-.6-3.6-2.9-4.3-5.4S905.7,267,905.5,268.6Z" transform="translate(-2.1 -1.7)"/><path d="M890.9,255.9c-.1-2.7,8.9,3.6,5.8,5.9C895.5,259.3,894.2,256.4,890.9,255.9Z" transform="translate(-2.1 -1.7)"/><path d="M11.5,78.3c-.4,2.2-11.5,4.6-5.9,1.2C10,80.7,7.5,77.1,11.5,78.3Z" transform="translate(-2.1 -1.7)"/><path d="M291.3,189.6c-1.9.7-5.4,2-5.5-1C287.5,188,290,188.2,291.3,189.6Z" transform="translate(-2.1 -1.7)"/><path d="M846.4,267.6c-3.6,2.9-1.9-5.2-.1-3.6C846.4,265.2,847,266.5,846.4,267.6Z" transform="translate(-2.1 -1.7)"/><path d="M823.5,256c1.4-.2,3,1.5,1.6,2.4S820.3,256.1,823.5,256Z" transform="translate(-2.1 -1.7)"/><path d="M646.1,7c2.6-.5,5.7-1.5,8.1-.4C651.3,8.2,646.7,7.4,646.1,7Z" transform="translate(-2.1 -1.7)"/><path d="M833.5,283.7c-.1-2.5,1.6-1.5,3.2-1.9C839.4,283,835,284.7,833.5,283.7Z" transform="translate(-2.1 -1.7)"/><path d="M8,60c1.5-.4,4.7-1.7,5.1.7C11.4,61.5,9,61.5,8,60Z" transform="translate(-2.1 -1.7)"/><path d="M971.8,297.4c.2,1.2,0,2.2-1.4,2C965.2,301,969.8,296.8,971.8,297.4Z" transform="translate(-2.1 -1.7)"/><path d="M373.3,417.5c-2.1.4-3.9-1.9-6.1-2.2C368.3,414.2,372.5,415.4,373.3,417.5Z" transform="translate(-2.1 -1.7)"/><path d="M250.5,72.7c-.5-2.4,2.2-2.5,3.9-1.6C254,73,252.2,72.8,250.5,72.7Z" transform="translate(-2.1 -1.7)"/><path d="M257.1,172.2c-3.2-2.4-.9-7.7-.1-2.3C257.3,170.5,258.4,171.5,257.1,172.2Z" transform="translate(-2.1 -1.7)"/><path d="M455.4,64.8c.2,2.2-2.9,2.1-3.1,4.4C450.8,67.5,453.4,65,455.4,64.8Z" transform="translate(-2.1 -1.7)"/><path d="M823,252.2c-.9,1.2-.7,3.3-1.5.7C814.1,252.7,818.7,251,823,252.2Z" transform="translate(-2.1 -1.7)"/><path d="M251.2,56.1c-3.2-.1-.5-3.9,1.3-2.2S251.9,55.8,251.2,56.1Z" transform="translate(-2.1 -1.7)"/><path d="M220.6,247.6c1.1,1.7-1.6,3.7-1.7,1.4S217.7,244.7,220.6,247.6Z" transform="translate(-2.1 -1.7)"/><path d="M730.7,203.9c.2,1.4.2,6.4-1.4,6.1C729.7,208,729.2,205.3,730.7,203.9Z" transform="translate(-2.1 -1.7)"/><path d="M910.3,273.4c-1.5,2.3-3.7-4-.6-1.7,1.6,1.4,2.5,3-.2,1.7C909.6,274,910.1,273.7,910.3,273.4Z" transform="translate(-2.1 -1.7)"/><path d="M836.3,271.9c-.8-2.2.5-3.5,2.6-2.8C838.4,270,834.8,274.2,836.3,271.9Z" transform="translate(-2.1 -1.7)"/><path d="M183.5,15.3c-1.8.1-4.3.4-5.3-1.6C179.7,13.6,180.3,13.7,183.5,15.3Z" transform="translate(-2.1 -1.7)"/><path d="M223.7,14.8c-1.2.8-2.9.3-4.3.5C219.1,12.9,222.8,13.7,223.7,14.8Z" transform="translate(-2.1 -1.7)"/><path d="M920.9,277.2c-1.8-.8-2.6-2.3-2.7-4.5C919.8,272.9,920.4,275.9,920.9,277.2Z" transform="translate(-2.1 -1.7)"/><path d="M880,107.4a5.9,5.9,0,0,1,5.6-3.4C884.7,105.3,881.7,106.4,880,107.4Z" transform="translate(-2.1 -1.7)"/><path d="M911.4,270.1c1.7,0,4.6,1.4,4.6,3.1C914.2,273.1,913,271.3,911.4,270.1Z" transform="translate(-2.1 -1.7)"/><path d="M977.6,85.3c-1.4-2,1.7-.2,2.5-.9C986,84.4,980.7,85.6,977.6,85.3Z" transform="translate(-2.1 -1.7)"/><path d="M915.3,275.5c1.2.2,4.8,1,3,2.4C917,277.7,914.9,277.4,915.3,275.5Z" transform="translate(-2.1 -1.7)"/><path d="M934.4,292.6c1.5.7,2.5,1.5,2.1,3.4C934.6,295.9,934.5,294.3,934.4,292.6Z" transform="translate(-2.1 -1.7)"/><path d="M258.3,163.4c-1.3-2-2.1.1-3.9.1s1.8-.8,2.3-1.6C260.6,161.4,257.5,168,258.3,163.4Z" transform="translate(-2.1 -1.7)"/><path d="M999.2,51.2c-1.4-.9-5,1.2-4.2-1.4C996.3,50.7,1000,48.9,999.2,51.2Z" transform="translate(-2.1 -1.7)"/><path d="M256,33.7c.2,1.7-4.4,3.6-3.2,1.7C254.1,35.1,254.2,33,256,33.7Z" transform="translate(-2.1 -1.7)"/><path d="M244.9,81.4c.2-1.9,3.6-1.2,3.8.4S245.9,81.4,244.9,81.4Z" transform="translate(-2.1 -1.7)"/><path d="M772.4,256.7c-1.2-.1-1.2-.1-2-1.1C771.1,253.7,774.5,254.5,772.4,256.7Z" transform="translate(-2.1 -1.7)"/><path d="M991.6,84.1a39.8,39.8,0,0,1-6-.1c1.2.2,2.2-1.9,3.2-.9S990.4,83.1,991.6,84.1Z" transform="translate(-2.1 -1.7)"/><path d="M420.3,20.4c-.5-1.5,2.5-1.4,3.4-.7C426.4,20.7,421.5,20.4,420.3,20.4Z" transform="translate(-2.1 -1.7)"/><path d="M837.1,247.6c-1.6.6-2.4,1.1-3.3-.5C834.7,246.1,836.9,246.1,837.1,247.6Z" transform="translate(-2.1 -1.7)"/><path d="M199.1,9c-1.2.7-4,.5-4.4-.4C196.2,7.9,197.6,8.3,199.1,9Z" transform="translate(-2.1 -1.7)"/><path d="M748.1,251.7c-.6,1.8-2.7-1.2-1.8-2S747.9,251,748.1,251.7Z" transform="translate(-2.1 -1.7)"/><path d="M906.5,267.2c1.9.4,2.4,2,3.8,2.8A3.3,3.3,0,0,1,906.5,267.2Z" transform="translate(-2.1 -1.7)"/><path d="M36.9,181.4c-2.2-2.6,2.5-1.2,2.8.1S37.9,181,36.9,181.4Z" transform="translate(-2.1 -1.7)"/><path d="M743.7,244.8c-1.1-.8-2.6-4-.1-2.6C744.2,242.8,745,244.4,743.7,244.8Z" transform="translate(-2.1 -1.7)"/><path d="M925.7,65.1c.8-1.2,3.3-3.5,3.9-1.8S927.2,64.4,925.7,65.1Z" transform="translate(-2.1 -1.7)"/><path d="M623.9,207.2c-.7,1.1-3.1,1.2-3.3-.1S623,206.3,623.9,207.2Z" transform="translate(-2.1 -1.7)"/><path d="M816.7,214.5c3.1,0,.8,3.3-1,1.8a17.4,17.4,0,0,1,1.1-1.8Z" transform="translate(-2.1 -1.7)"/><path d="M622,8a4.5,4.5,0,0,1-4.6.1C619.1,7.8,620.5,6.7,622,8Z" transform="translate(-2.1 -1.7)"/><path d="M469.2,61c-3.3-1.5,1.8-3.9,1-1.9S469.6,60.2,469.2,61Z" transform="translate(-2.1 -1.7)"/><path d="M435.6,155c-.5,1-1.2.9-1.2,2C432.4,161.2,432.8,154.5,435.6,155Z" transform="translate(-2.1 -1.7)"/><path d="M892.4,278.1c-.8,1.3-2.4-1.8-3.4-2.2C889.7,274.3,891.9,277.6,892.4,278.1Z" transform="translate(-2.1 -1.7)"/><path d="M188,13.6c1.1-1,2.8-.2,4.3,0A3.9,3.9,0,0,1,188,13.6Z" transform="translate(-2.1 -1.7)"/><path d="M181.4,20c.9-1.1,2.6-1.3,3.3-.2S182.4,20.5,181.4,20Z" transform="translate(-2.1 -1.7)"/><path d="M740.5,14.9c.3,2.4-4.2,1.8-1.8,1C735.6,15.3,739,15,740.5,14.9Z" transform="translate(-2.1 -1.7)"/><path d="M923,280.6c-1.7,0-1.7,0-3-1.9A2.7,2.7,0,0,1,923,280.6Z" transform="translate(-2.1 -1.7)"/><path d="M722.3,6.4c2-.7,3.1-.7,4.1,0A4.3,4.3,0,0,1,722.3,6.4Z" transform="translate(-2.1 -1.7)"/><path d="M848.4,251.8c.9-.6,2.9-.1,3.9.3C851.1,252.9,850.9,252.9,848.4,251.8Z" transform="translate(-2.1 -1.7)"/><path d="M560.5,8.6a7.6,7.6,0,0,1,4.9-.4C564.1,9,562.1,8.5,560.5,8.6Z" transform="translate(-2.1 -1.7)"/><path d="M254.4,50.8c.9-.4,2.9-.5,3,.6S255.2,51.7,254.4,50.8Z" transform="translate(-2.1 -1.7)"/><path d="M762.6,245.6c1.6,1.9,1.3,1.4.1,2.8S762.5,246.4,762.6,245.6Z" transform="translate(-2.1 -1.7)"/><path d="M884.4,373.5c-1.4,1.2-1.7-1.4-1.6-2.2S884.2,372.5,884.4,373.5Z" transform="translate(-2.1 -1.7)"/><path d="M826.4,250.2c1.5,1.1,1.5,1.1,1.7,1.8C826.6,252.5,825.1,251.8,826.4,250.2Z" transform="translate(-2.1 -1.7)"/><path d="M821.6,271.5c0-1.3,2-1.4,2.8-.8C823.5,271.7,823.5,271.7,821.6,271.5Z" transform="translate(-2.1 -1.7)"/><path d="M876,109.7c.3-1.3,1.9-3.3,3.3-2.5C878.5,108.1,876.8,108.9,876,109.7Z" transform="translate(-2.1 -1.7)"/><path d="M428.1,156.6c-.5,1.8-2,3.1-2.5.9Z" transform="translate(-2.1 -1.7)"/><path d="M453.4,55.4c-1.9-1.3-.6-1.8,1.3-1.5-.4.7-.3,2.1-1.3,1.5Z" transform="translate(-2.1 -1.7)"/><path d="M690.6,25.7c.9-.7,2.3-1.2,2.7,0S691.5,26.3,690.6,25.7Z" transform="translate(-2.1 -1.7)"/><path d="M805.3,210.5c-.3-1.4-.6-3.8,1.2-1.9C806.6,209.4,805.4,209.7,805.3,210.5Z" transform="translate(-2.1 -1.7)"/><path d="M937.2,394.5c.5-.7.4-2.4,1.5-1.6S938.6,394.7,937.2,394.5Z" transform="translate(-2.1 -1.7)"/><path d="M887.3,103.9a3,3,0,0,1,3.1-2.2A6.3,6.3,0,0,1,887.3,103.9Z" transform="translate(-2.1 -1.7)"/><path d="M290.8,56.1c.6-1.5,2.1-1.3,2.3.3S291.5,56.6,290.8,56.1Z" transform="translate(-2.1 -1.7)"/><path d="M938.3,297.7c-.5,3.5-4.4-4.5,0,0Z" transform="translate(-2.1 -1.7)"/><path d="M241.8,179.3c0-1,.3-2.2,1.3-1.5S243.1,179.5,241.8,179.3Z" transform="translate(-2.1 -1.7)"/><path d="M760.9,242.8c5.3-.7-.8,3.3,0,0Z" transform="translate(-2.1 -1.7)"/><path d="M627.6,313.4a1,1,0,0,1-1.8-.8C626.2,311.5,627.7,312,627.6,313.4Z" transform="translate(-2.1 -1.7)"/><path d="M695.4,6.9a6.9,6.9,0,0,1-3.5.3C692.5,6.1,694.3,6.5,695.4,6.9Z" transform="translate(-2.1 -1.7)"/><path d="M827.7,239.2c.9-.7,2.3-1.5,1.9.3S827.9,240.1,827.7,239.2Z" transform="translate(-2.1 -1.7)"/><path d="M645.1,5.8c.5-1.4,2.7-.6,4.3-.6C648.2,6.5,646.4,5,645.1,5.8Z" transform="translate(-2.1 -1.7)"/><path d="M834.4,253a1.6,1.6,0,0,1-2-.6C833.4,251.8,834.7,251.1,834.4,253Z" transform="translate(-2.1 -1.7)"/><path d="M395.4,125.3a1.5,1.5,0,0,1-2.7,0C393.8,125.4,394.4,124.7,395.4,125.3Z" transform="translate(-2.1 -1.7)"/><path d="M270.1,178.9c.8,2.7-3,2.4-1.6,1.1S269.7,179.8,270.1,178.9Z" transform="translate(-2.1 -1.7)"/><path d="M495.7,236c.5-.5.7-1.4,1.5-1.3S497.1,237.3,495.7,236Z" transform="translate(-2.1 -1.7)"/><path d="M939.1,296.9c-.2-1.3-.1-1.7-1.5-1.8C939.3,292.6,940,295.2,939.1,296.9Z" transform="translate(-2.1 -1.7)"/><path d="M932.7,74.2c1.4-.7,1.5.9,2.2,1.7C934,76.5,933,75.2,932.7,74.2Z" transform="translate(-2.1 -1.7)"/><path d="M766.9,12.7a7,7,0,0,1,4.3.2C770.1,13.5,768.3,13.1,766.9,12.7Z" transform="translate(-2.1 -1.7)"/><path d="M266.2,408.9c-.9,1.9-2.1.2-1.8-1.1A1.9,1.9,0,0,1,266.2,408.9Z" transform="translate(-2.1 -1.7)"/><path d="M749.9,254.2a2.4,2.4,0,0,1,1.3,2.7A2.8,2.8,0,0,1,749.9,254.2Z" transform="translate(-2.1 -1.7)"/><path d="M740.5,239c-.7.5-2.8-.7-2.3-1.4S739.8,238.4,740.5,239Z" transform="translate(-2.1 -1.7)"/><path d="M681.7,24.3c1.2-1,2.1-.7,3.6-.2C684.3,24.6,683,24.2,681.7,24.3Z" transform="translate(-2.1 -1.7)"/><path d="M828.6,162.5c-.5.5-1.9,3.2-2,1.6S827.4,162,828.6,162.5Z" transform="translate(-2.1 -1.7)"/><path d="M823.4,142.5c-2-.2.6-2.1,1.3-1.1S823.7,142.2,823.4,142.5Z" transform="translate(-2.1 -1.7)"/><path d="M848.9,18c.9.4,1.9,1.1.7,1.5S848,19.1,848.9,18Z" transform="translate(-2.1 -1.7)"/><path d="M879.1,253.5c-.1-1.4,1.6-1.2,2.4-.5S880.1,253.5,879.1,253.5Z" transform="translate(-2.1 -1.7)"/><path d="M35,180.1c-.7-.4-2-.5-1.5-1.4S35.1,179,35,180.1Z" transform="translate(-2.1 -1.7)"/><path d="M842.2,263.3c0,2-2.7,2.7-1.4.8C841.5,264.3,841.4,263.3,842.2,263.3Z" transform="translate(-2.1 -1.7)"/><path d="M991.9,288.9c.7-.2,2-.4,1.7.7S991.9,289.9,991.9,288.9Z" transform="translate(-2.1 -1.7)"/><path d="M581.7,264.5c.4.6,1.1,1.7.6,2.3S580.8,265,581.7,264.5Z" transform="translate(-2.1 -1.7)"/><path d="M981.3,384.9c-.8-.9-.5-1.8.9-1.3S982.3,385.1,981.3,384.9Z" transform="translate(-2.1 -1.7)"/><path d="M632.6,309.2c1,1.3-.4,2.6-.9,1.4A1.4,1.4,0,0,1,632.6,309.2Z" transform="translate(-2.1 -1.7)"/><path d="M257.7,50.1a2.1,2.1,0,0,1,2.4.7A1.7,1.7,0,0,1,257.7,50.1Z" transform="translate(-2.1 -1.7)"/><path d="M261.1,169.3c.2-1.5-.3-2-1.4-2.7C261.2,166.7,262.1,167.4,261.1,169.3Z" transform="translate(-2.1 -1.7)"/><path d="M302.2,194.6c1.1,1,.2,1.3-.7,1.8S301.5,195.2,302.2,194.6Z" transform="translate(-2.1 -1.7)"/><path d="M554.5,11.1c-.9.4-3.5.6-4,0A7.7,7.7,0,0,1,554.5,11.1Z" transform="translate(-2.1 -1.7)"/><path d="M286.4,420.6c-1.2.1-2.1.3-1.6-1.2A2,2,0,0,1,286.4,420.6Z" transform="translate(-2.1 -1.7)"/><path d="M871.8,372.6a1.4,1.4,0,0,1,.1-1.8C873,370.8,872.9,372.5,871.8,372.6Z" transform="translate(-2.1 -1.7)"/><path d="M2.2,51.8c-.4-1.5,1.1-.7,2.2-.7C3.9,51.7,3.9,51.7,2.2,51.8Z" transform="translate(-2.1 -1.7)"/><path d="M936.1,311.4a1.5,1.5,0,0,1,1,1.4C936.5,313.5,935.7,312.7,936.1,311.4Z" transform="translate(-2.1 -1.7)"/><path d="M282.8,59.9c.2-1.2,1.1-1.5,1.6-.6S283.6,60,282.8,59.9Z" transform="translate(-2.1 -1.7)"/><path d="M429.3,159.5c-.9-.1-.8-1.6.2-1.4S430,159.7,429.3,159.5Z" transform="translate(-2.1 -1.7)"/><path d="M447.3,30.8c1-.5,2.3-1.3,3.1-.6S448.5,30.7,447.3,30.8Z" transform="translate(-2.1 -1.7)"/><path d="M848.5,22.3c.8-.2,2-.4,2.2.5S849,22.8,848.5,22.3Z" transform="translate(-2.1 -1.7)"/><path d="M195.1,35.7c-.3.8-1.7,1.3-1.7-.1S194.8,34.9,195.1,35.7Z" transform="translate(-2.1 -1.7)"/><path d="M907.1,272.2c-.6-.4-.7-1.8,0-1.9S907.4,271.5,907.1,272.2Z" transform="translate(-2.1 -1.7)"/><path d="M951.4,81.2c1.3-.4,1.3-.4,2.2.4C952.2,82,952.2,82,951.4,81.2Z" transform="translate(-2.1 -1.7)"/><path d="M593.3,284c-1.1-.5-1.2-.9-.4-1.9A2.6,2.6,0,0,1,593.3,284Z" transform="translate(-2.1 -1.7)"/><path d="M30.6,177.1a.7.7,0,1,1-1.4.2A.7.7,0,0,1,30.6,177.1Z" transform="translate(-2.1 -1.7)"/><path d="M11.5,78.3c-.4-1.2,1.7-1.4,2.1-.4A20,20,0,0,0,11.5,78.3Z" transform="translate(-2.1 -1.7)"/><path d="M811.9,225.7a.7.7,0,1,1-1.4.2C810.5,225.1,811.5,225.3,811.9,225.7Z" transform="translate(-2.1 -1.7)"/><path d="M265.1,174.6c-1.2-.4-1.2-.4-1.3-2.4Z" transform="translate(-2.1 -1.7)"/><path d="M254.8,36.6c-.6.6-1,1.8-1.9,1.1C253.6,36.4,253.6,36.4,254.8,36.6Z" transform="translate(-2.1 -1.7)"/><path d="M773.5,234.4c-.3.9-1.3.8-1.3-.2S773.2,233.6,773.5,234.4Z" transform="translate(-2.1 -1.7)"/><path d="M856.1,128c0-.6-.3-1.3.6-1.6S857,128.2,856.1,128Z" transform="translate(-2.1 -1.7)"/><path d="M824.3,232.2c.6,1.1.6,1.1-.1,2.3C823.3,234.1,824.2,233.1,824.3,232.2Z" transform="translate(-2.1 -1.7)"/><path d="M732.4,223.4c1,1,1,1,.6,2A2.2,2.2,0,0,1,732.4,223.4Z" transform="translate(-2.1 -1.7)"/><path d="M300.4,98.7c.2-1,.8-1.3,2.1-1.4C301.3,97.8,301.6,98.9,300.4,98.7Z" transform="translate(-2.1 -1.7)"/><path d="M884.3,16.4a3.6,3.6,0,0,1,2.6-.4C886.2,16.6,886.2,16.6,884.3,16.4Z" transform="translate(-2.1 -1.7)"/><path d="M890.2,254.6c-.4.9-1.9.4-1.4-.5S889.9,254.1,890.2,254.6Z" transform="translate(-2.1 -1.7)"/><path d="M293,417.4a4.1,4.1,0,0,1,2.2-.4C294.5,417.6,294.5,417.6,293,417.4Z" transform="translate(-2.1 -1.7)"/><path d="M274.2,14.8a7.6,7.6,0,0,1-2.6,0C272.2,14.2,272.8,14.2,274.2,14.8Z" transform="translate(-2.1 -1.7)"/><path d="M57.3,301.3c.9.2.9.2,1.5,1.3C57.6,302.5,57.5,302.4,57.3,301.3Z" transform="translate(-2.1 -1.7)"/><path d="M266.6,176.9c.7-1,.5-1.2-.3-1.9C267.8,174.5,268.6,176.5,266.6,176.9Z" transform="translate(-2.1 -1.7)"/><path d="M400.9,127.5l2.2.2C402.7,128.7,401,128.6,400.9,127.5Z" transform="translate(-2.1 -1.7)"/><path d="M995.6,290.6a1.4,1.4,0,0,1-1.8-.3A1,1,0,0,1,995.6,290.6Z" transform="translate(-2.1 -1.7)"/><path d="M403.5,193.9c-.5-.2-1.2-.3-1.2-.9S403.6,193,403.5,193.9Z" transform="translate(-2.1 -1.7)"/><path d="M937.1,75.7c1-.3,1.1-.2,1.7.9C937.6,76.5,937.6,76.5,937.1,75.7Z" transform="translate(-2.1 -1.7)"/><path d="M294.9,213c.1-.5-.6-.6-.9-.9S296.3,211.8,294.9,213Z" transform="translate(-2.1 -1.7)"/><path d="M746.2,246.7c-.1.7.1,1.4-.6,1.8S745.3,246,746.2,246.7Z" transform="translate(-2.1 -1.7)"/><path d="M899.1,283c-1.1.2-1.1.2-1.6-1.1C898.6,282.4,898.6,282.4,899.1,283Z" transform="translate(-2.1 -1.7)"/><path d="M687.6,9.8c-1.2.5-2.2.2-3.7,0A5.8,5.8,0,0,1,687.6,9.8Z" transform="translate(-2.1 -1.7)"/><path d="M702.8,22.4c1-.2,1-.2,1.6.2C703.3,22.9,703.3,22.9,702.8,22.4Z" transform="translate(-2.1 -1.7)"/><path d="M589.8,194.7l-1.5-.9C589,192.9,589.2,193.2,589.8,194.7Z" transform="translate(-2.1 -1.7)"/><path d="M832.7,157c-.7.7-.8,1.6-1.7,1.2S831.7,157,832.7,157Z" transform="translate(-2.1 -1.7)"/><path d="M699.1,19.2c.5,0,1.4-.5,1.6.2S698.7,19.9,699.1,19.2Z" transform="translate(-2.1 -1.7)"/><path d="M703.1,18.1a2.4,2.4,0,0,1-2-.2C702,17.7,702.5,17.6,703.1,18.1Z" transform="translate(-2.1 -1.7)"/><path d="M422,14c.3-.5,1.5-1.1,1.8-.3S422.6,14.2,422,14Z" transform="translate(-2.1 -1.7)"/><path d="M970.9,86.1c-1.2.3-1.7-.4-2.4-.7C969.4,85,970,85.6,970.9,86.1Z" transform="translate(-2.1 -1.7)"/><path d="M302.9,199.9c.8-.1,1.3.8.8,1.3S302.5,200.5,302.9,199.9Z" transform="translate(-2.1 -1.7)"/><path d="M942.4,305.9c-.4.9-1.4-.2-.8-.8S942.5,305.5,942.4,305.9Z" transform="translate(-2.1 -1.7)"/><path d="M221.6,248c1.1-.3,1.3,1.3.2,1S221.6,248,221.6,248Z" transform="translate(-2.1 -1.7)"/><path d="M933.5,404.4c.6.6-.1,1.5-.7,1.1S933.1,404.7,933.5,404.4Z" transform="translate(-2.1 -1.7)"/><path d="M406.7,198.5c.7,0,1.2.9.7,1.3S406.4,199,406.7,198.5Z" transform="translate(-2.1 -1.7)"/><path d="M270.6,187c.5,1.2-1,.9-1.3.1S270.1,187.1,270.6,187Z" transform="translate(-2.1 -1.7)"/><path d="M939.9,302.6c-1.1,0-.9-.7-.2-1S940.5,302.4,939.9,302.6Z" transform="translate(-2.1 -1.7)"/><path d="M831.6,137.6c.1.7,0,1.9-.7,1.7S830.8,138,831.6,137.6Z" transform="translate(-2.1 -1.7)"/><path d="M938.3,313.5c.8,0,1,.9.3,1.1A.6.6,0,0,1,938.3,313.5Z" transform="translate(-2.1 -1.7)"/><path d="M729.2,212.3c.6.3.5,1.4-.3,1.2S728.7,212.6,729.2,212.3Z" transform="translate(-2.1 -1.7)"/><path d="M993.1,59.6c-1.4-.1-1.4-.1-1.8-.6A2.2,2.2,0,0,1,993.1,59.6Z" transform="translate(-2.1 -1.7)"/><path d="M749.9,254.2c-.5-.2-1.5-.5-1.1-1.3S749.6,253.9,749.9,254.2Z" transform="translate(-2.1 -1.7)"/><path d="M490.6,246.5c0-.6-.2-1.2.6-1.2S491.6,246.2,490.6,246.5Z" transform="translate(-2.1 -1.7)"/><path d="M893.5,99.8c.6-.3.9-.8,1.7-.9C894.1,100.2,894.1,100.2,893.5,99.8Z" transform="translate(-2.1 -1.7)"/><path d="M938.3,297.7c.2-1.3,2.1-.1.9.3Z" transform="translate(-2.1 -1.7)"/><path d="M571,45.9h1.7C572.1,46.8,572,46.8,571,45.9Z" transform="translate(-2.1 -1.7)"/><path d="M882.6,263.7c.8,0,1.1,1.1.3,1.2S882.1,264.1,882.6,263.7Z" transform="translate(-2.1 -1.7)"/><path d="M918,284l-1.5-1.1C916.8,282.1,917.9,283,918,284Z" transform="translate(-2.1 -1.7)"/><path d="M281.9,208.8a1.4,1.4,0,0,1-1.3-.9C281.3,207.9,281.3,207.9,281.9,208.8Z" transform="translate(-2.1 -1.7)"/><path d="M263.2,170.9c-.1-.6-.6-.9-.4-1.7S264.1,170.6,263.2,170.9Z" transform="translate(-2.1 -1.7)"/><path d="M807.9,228c.6-.8,1.3-.8,1.4-.1S808.4,228,807.9,228Z" transform="translate(-2.1 -1.7)"/><path d="M612.7,164.2a.7.7,0,0,1,.2,1.3C612.4,165.4,612.3,164.6,612.7,164.2Z" transform="translate(-2.1 -1.7)"/><path d="M811.4,204c.6.9-.8,1.6-.9.5S811.3,204.1,811.4,204Z" transform="translate(-2.1 -1.7)"/><path d="M826.7,272.3c1.2-.5,1.2-.5,1.6.2S827.4,272.6,826.7,272.3Z" transform="translate(-2.1 -1.7)"/><path d="M36.4,241.3c-.4-.2-1.1-.3-.8-1S36.9,241,36.4,241.3Z" transform="translate(-2.1 -1.7)"/><path d="M719.9,15.2c.7-.6.7-.6,1.4-.3S720.5,15.1,719.9,15.2Z" transform="translate(-2.1 -1.7)"/><path d="M459.1,77.9c.7-.6.7-1.1,1.5-.7S460.1,78.1,459.1,77.9Z" transform="translate(-2.1 -1.7)"/><path d="M302.2,197.5c.6.1.9,1.3.2,1.3S301.6,197.6,302.2,197.5Z" transform="translate(-2.1 -1.7)"/><path d="M583.8,197.8c-1.1-1.4.4-1.1,1.2,0S583.8,197.7,583.8,197.8Z" transform="translate(-2.1 -1.7)"/><path d="M423,157.2c-.2-.3-.7-1.1-.1-1.2A.6.6,0,1,1,423,157.2Z" transform="translate(-2.1 -1.7)"/><path d="M582.7,262c.8,0,.9,1.6,0,1.6A1.3,1.3,0,0,1,582.7,262Z" transform="translate(-2.1 -1.7)"/><path d="M806.6,266.5c-.2-1.1-.2-1.1.2-1.6C807.1,266.1,807.1,266.1,806.6,266.5Z" transform="translate(-2.1 -1.7)"/><path d="M895.8,274.9c.7-.6,1.4-.1,1.2.5S896.2,275.2,895.8,274.9Z" transform="translate(-2.1 -1.7)"/><path d="M901.2,92.3c.4-.3.4-1,1-1S902.1,92.5,901.2,92.3Z" transform="translate(-2.1 -1.7)"/><path d="M853.3,75.1c-.3.6-.8.3-1.6.4S852.7,74.5,853.3,75.1Z" transform="translate(-2.1 -1.7)"/><path d="M424,10.7a1.3,1.3,0,0,1-1.3.2C423,10.2,423,10.2,424,10.7Z" transform="translate(-2.1 -1.7)"/><path d="M806.2,229.6c0,.9-.7,1.3-1.2,1S805.7,230,806.2,229.6Z" transform="translate(-2.1 -1.7)"/><path d="M419.3,12.1c.3.2,1.3.3.9.9A.7.7,0,0,1,419.3,12.1Z" transform="translate(-2.1 -1.7)"/><path d="M817.5,169.7a1.5,1.5,0,0,1-1.7.6C816.1,169.7,816.9,169.9,817.5,169.7Z" transform="translate(-2.1 -1.7)"/><path d="M303.3,202.4c.7.1.7,1.1,0,1.1S303.1,202.8,303.3,202.4Z" transform="translate(-2.1 -1.7)"/><path d="M410,196.1c-.5.4-1.2.5-1.1-.2S409.5,195.8,410,196.1Z" transform="translate(-2.1 -1.7)"/><path d="M138.8,139.6h1.9C139.8,140.2,139.5,140.2,138.8,139.6Z" transform="translate(-2.1 -1.7)"/><path d="M676.9,412.6h-.3C674.8,411.5,678.1,411.8,676.9,412.6Z" transform="translate(-2.1 -1.7)"/><path d="M942.5,307.2a.8.8,0,0,1,.1,1.1C942.1,308.1,941.6,307.4,942.5,307.2Z" transform="translate(-2.1 -1.7)"/><path d="M836,149.5c.6.8.4,1.6-.2,1.5S835.9,150.2,836,149.5Z" transform="translate(-2.1 -1.7)"/><path d="M821.1,236.2l-.6-.9C820.9,234.4,821.8,235.6,821.1,236.2Z" transform="translate(-2.1 -1.7)"/><path d="M424.8,143.6c.5-.3,1.2-.3,1.3.3S425,144.2,424.8,143.6Z" transform="translate(-2.1 -1.7)"/><path d="M968,306.2c-.6.3-1,.6-1.6.5S966.9,305.9,968,306.2Z" transform="translate(-2.1 -1.7)"/><path d="M220.6,247.6c.1-1.2.9-.1,1.1.3l-1.1-.3Z" transform="translate(-2.1 -1.7)"/><path d="M225.1,249.1c-.3.2-.6.7-.9.4S224.9,248.3,225.1,249.1Z" transform="translate(-2.1 -1.7)"/><path d="M849.3,249.1c-.3.4-1.1.2-1.1-.3S849.3,248.6,849.3,249.1Z" transform="translate(-2.1 -1.7)"/><path d="M810.9,263.7c-.4,0-.7-1-.1-1.1S811.4,263.5,810.9,263.7Z" transform="translate(-2.1 -1.7)"/><path d="M832.4,270.8c.4.4.9.8.1,1S832,271.2,832.4,270.8Z" transform="translate(-2.1 -1.7)"/><path d="M933.7,280.1q-1.1,1-1.2.3C932.5,280.1,932.8,280,933.7,280.1Z" transform="translate(-2.1 -1.7)"/><path d="M881.1,263.5c-.4.5-.9,0-.8-.5A.5.5,0,0,1,881.1,263.5Z" transform="translate(-2.1 -1.7)"/><path d="M420.9,11.9a4.4,4.4,0,0,1,1.5-.8C422,11.9,421.7,12.1,420.9,11.9Z" transform="translate(-2.1 -1.7)"/><path d="M202.4,21.3c-.4.4-.4.4-1.1.4S201.7,21.2,202.4,21.3Z" transform="translate(-2.1 -1.7)"/><path d="M524.6,21.6c.5-.3,1.4-.4,1.2.2S525.1,22,524.6,21.6Z" transform="translate(-2.1 -1.7)"/><path d="M194.3,31.7c-.3.4-1.1.1-1.1-.3S194.3,31.1,194.3,31.7Z" transform="translate(-2.1 -1.7)"/><path d="M28,75.5c-.2-.9.2-1.2.8-.9S28.3,75.2,28,75.5Z" transform="translate(-2.1 -1.7)"/><path d="M29.8,74.4c.3.4.5.5.3,1S29,75,29.8,74.4Z" transform="translate(-2.1 -1.7)"/><path d="M964.5,84.8c.1-.7.6-1,1-.8S965.1,84.5,964.5,84.8Z" transform="translate(-2.1 -1.7)"/><path d="M397.9,125.1c-.7.3-.9.4-1.2-.2S397.3,124.6,397.9,125.1Z" transform="translate(-2.1 -1.7)"/><path d="M841.3,133.4c.6-.6.5-.8,1.1-.8S842,133.2,841.3,133.4Z" transform="translate(-2.1 -1.7)"/><path d="M262.6,136l.5-1.3C263.4,135.6,263.4,135.6,262.6,136Z" transform="translate(-2.1 -1.7)"/><path d="M829.7,144.4c-.3-.3-.5-.9.1-.8S830.2,144.1,829.7,144.4Z" transform="translate(-2.1 -1.7)"/><path d="M405.9,194.7c-.3-.1-1,.2-1-.3S406.2,194.2,405.9,194.7Z" transform="translate(-2.1 -1.7)"/><path d="M874.7,203.7c-.1.7-.2,1.1-.7,1.3S873.8,204.2,874.7,203.7Z" transform="translate(-2.1 -1.7)"/><path d="M732.1,220.6c.2,1.1.2,1.1-.7,1.1A9,9,0,0,1,732.1,220.6Z" transform="translate(-2.1 -1.7)"/><path d="M845.8,223.5c-.3-.6-.1-.9.4-1.1A.7.7,0,0,1,845.8,223.5Z" transform="translate(-2.1 -1.7)"/><path d="M749.6,225.7c.2.5.6,1.3-.3,1.2S748.6,225.5,749.6,225.7Z" transform="translate(-2.1 -1.7)"/><path d="M793.2,268.4c-.3.1-.9.3-1-.1S793.4,268,793.2,268.4Z" transform="translate(-2.1 -1.7)"/><path d="M302.9,204.5c.2.3.3.8-.1.8S302.7,204.5,302.9,204.5Z" transform="translate(-2.1 -1.7)"/><path d="M307.2,204.7c.3.2.8.8.2.9A.5.5,0,0,1,307.2,204.7Z" transform="translate(-2.1 -1.7)"/><path d="M993.4,83.3c-.3,0-.8.4-.8-.1S993.3,82.7,993.4,83.3Z" transform="translate(-2.1 -1.7)"/><path d="M298,192c.7,0,.7,0,.9.9Z" transform="translate(-2.1 -1.7)"/><path d="M87.4,277.2c0,.4-1,.5-.8,0S87.4,276.8,87.4,277.2Z" transform="translate(-2.1 -1.7)"/><path d="M84.4,274.5a.9.9,0,0,1-1-.1C83.6,273.9,84.2,274.1,84.4,274.5Z" transform="translate(-2.1 -1.7)"/><path d="M796.8,223.7c.5-.2.7-.4,1.1,0S797.2,224.3,796.8,223.7Z" transform="translate(-2.1 -1.7)"/><path d="M282.9,207.9c.3.1.9.7.4.8S282.5,208.1,282.9,207.9Z" transform="translate(-2.1 -1.7)"/><path d="M153.2,157.9c0,.4,0,.6-.3.7S152.8,157.1,153.2,157.9Z" transform="translate(-2.1 -1.7)"/><path d="M814.8,217.9c.4-.4,1.1-1,1,0S815.1,217.7,814.8,217.9Z" transform="translate(-2.1 -1.7)"/><path d="M954.7,83.1h-1.1C954.3,82.5,954.3,82.5,954.7,83.1Z" transform="translate(-2.1 -1.7)"/><path d="M834.7,150.7c.3.4.8.9.1,1S834.3,151.2,834.7,150.7Z" transform="translate(-2.1 -1.7)"/><path d="M246.2,223.4c-.6.5-1-.3-.6-.7S246.1,223.1,246.2,223.4Z" transform="translate(-2.1 -1.7)"/><path d="M405.4,199.7c-.3.3-.6.6-.8,0S405.1,199.2,405.4,199.7Z" transform="translate(-2.1 -1.7)"/><path d="M547.1,11.6c-.1.6-.7.2-1.1.1S546.5,11.4,547.1,11.6Z" transform="translate(-2.1 -1.7)"/><path d="M768.9,14.8c-.4-.1-.9.1-.8-.3S768.7,14.2,768.9,14.8Z" transform="translate(-2.1 -1.7)"/><path d="M809.8,279.9c.6-.4.7-.8,1.3-.5S810.5,279.8,809.8,279.9Z" transform="translate(-2.1 -1.7)"/><path d="M811.2,247.7c-.1.5-1,.8-.9.2S811.1,247.4,811.2,247.7Z" transform="translate(-2.1 -1.7)"/><path d="M453.4,55.4c.6.5,1.1,1.7,0,1S453.6,55.7,453.4,55.4Z" transform="translate(-2.1 -1.7)"/><path d="M265.8,53a1.5,1.5,0,0,1,1.3,0A1.5,1.5,0,0,1,265.8,53Z" transform="translate(-2.1 -1.7)"/><path d="M301.2,192.5c.3.4.4.5,0,.7S300.9,192.8,301.2,192.5Z" transform="translate(-2.1 -1.7)"/><path d="M171.7,38.1c.2.4-.2.9-.5.6S171.7,38.2,171.7,38.1Z" transform="translate(-2.1 -1.7)"/><path d="M940.3,299.4c-.8.1-1.4.1-1.2-.6S939.7,298.9,940.3,299.4Z" transform="translate(-2.1 -1.7)"/><path d="M742.3,16.1c.4-.3,1.1,0,.8.5A.9.9,0,0,1,742.3,16.1Z" transform="translate(-2.1 -1.7)"/><path d="M529.6,7.6c-.1-.7.5-.6.9-.4S529.7,7.5,529.6,7.6Z" transform="translate(-2.1 -1.7)"/><path d="M997.7,82.6c-.4-.3-.1-.4.3-.6S998.1,82.5,997.7,82.6Z" transform="translate(-2.1 -1.7)"/><path d="M797.1,221.2c.6.2.3.4.3.8S797,221.6,797.1,221.2Z" transform="translate(-2.1 -1.7)"/><path d="M422.7,159.1c.5.2.2.3,0,.6S422.6,159.3,422.7,159.1Z" transform="translate(-2.1 -1.7)"/><path d="M52.3,299.4c0-.2-.2-.6.1-.8S52.7,299.6,52.3,299.4Z" transform="translate(-2.1 -1.7)"/><path d="M887.9,251.6c-.5,0-.6-1,0-.7S888.2,251.5,887.9,251.6Z" transform="translate(-2.1 -1.7)"/><path d="M912,225c-.3.3-.5.3-.7-.1S911.8,224.7,912,225Z" transform="translate(-2.1 -1.7)"/><path d="M879.7,109.6c-.6-.2-.3-.7.3-.6S879.9,109.4,879.7,109.6Z" transform="translate(-2.1 -1.7)"/><path d="M937.2,290.8c.5.5.2.5-.1.8A.5.5,0,0,1,937.2,290.8Z" transform="translate(-2.1 -1.7)"/><path d="M582.6,271.4c0-.5.8-.8.6-.1S582.8,271.7,582.6,271.4Z" transform="translate(-2.1 -1.7)"/><path d="M273.4,178.1c.4-.4.7,0,.8.3S273.7,178.3,273.4,178.1Z" transform="translate(-2.1 -1.7)"/><path d="M937.5,289.9c-.2.4-.4.6-.6.2S937.2,289.5,937.5,289.9Z" transform="translate(-2.1 -1.7)"/><path d="M597.7,287.3c-.1-.3-.2-.6,0-.8S598.3,286.8,597.7,287.3Z" transform="translate(-2.1 -1.7)"/><path d="M864,104.2l.8.8C864.3,105.5,863.5,104.3,864,104.2Z" transform="translate(-2.1 -1.7)"/><path d="M596.3,284.9c-.1.7-.6.5-.8.1S596,284.9,596.3,284.9Z" transform="translate(-2.1 -1.7)"/><path d="M247.6,185.8c-.1.3-.7.6-.8.2S247.3,185.5,247.6,185.8Z" transform="translate(-2.1 -1.7)"/><path d="M831.1,142.9q-.5.6-.6,0C830.6,142.6,830.8,142.7,831.1,142.9Z" transform="translate(-2.1 -1.7)"/><path d="M837.4,259.5c-.2.3-.5.3-.6-.1S837.2,259.1,837.4,259.5Z" transform="translate(-2.1 -1.7)"/><path d="M896.6,280.2c-.3,0-.5.2-.6-.2S896.5,279.8,896.6,280.2Z" transform="translate(-2.1 -1.7)"/><path d="M755.8,263.4c.3-.3.6,0,.8.1S756,263.7,755.8,263.4Z" transform="translate(-2.1 -1.7)"/><path d="M257.3,49.2c-.6.3-.7.5-1.1.1S256.7,49,257.3,49.2Z" transform="translate(-2.1 -1.7)"/><path d="M298,189.6c-.3.3-.6.5-.6-.1S297.7,189.2,298,189.6Z" transform="translate(-2.1 -1.7)"/><path d="M316.6,99.4c0,.4-.3.3-.5.1S316.4,99.1,316.6,99.4Z" transform="translate(-2.1 -1.7)"/><path d="M851.8,281.3c.3.7.1,1-.4,1.1S851.7,281.8,851.8,281.3Z" transform="translate(-2.1 -1.7)"/><path d="M830.6,159.5c-.4.3-.8-.1-.5-.4S830.4,159.3,830.6,159.5Z" transform="translate(-2.1 -1.7)"/><path d="M702,22.6c-.4.3-.5,0-.7-.3S701.8,22.4,702,22.6Z" transform="translate(-2.1 -1.7)"/><path d="M424.9,157.9c.4.3.4.8-.1.8S424.6,158.2,424.9,157.9Z" transform="translate(-2.1 -1.7)"/><path d="M846.8,249.4c.4.2.5.9,0,.9S846.6,249.7,846.8,249.4Z" transform="translate(-2.1 -1.7)"/><path d="M202.8,15.5c-.4.3-.5.3-.7-.1S202.4,15.3,202.8,15.5Z" transform="translate(-2.1 -1.7)"/><path d="M252.5,84c0,.2-.8.7-.9.2A.5.5,0,0,1,252.5,84Z" transform="translate(-2.1 -1.7)"/><path d="M301.5,208c.3.4.3.5,0,.9S301.3,208.5,301.5,208Z" transform="translate(-2.1 -1.7)"/><path d="M984.8,312.8c.3-.1.8-.1.7.3S984.8,313.1,984.8,312.8Z" transform="translate(-2.1 -1.7)"/><path d="M891.9,274.2a1,1,0,0,1-.2-1.2C892.3,273.2,891.9,273.7,891.9,274.2Z" transform="translate(-2.1 -1.7)"/><path d="M736.8,16.5c-.2.1-.8,0-.5-.3S736.8,16.2,736.8,16.5Z" transform="translate(-2.1 -1.7)"/><path d="M867.3,278.1c.1.3.4.6,0,.6S866.7,278.3,867.3,278.1Z" transform="translate(-2.1 -1.7)"/><path d="M270.6,176.5c-.3,0-.7.1-.8-.2S270.5,176,270.6,176.5Z" transform="translate(-2.1 -1.7)"/><path d="M20.5,76.7c.4-.1.6-.2.6.3S20.7,76.9,20.5,76.7Z" transform="translate(-2.1 -1.7)"/><path d="M28.4,177.4c0,.4,0,.4-.3.7S28,177.7,28.4,177.4Z" transform="translate(-2.1 -1.7)"/><path d="M144.7,155.3c-.3.4-.4.4-.6,0S144.4,155.1,144.7,155.3Z" transform="translate(-2.1 -1.7)"/><path d="M700.2,18.3a1.7,1.7,0,0,1-1-.1C699.5,18,700.1,17.8,700.2,18.3Z" transform="translate(-2.1 -1.7)"/><path d="M464,62.8c.1-.3.6-.7.6-.1S464,62.8,464,62.8Z" transform="translate(-2.1 -1.7)"/><path d="M144.3,143.3c-.4.4-.5,0-.7-.3S144,143.2,144.3,143.3Z" transform="translate(-2.1 -1.7)"/><path d="M265.8,171.5c-.2-.4,0-.4.2-.6S266.1,171.3,265.8,171.5Z" transform="translate(-2.1 -1.7)"/><path d="M811.1,187.2c-.3.1-.6.2-.5-.1S810.9,186.9,811.1,187.2Z" transform="translate(-2.1 -1.7)"/><path d="M144.6,142c-.5-.1-.8,0-.9-.5S144.3,141.5,144.6,142Z" transform="translate(-2.1 -1.7)"/><path d="M292.9,190.6c.3.2.4.5,0,.5S292.6,190.8,292.9,190.6Z" transform="translate(-2.1 -1.7)"/><path d="M301.4,191.3c-.2.3-.4,0-.5-.2S301.3,191,301.4,191.3Z" transform="translate(-2.1 -1.7)"/><path d="M917.7,275.2a.4.4,0,0,1-.8-.2C917.1,274.5,917.6,274.9,917.7,275.2Z" transform="translate(-2.1 -1.7)"/><path d="M692.5,21.2a.6.6,0,0,1,.8.3C693.1,21.7,692.4,21.6,692.5,21.2Z" transform="translate(-2.1 -1.7)"/><path d="M705.8,22.7c.1-.2,1-.1.9.2A.7.7,0,0,1,705.8,22.7Z" transform="translate(-2.1 -1.7)"/><path d="M409.3,193.9c-.2.4-.3.3-.5.1S409,193.7,409.3,193.9Z" transform="translate(-2.1 -1.7)"/><path d="M277.7,117c.2-.1.5-.2.6-.1S277.7,117.5,277.7,117Z" transform="translate(-2.1 -1.7)"/><path d="M685.1,24.9c-.3,0-1,.2-.9-.2S685.2,24.5,685.1,24.9Z" transform="translate(-2.1 -1.7)"/><path d="M168.7,37.8c.2.2.7.3.4.6S168.8,37.8,168.7,37.8Z" transform="translate(-2.1 -1.7)"/><path d="M757.4,209.5c.1.2-.2.8-.3.5S757.5,209.6,757.4,209.5Z" transform="translate(-2.1 -1.7)"/><path d="M503.2,68.9c-.5-.3-.4-.7.1-.7S503.3,68.7,503.2,68.9Z" transform="translate(-2.1 -1.7)"/><path d="M250.7,80.7c-.1-.3-.4-.7.1-.6S251,80.7,250.7,80.7Z" transform="translate(-2.1 -1.7)"/><path d="M594.4,285.3c-.4.4-.9.1-.7-.3Z" transform="translate(-2.1 -1.7)"/><path d="M896.1,256.4c-.2.3-.3.1-.4-.1S896,256.2,896.1,256.4Z" transform="translate(-2.1 -1.7)"/><path d="M744.6,212.3c.3-.3.7-.1.6.3S744.8,212.5,744.6,212.3Z" transform="translate(-2.1 -1.7)"/><path d="M278.1,207.2c.3-.3.7-.1.6.3S278.3,207.3,278.1,207.2Z" transform="translate(-2.1 -1.7)"/><path d="M253.7,220.6c-.1-.2-.3-.4.1-.5S254.1,220.5,253.7,220.6Z" transform="translate(-2.1 -1.7)"/><path d="M304.3,211.6c-.4-.1-.3-.3-.1-.6S304.5,211.3,304.3,211.6Z" transform="translate(-2.1 -1.7)"/><path d="M935.4,282.8c.2.2.3.5,0,.6S935,283,935.4,282.8Z" transform="translate(-2.1 -1.7)"/><path d="M742.7,239.8c-.3.3-.4.1-.6-.1S742.5,239.6,742.7,239.8Z" transform="translate(-2.1 -1.7)"/><path d="M851,283c-.2.1-.5.3-.5-.1S850.8,282.8,851,283Z" transform="translate(-2.1 -1.7)"/><path d="M427.8,211.3c.2.4.5.5.1.7S427.7,211.7,427.8,211.3Z" transform="translate(-2.1 -1.7)"/><path d="M251.4,69.8c-.2.1-.5.3-.6-.1S251.2,69.4,251.4,69.8Z" transform="translate(-2.1 -1.7)"/><path d="M900.6,282.4h-1C900,281.9,900.3,282.1,900.6,282.4Z" transform="translate(-2.1 -1.7)"/><path d="M746.2,246.7c-.4-.3-.2-1,.4-.7S746.2,246.5,746.2,246.7Z" transform="translate(-2.1 -1.7)"/><path d="M789.9,268.9a.6.6,0,0,1,.7.1C790.4,269.2,789.7,269.2,789.9,268.9Z" transform="translate(-2.1 -1.7)"/><path d="M806.5,203.3c-.3.6-.5.1-.7-.1S806.2,203.1,806.5,203.3Z" transform="translate(-2.1 -1.7)"/><path d="M744.7,208.4c-.2-.3-.5-.5-.3-.8S745,208.3,744.7,208.4Z" transform="translate(-2.1 -1.7)"/><path d="M905.5,268.6c-.3.1-.7.5-1,.4S905.1,268.6,905.5,268.6Z" transform="translate(-2.1 -1.7)"/><path d="M899.9,93.8c.2-.2.3-.4.6-.2S900.3,94.1,899.9,93.8Z" transform="translate(-2.1 -1.7)"/><path d="M820.7,168.8c-.4.4-.4.1-.6-.1S820.5,168.6,820.7,168.8Z" transform="translate(-2.1 -1.7)"/><path d="M971.7,84.3c-.6.3-.6.4-.9,0S971.2,84,971.7,84.3Z" transform="translate(-2.1 -1.7)"/><path d="M645.1,5.8l-1-.2C644.7,5.2,644.9,5.5,645.1,5.8Z" transform="translate(-2.1 -1.7)"/><path d="M591.2,202.9c-.2-.3-.1-.4.1-.4S591.4,202.8,591.2,202.9Z" transform="translate(-2.1 -1.7)"/><path d="M262.4,172.6c-.3.4-.4.1-.6-.2S262.2,172.4,262.4,172.6Z" transform="translate(-2.1 -1.7)"/><path d="M722.5,15.3c-.1.2-.3.2-.4-.1S722.4,15.2,722.5,15.3Z" transform="translate(-2.1 -1.7)"/><path d="M718.5,15.7c.1-.6.5-.8.7-.4S718.8,15.4,718.5,15.7Z" transform="translate(-2.1 -1.7)"/><path d="M209.7,12.5c.3,0,.7-.2,1,.2S209.9,12.7,209.7,12.5Z" transform="translate(-2.1 -1.7)"/><path d="M970.4,303.1c-.2.4-.3.2-.6,0S970.1,302.9,970.4,303.1Z" transform="translate(-2.1 -1.7)"/><path d="M890.3,63.6c-.4-.3-.1-.3.1-.6S890.5,63.4,890.3,63.6Z" transform="translate(-2.1 -1.7)"/><path d="M408.7,198.8c-.3.3-.5.4-.6,0S408.4,198.6,408.7,198.8Z" transform="translate(-2.1 -1.7)"/><path d="M487.5,80.4c-.6-1.3,1.6-.4-.1,0Z" transform="translate(-2.1 -1.7)"/><path d="M745.3,215.2c-.2.3-.3.1-.3-.1S745.3,215,745.3,215.2Z" transform="translate(-2.1 -1.7)"/><path d="M750,217.5a3.1,3.1,0,0,1-.1-1C750.5,216.9,749.7,217.2,750,217.5Z" transform="translate(-2.1 -1.7)"/><path d="M829.5,160.4c-.1.3-.2.3-.2.1S829.5,160.2,829.5,160.4Z" transform="translate(-2.1 -1.7)"/><path d="M257.7,167.9c.2,0,.7-.2.7.1S257.6,168.2,257.7,167.9Z" transform="translate(-2.1 -1.7)"/><path d="M924.6,230.1c-.2-.2,0-.4.2-.4S924.9,230.1,924.6,230.1Z" transform="translate(-2.1 -1.7)"/><path d="M766.1,237.4h-.2C765.6,237.2,766.1,237,766.1,237.4Z" transform="translate(-2.1 -1.7)"/><path d="M659,237.5c.3.2.6.1.4.5S658.8,237.8,659,237.5Z" transform="translate(-2.1 -1.7)"/><path d="M761.8,237.7c-.2.1-.3.3-.4.1S761.6,237.5,761.8,237.7Z" transform="translate(-2.1 -1.7)"/><path d="M493.3,241.5c-.2.2-.3.1-.3-.1S493.3,241.3,493.3,241.5Z" transform="translate(-2.1 -1.7)"/><path d="M463.5,97.5l.5.9C463.2,98.4,463.8,97.7,463.5,97.5Z" transform="translate(-2.1 -1.7)"/><path d="M831.5,246.8c.3-.3.3,0,.5.2S831.7,246.9,831.5,246.8Z" transform="translate(-2.1 -1.7)"/><path d="M222,250.6c-.3.4-.6-.2-.1-.2Z" transform="translate(-2.1 -1.7)"/><path d="M774.9,251.7c-.3.1-.6.3-.6-.1S774.7,251.3,774.9,251.7Z" transform="translate(-2.1 -1.7)"/><path d="M904.5,87.5c-.1.5-.3.3-.5.1S904.3,87.4,904.5,87.5Z" transform="translate(-2.1 -1.7)"/><path d="M626.6,261.5c-.1-.2-.5-.4-.2-.5S626.9,261.3,626.6,261.5Z" transform="translate(-2.1 -1.7)"/><path d="M40.7,72.9c-.2-.1-.2-.2-.1-.5S40.9,72.6,40.7,72.9Z" transform="translate(-2.1 -1.7)"/><path d="M785.3,264.9c-.2.1-.4,0-.3-.2S785.3,264.6,785.3,264.9Z" transform="translate(-2.1 -1.7)"/><path d="M36.5,70.3c.1.3,0,.4-.2.5S36.2,70.4,36.5,70.3Z" transform="translate(-2.1 -1.7)"/><path d="M807.4,269.3c-.1-.2-.3-.8.1-.6S807.5,269.1,807.4,269.3Z" transform="translate(-2.1 -1.7)"/><path d="M999.3,68.8c-.3.3-.4,0-.5-.2S999.2,68.5,999.3,68.8Z" transform="translate(-2.1 -1.7)"/><path d="M826,270.6c-.2-.2-.2-.4.1-.3S826.2,270.6,826,270.6Z" transform="translate(-2.1 -1.7)"/><path d="M821.2,272.3c0,.5-.6.2-.2-.1Z" transform="translate(-2.1 -1.7)"/><path d="M250.3,60.9c.3,0,.4.2.1.4S250.2,61.1,250.3,60.9Z" transform="translate(-2.1 -1.7)"/><path d="M984.3,288.8c.1-.2.2-.2.3.1S984.4,288.9,984.3,288.8Z" transform="translate(-2.1 -1.7)"/><path d="M590.6,42.1c.1-.2-.1-.6.6-.7S590.6,41.9,590.6,42.1Z" transform="translate(-2.1 -1.7)"/><path d="M57.3,301.3c-.2.1-.7.5-.7.1Z" transform="translate(-2.1 -1.7)"/><path d="M13.9,303.6c-.2.2-.3.1-.4-.1S13.7,303.5,13.9,303.6Z" transform="translate(-2.1 -1.7)"/><path d="M916.3,306.9c.1-.1.3-.3.3,0S916.4,307,916.3,306.9Z" transform="translate(-2.1 -1.7)"/><path d="M937.2,317.6h0C936.9,317.9,936.7,317.3,937.2,317.6Z" transform="translate(-2.1 -1.7)"/><path d="M707.2,21.6c.2-.2.4-.1.7,0A.4.4,0,0,1,707.2,21.6Z" transform="translate(-2.1 -1.7)"/><path d="M177.1,178.8c-.2.2-.3,0-.4-.3S177,178.5,177.1,178.8Z" transform="translate(-2.1 -1.7)"/><path d="M811.2,182.4c-.1.2-.3.3-.3,0S811.1,182.3,811.2,182.4Z" transform="translate(-2.1 -1.7)"/><path d="M809.3,186c.1-.4.2-.3.4-.1S809.5,186.1,809.3,186Z" transform="translate(-2.1 -1.7)"/><path d="M832.7,140.6c-.3.1-.4.1-.5-.2S832.6,140.3,832.7,140.6Z" transform="translate(-2.1 -1.7)"/><path d="M228.8,191.9a.2.2,0,0,1,0-.3C229.1,191.6,228.9,191.8,228.8,191.9Z" transform="translate(-2.1 -1.7)"/><path d="M877,199.1c-.3-.3-.1-.3.2-.4S877.1,199,877,199.1Z" transform="translate(-2.1 -1.7)"/><path d="M745.9,205.7c-.3-.1-.9.2-.8-.5Z" transform="translate(-2.1 -1.7)"/><path d="M550.4,8.5c-.5,0-.6.2-.8-.1S550,8.3,550.4,8.5Z" transform="translate(-2.1 -1.7)"/><path d="M774.6,237.4c-.1,0-.3-.1-.1-.2S774.8,237.3,774.6,237.4Z" transform="translate(-2.1 -1.7)"/><path d="M7.6,286.4c-.1.1-.3.2-.3,0S7.5,286.4,7.6,286.4Z" transform="translate(-2.1 -1.7)"/><path d="M804.2,231.6c-.3.2-.3,0-.3-.2S804.1,231.5,804.2,231.6Z" transform="translate(-2.1 -1.7)"/><path d="M14.5,77.9c-.2.2-.2-.3,0-.2Z" transform="translate(-2.1 -1.7)"/><path d="M737.1,228.4c-.1-.1-.5-.1-.2-.3S737.3,228.2,737.1,228.4Z" transform="translate(-2.1 -1.7)"/><path d="M997.8,291.2c.2.1,0,.2-.1.3S997.7,291.3,997.8,291.2Z" transform="translate(-2.1 -1.7)"/><path d="M505.9,44.6c-.1.3-.2.2-.4,0S505.8,44.6,505.9,44.6Z" transform="translate(-2.1 -1.7)"/><path d="M887.1,261.3c0-.2.2,0,.3,0S887.2,261.5,887.1,261.3Z" transform="translate(-2.1 -1.7)"/><path d="M829.3,269.1c-.2-.1,0-.2.2-.3S829.5,269,829.3,269.1Z" transform="translate(-2.1 -1.7)"/><path d="M306.5,108.8c-.2.1-.3.2-.4,0S306.3,108.7,306.5,108.8Z" transform="translate(-2.1 -1.7)"/><path d="M801.5,224.5c-.1,0-.3.1-.3-.1S801.4,224.3,801.5,224.5Z" transform="translate(-2.1 -1.7)"/><path d="M729.8,217.8c.1-.2.2-.2.4,0S729.9,217.8,729.8,217.8Z" transform="translate(-2.1 -1.7)"/><path d="M453.9,300.4c-.3-.1-.2-.2-.1-.4S454,300.2,453.9,300.4Z" transform="translate(-2.1 -1.7)"/><path d="M807.4,269.3c.4.2.3-.3,0,0Z" transform="translate(-2.1 -1.7)"/><path d="M750.3,216.1c-.1,0-.3.2-.3,0S750.2,215.9,750.3,216.1Z" transform="translate(-2.1 -1.7)"/><path d="M859.5,114.4c-.1-.1,0-.2.2-.2S859.6,114.4,859.5,114.4Z" transform="translate(-2.1 -1.7)"/><path d="M232.7,195.3q-.4-.2,0-.3C233,195.1,232.9,195.2,232.7,195.3Z" transform="translate(-2.1 -1.7)"/><path d="M972,304.8c.1.1,0,.1-.2.2S971.8,304.8,972,304.8Z" transform="translate(-2.1 -1.7)"/><path d="M988.8,305.2h0C988.6,305.4,988.5,305,988.8,305.2Z" transform="translate(-2.1 -1.7)"/><path d="M454,70.6c-.4.5-.6,0,0,0Z" transform="translate(-2.1 -1.7)"/><path d="M943.7,309.8q.3.1,0,.3C943.5,310.1,943.7,309.9,943.7,309.8Z" transform="translate(-2.1 -1.7)"/><path d="M934.8,311.3c-.2.2-.2.1-.2-.1S934.7,311.2,934.8,311.3Z" transform="translate(-2.1 -1.7)"/><path d="M291.4,212.4c-.2-.2-.1-.3.1-.3S291.5,212.3,291.4,212.4Z" transform="translate(-2.1 -1.7)"/><path d="M429.1,211.4c-.2-.1-.1-.2,0-.4S429.3,211.3,429.1,211.4Z" transform="translate(-2.1 -1.7)"/><path d="M222.2,22.8c.3-.1.4-.3.6,0S222.2,22.7,222.2,22.8Z" transform="translate(-2.1 -1.7)"/><path d="M428.5,210.4c-.1.3-.3.3-.4.1S428.3,210.4,428.5,210.4Z" transform="translate(-2.1 -1.7)"/><path d="M917.5,30.7c.2-.2.4-.1.5.1S917.7,30.9,917.5,30.7Z" transform="translate(-2.1 -1.7)"/><path d="M427.1,210.6c-.2-.2,0-.2.2-.3S427.2,210.5,427.1,210.6Z" transform="translate(-2.1 -1.7)"/><path d="M264.9,383.1c.2.1.6,0,.5.2S264.9,383.5,264.9,383.1Z" transform="translate(-2.1 -1.7)"/><path d="M264.4,387.2h0C264.2,387.4,264,387,264.4,387.2Z" transform="translate(-2.1 -1.7)"/><path d="M251.3,67.5c.3-.1.1.4,0,.1Z" transform="translate(-2.1 -1.7)"/><path d="M730.8,208.9c0-.2-.2-.4,0-.5S731,208.8,730.8,208.9Z" transform="translate(-2.1 -1.7)"/><path d="M403,130.5c-.1,0-.3-.1-.1-.2S403.2,130.4,403,130.5Z" transform="translate(-2.1 -1.7)"/><path d="M830.5,272.6c-.2-.1-.3-.1-.1-.3S830.7,272.4,830.5,272.6Z" transform="translate(-2.1 -1.7)"/><path d="M50,63.8c-.2-.1-.1-.2,0-.4S50,63.7,50,63.8Z" transform="translate(-2.1 -1.7)"/><path d="M882.7,253.6c.1.1.1.2,0,.2Z" transform="translate(-2.1 -1.7)"/><path d="M815.5,263.4c-.1,0-.1,0,0-.1S815.6,263.3,815.5,263.4Z" transform="translate(-2.1 -1.7)"/><path d="M824.3,163.8c0,.3-.4,0-.1-.1Z" transform="translate(-2.1 -1.7)"/><path d="M967.8,273.2c-.1,0-.2.2-.3-.1S967.8,272.9,967.8,273.2Z" transform="translate(-2.1 -1.7)"/><path d="M859.4,137.7c-.1.1-.1,0-.2-.2S859.4,137.5,859.4,137.7Z" transform="translate(-2.1 -1.7)"/><path d="M292.6,188.9c-.2.1-.3.2-.4,0S292.5,188.7,292.6,188.9Z" transform="translate(-2.1 -1.7)"/><path d="M845.4,252.9l.2.2C845.4,253.1,845.3,253.1,845.4,252.9Z" transform="translate(-2.1 -1.7)"/><path d="M198.6,22.2c-.3-.1-.3-.3,0-.3S198.8,22.1,198.6,22.2Z" transform="translate(-2.1 -1.7)"/><path d="M293.9,187.9c0-.2.1-.2.2-.1Z" transform="translate(-2.1 -1.7)"/><path d="M85.2,274.5c.2,0,.3-.2.4,0S85.3,274.7,85.2,274.5Z" transform="translate(-2.1 -1.7)"/><path d="M967.9,84.5c-.2-.2,0-.2.2-.2S968.1,84.4,967.9,84.5Z" transform="translate(-2.1 -1.7)"/><path d="M809.5,187.4h.1C809.5,187.5,809.4,187.5,809.5,187.4Z" transform="translate(-2.1 -1.7)"/><path d="M832.7,147h0C832.7,147.3,832.4,147,832.7,147Z" transform="translate(-2.1 -1.7)"/><path d="M255.2,181.9c-.1.1-.3.2-.4,0S255.1,181.9,255.2,181.9Z" transform="translate(-2.1 -1.7)"/><path d="M272.4,178.1c-.2.1-.3.2-.4,0S272.3,177.9,272.4,178.1Z" transform="translate(-2.1 -1.7)"/><path d="M914.2,274.9c0,.1-.1.3-.2.1S914.1,274.7,914.2,274.9Z" transform="translate(-2.1 -1.7)"/><path d="M896.1,17.7c-.3-.1-.3-.3,0-.3S896.4,17.6,896.1,17.7Z" transform="translate(-2.1 -1.7)"/><path d="M814.6,251.8c.4.3.1.4.1-.1Z" transform="translate(-2.1 -1.7)"/><path d="M246.9,17.5c-.1.1-.1,0-.2-.1S246.9,17.4,246.9,17.5Z" transform="translate(-2.1 -1.7)"/><path d="M465.3,62.9c-.1-.2,0-.3.2-.2S465.5,62.8,465.3,62.9Z" transform="translate(-2.1 -1.7)"/><path d="M623.9,6c-.3.1-.5.3-.7,0S623.6,6,623.9,6Z" transform="translate(-2.1 -1.7)"/><path d="M83.8,275.9c.2,0,.5.1.2.2S83.6,276,83.8,275.9Z" transform="translate(-2.1 -1.7)"/><path d="M847.9,251.2c-.1.2-.2.2-.4,0Z" transform="translate(-2.1 -1.7)"/><path d="M833,250.3c-.3.2-.2-.3,0-.1Z" transform="translate(-2.1 -1.7)"/><path d="M46.5,62.6c-.1-.3,0-.3.3-.3S46.7,62.5,46.5,62.6Z" transform="translate(-2.1 -1.7)"/><path d="M701.1,14.2c.2.2.1.3-.1.3S700.9,14.3,701.1,14.2Z" transform="translate(-2.1 -1.7)"/><path d="M465.8,91.6h0C465.7,91.9,465.4,91.6,465.8,91.6Z" transform="translate(-2.1 -1.7)"/><path d="M466.9,92.7c-.2.1-.3,0-.3-.2S466.8,92.6,466.9,92.7Z" transform="translate(-2.1 -1.7)"/><path d="M265.1,172.2c-.1,0-.3.2-.3,0S265,172.1,265.1,172.2Z" transform="translate(-2.1 -1.7)"/><path d="M901.2,92.3a.9.9,0,0,1,.1.5C901.1,92.7,901.2,92.5,901.2,92.3Z" transform="translate(-2.1 -1.7)"/><path d="M50.4,59.3c.1-.2.6,0,.4.1S50.5,59.2,50.4,59.3Z" transform="translate(-2.1 -1.7)"/><path d="M897.8,96h0C897.8,96.2,897.6,95.9,897.8,96Z" transform="translate(-2.1 -1.7)"/><path d="M897.3,96.9h0C897.1,97.2,897.1,96.8,897.3,96.9Z" transform="translate(-2.1 -1.7)"/><path d="M221.8,245.7c-.2,0-.2-.1-.2-.2S221.8,245.5,221.8,245.7Z" transform="translate(-2.1 -1.7)"/><path d="M930.4,240.4c-.1.2-.2.2-.4.1S930.2,240.3,930.4,240.4Z" transform="translate(-2.1 -1.7)"/><path d="M801.5,239.4h.2C801.5,239.5,801.4,239.5,801.5,239.4Z" transform="translate(-2.1 -1.7)"/><path d="M148.1,329.2c-.1.2-.2.1-.3,0S148,329,148.1,329.2Z" transform="translate(-2.1 -1.7)"/><path d="M495.8,124.2c.8-2.8-2-6,1.2-6.4,1.6-2.1-3.2-3.5,1.6-6.2,1.6,1.3-.1,3.1.1,5.6C501.6,119.1,499.5,126.1,495.8,124.2Z" transform="translate(-2.1 -1.7)"/><path d="M567.2,136.6c-1.8.9-4.2,2.7-5.2,0,2-1.2,4.4-1.4,6.6-2.2C568.6,135.5,566.8,135.3,567.2,136.6Z" transform="translate(-2.1 -1.7)"/><path d="M545.9,135.7c-1.5,2.5-6.5,1-8.1-.2C539.5,133.6,543.1,136.3,545.9,135.7Z" transform="translate(-2.1 -1.7)"/><path d="M479.1,122.5c.5-1.2,3.2-2,3.1-.2S480.4,123,479.1,122.5Z" transform="translate(-2.1 -1.7)"/><path d="M476.6,125.4c-.6-.6-1-1.8.3-1.7S476.8,124.8,476.6,125.4Z" transform="translate(-2.1 -1.7)"/><path d="M543.6,129.9c.4,1.1-.8.7-1.5.4A1.3,1.3,0,0,1,543.6,129.9Z" transform="translate(-2.1 -1.7)"/><path d="M484.6,121.8c-.6-.3-1.3-.1-1.3-.8S484.5,120.7,484.6,121.8Z" transform="translate(-2.1 -1.7)"/><path d="M542.8,121.7c-.9-.1-.7-.7-.1-.8S543.2,121.5,542.8,121.7Z" transform="translate(-2.1 -1.7)"/><path d="M530.4,128.4c-.6-.1-.8-.9-.2-.9A.5.5,0,0,1,530.4,128.4Z" transform="translate(-2.1 -1.7)"/><path d="M513.2,134.1c-.6.3-.6.1-.9-.4S512.9,133.7,513.2,134.1Z" transform="translate(-2.1 -1.7)"/><path d="M547.9,135.3a.7.7,0,0,1,.1-1.1C548.5,134.3,548.4,134.8,547.9,135.3Z" transform="translate(-2.1 -1.7)"/><path d="M545.8,128.3a.7.7,0,0,1-1.1.4A.8.8,0,0,1,545.8,128.3Z" transform="translate(-2.1 -1.7)"/><path d="M501.9,112.3c-.3.3-.9.5-1.1.1A.8.8,0,0,1,501.9,112.3Z" transform="translate(-2.1 -1.7)"/><path d="M543.8,120.3c1.5-.6.6,1.4,0,0Z" transform="translate(-2.1 -1.7)"/><path d="M536.6,132.3c.3.8-.6,1-.5.2S536.7,132.4,536.6,132.3Z" transform="translate(-2.1 -1.7)"/><path d="M541.2,124.7c-.5.4-.5,0-.8-.3S540.9,124.5,541.2,124.7Z" transform="translate(-2.1 -1.7)"/><path d="M540.8,131.3c-.2.4-.4.2-.7.1S540.5,131.1,540.8,131.3Z" transform="translate(-2.1 -1.7)"/><path d="M543.8,120.3l-.5-.8C544,119.3,543.7,120,543.8,120.3Z" transform="translate(-2.1 -1.7)"/><path d="M544.5,131.2c-.3-.3-.1-.4.2-.5S544.6,131,544.5,131.2Z" transform="translate(-2.1 -1.7)"/><path d="M541.4,130.5c-.2.2-.3.2-.4-.1S541.3,130.4,541.4,130.5Z" transform="translate(-2.1 -1.7)"/><path d="M539.5,128.7c.2-.1.6-.6.8-.3S539.8,128.7,539.5,128.7Z" transform="translate(-2.1 -1.7)"/><path d="M538.5,123.7c-.1.1-.3.2-.4,0S538.3,123.7,538.5,123.7Z" transform="translate(-2.1 -1.7)"/><path d="M505.8,130.9c.1.1.4.2.1.3S505.6,131.1,505.8,130.9Z" transform="translate(-2.1 -1.7)"/><path d="M541.6,131.5c.1,0,.1,0,0,.1Z" transform="translate(-2.1 -1.7)"/><path d="M543.1,131.4c-.2,0-.3.2-.4,0S543,131.2,543.1,131.4Z" transform="translate(-2.1 -1.7)"/><path d="M526.4,66.3c-1.6,1.2-1.4,2.5-3.3,3.4C522.2,67.1,524,66.3,526.4,66.3Z" transform="translate(-2.1 -1.7)"/><path d="M526.8,60.2c.2-1.5,2.2-.9,2.1.1S527.5,60.2,526.8,60.2Z" transform="translate(-2.1 -1.7)"/><path d="M514.2,75.3c-.4-.1-.8-.2-.8-.6S515.2,74.9,514.2,75.3Z" transform="translate(-2.1 -1.7)"/><path d="M227.1,95.8c-.7.5-1.1,1-1.9,1.1S226.1,95.6,227.1,95.8Z" transform="translate(-2.1 -1.7)"/><path d="M235.2,103.7c-.1-.3-.2-.4.1-.6S235.6,103.5,235.2,103.7Z" transform="translate(-2.1 -1.7)"/></svg>