<svg xmlns="http://www.w3.org/2000/svg" xmlns:xlink="http://www.w3.org/1999/xlink"
	 viewBox="0 0 1000 505.9" style="fill: currentColor; color: #00679E">
<style type="text/css">
	.st0{fill:#FFFFFF;}
</style>
<g>
	<path d="M215.2,96.1c-1.3,0.8,0.9,2,0.1,3.1c2.3,4.2,2.3,2.7,5.7,2.8c2.7-3,4.4-7.1,4.3-11.4c22.6-7.3,6-9.9,20.2-23.8
		c-0.6-6.9,7.5-1.3,11-3c4.6-1,3.8,4.8,8,4.9c3.3-0.4-3.6,4.1-1.5,6.7c4.9,5.8,10-2.8,14.6-5c0.7,3,0.7,6.8,2.6,8.9
		c0,4-2.8,4.9-1,6.3c2.1,3.3,4.4,3.4,8,5.4c-0.6,0.3-1.2,0.6-1.9,0.9c2.1,0.3,1.1,1.9,1.4,2.1c4.1-1.3,2.4,4.5,0.9,6.1
		c-5.5,2.1-10.7,4.4-16.1,6.5c-10.8-1.1-21.9-0.1-29.7,8.2c5.1-6.2,28.5-4.8,10.6-0.6c0.8,1.7,2,0.8,3.6,1.1
		c-3.6,3.8,0.1,8.3,4.7,7.5c1.9,1.1,8.3-7.9,6.2-2.2c0.5,0.3,0.9,0.5,1.2,0.8c-4.8,4.7-14,5.1-20.2,9.7c-4.8-3.2,4.4-6.2,6.8-6.8
		c-0.8-0.1-1.4-0.3-1.8,0.3c-4.1-1.1-27.9,6.9-20.9,12.9c0,0,0,0,0,0c-2.8,2.1-7.8,1-11.1,2.9c1.3,0.7,2.5-0.5,3.8-0.1
		c-7.3,0.7-7.6,7.8-12.3,6.9c1,3.3-2.3,5.1-4.1,7.4c-0.5-1.8,2.1-2.4,0.1-5.8c-1.7,3.8,0.6,8.7-2.2,10.4c3,2.1-3.5,1.9-2,4.3
		c-34.3,12.4-10.5,25.5-23.7,36.6c-2.5-5-3.8-9.9-2.8-15c-2.2-4-3.1-3.4-7.1-2.1c-0.9-3.2-4.9-2.9-7.5-2c-0.1-0.3-0.2-0.6-0.4-0.9
		c-2.1,0.6-4.3,0.3-6.3,1.5c0.4-1-1.2-1.6-1.3-0.3c1.9,0.3,3.4,0.5,1.6,2.3c2.7,1.9,0.1,2.3-1.4,0.3c-2.5,4.1-5.4-2.4-6.2-0.4
		c-2.1-0.6-10.2-0.1-8.6,0.4c-9.5,5.3-10.6,5.8-13.3,16.4c-0.1-0.2-0.1-0.4-0.2-0.6c-0.5,0.3-0.4,0.9,0.2,0.6
		c-6.7,14.5,0.6,30.7,15.7,24c3.8-6,6.5-12.4,15.6-10.6c2.1,2.6-3.8,8.6-4.4,12.7c-0.3-0.8-0.4-1.2-0.6-1.8
		c-0.9,3.6-0.4,7.6-3.7,10.2c34.1-1.8,5.9,10.6,19.8,26.1c7,1.1,11.2-6.1,17.2,2.7c0.5-2.2,2.6-3.4,4.3-4.6c0.2-2.4,1.5-7.2,4.7-5.6
		c0.7-1.5,2.1-1.1,3.4-1.3c2.2-0.3,7-7,7.5-2.5c-1.6,1.9-3.6,1.3-1.7,4.3c4.1,0.4,5.5-8.4,6.6-2.7c2.2,0.3,4.8,0.8,4.5,3.6
		c7.1-0.6,10.9,4.3,13.6-0.1c2.2,0,4.5-0.3,7-0.2c-6.6,3.2,6.4,2.4,3.3,7.2c3,1.2,8.3,2.5,8,7c8.7,6.2,24.7,1.9,25.4,17.6
		c4.4,2.7,0.3,5.4,3.1,8.5c-1,0-1.9-0.1-2.9-0.1c0.1-0.6-0.3-1.1-0.6-0.3c0.8,0.6,1.6,1.1,3,1c0.5-0.8,1.3-1,1.3,0.1
		c4.1-0.9,3.5,2.3,2.1,4.8c2.9-4.8,13.7-2.3,14.7,4c0,0,0.1,0,0.1,0c0-0.2-0.1-0.4-0.1-0.6c4.2,0,8.1,2.5,12.4,1.8
		c6.7-0.9,9,8.7,15.4,8.5c7.9,2.2,4.7,16.9-1.1,20.9c-2.7,1-3.2,10.6-6.4,8.1c-2,6.1,0.9,13-1,19.1c-2,3.3-0.4,7.3-3,10.6
		c-2.2,1.5-0.2,4.7-2.4,5.7c-1.2,0.4-2,1.2-1.7,2.6c-3,0.5-5.6,0.6-8.5,0.5c0.6,1.9-2.6,1.4-2,3.1c-9.3,0.5-10.2,9-8.8,16.3
		c-3.3,4-3.4,10.5-7.7,13.7c0.8-1.9,2.8-3.6,2.2-5.8c-1.3,0.4-4.7,5.5-2.2,5.8c-3.4,10-8.9,15.1-18.9,8.7c-1.8,2.5,5.1,2.5,4.4,5.3
		c7.1,8.4-3.2,14.2-12.4,12.8c6.1,14.2-4.9,4.3-6.1,8.4c1.4,6.3,5.1,1.3,6.6,5.6c-2.1,2-2.2-1.7-4-0.2c0.2,1.1,1.3,0.8,1.8,1.4
		c-3.3,1.7-0.3,4.5-1.2,7.1c-12,4.3,4,6.5,3.5,11.3c-6.2,4.7-0.7,5.7-3.8,7.8c-4.3,2.5,1.9,5.5,2.9,7.8c-0.8,0-1.6-0.1-2.5-0.2
		c4.8,3.1,9.8,7.7,16,8.9c-1.7,1.6-6.2,0.8-7.6,2.6c0,0,0,0,0,0c-0.9-0.1-1.7-0.5-2.5-1c-1.1,2.9-3.2-3.1-4-0.4
		c-1.3-0.7-8.3-2.2-2.6-2.6c-1.3-0.5-6.4-0.3-3.2-1.8c-1.8,0.1-5.3,1.7-5-1.5c-0.8-0.2-1.7-0.2-1.8-1.4l0,0c0.1,0.1,0.3,0.2,0.7,0.5
		c-0.3-2.4-5-2.1-3.3-4.7c-0.4-0.1-0.8-0.2-1.3-0.3c0.7-2.7-3.4-1.8-4.1-3.8c3.3-0.6-1.9-2.9-1.4-3.7c-1.5,1.8-2.4-1-2-2.2
		c-0.8,0.6-1.8-0.4-1-1.2c-1.6-0.1-1.5-2.6-0.3-3.2c1.2,1.5,1.8,0.2,0.5-0.8c1.5-2.7-2.8-4.7-4-3c-1.2-0.7,0.8-6.2,2.2-4.9
		c-0.3-1.1-1.1-2.3-2.2-3c0.2-0.5,0.5-1.1,0.7-1.6l-0.1,0c1.2,1.4,2.2,2.1,2.3,4.3c0.4-0.1,0.6-0.2,1-0.3c-0.7-4.5-5.6-24.6-4.1-7.6
		c-2.2,0.7-3.5-4.9-2-5.8c-4.3-10.3-5.1-19.5-3.3-30.7c-3.5-14.1-3.4-27.9-3.4-41.6c3.1-18.2-14-21-23.5-31.8
		c-2.7-10.5-13.3-24.2-17.4-31.5c-3.9-7.3,1.3-6.1,3-11.1c-0.4,0.2-0.7,0.4-1,0.7c-5.1-4.3,0.1-8.8,0.3-14c1.3-1.3,4.8-0.9,3.6-3.6
		c6-4.3,6.2-10.1,5.8-17.4c-2.8-4.9-3.1-14.2-9.6-6.8c0.4,0.8,0.9,1.6,1.3,2.5c-3.8,3.6-5.2-4.9-9.6-2.4c-0.7-0.8-1.6-0.9-2.6-1.5
		c1.6-2.9-2.5-2.8-3.2-5c-6,2.2-0.4-4.2-5.8-8.1c-0.6-1.2-3.9-2.9-1.9-4c-0.2-1.2-4.8,0.1-6.8-1.4c-6.6-1.2-9.5-6.1-14.5-9.9
		c-10.5,3.7-20.3-4.2-29.2-9c-7.9-4.9-3.2-7.7-4.2-14.5c-2-4.7-5.2-9.5-9.3-12.6c-0.1-2,2.2-2.9-0.4-4.1c-1.9-2.2-3.3-7.5-6.2-7.7
		c3.3-6.2-4.1-16.8-5.1-5.6c2.1,7,7,14.1,6.4,21.7c-0.1,1.1,6.5,3.8,1.3,6.2c-1.1-3.1-3.4-5.2-6-7.2c3.8-7.1-3.7-5.9-6-10.9
		c7.2-1.2,0.8-5.5,0.1-9.1c-0.9-4.1,0.6-9.7-1.9-13c-1.4-2.3-5.4-2.4-6.5-4.1c1.6-2.9-2.7-5.2-0.2-7.9c-3.6-8.2,0.8-15.2,4.3-22.9
		c8.5-6.4,9.1-20.2,18.9-20.2c1.7-1,0-2.3,0.7-3.6c-1.3,0.3-1.6-1-2.5-1.6l0,0c0.4-2.7-2-0.4-1.3,1.3c5.3,6.4-3.5,4.1-5.6-0.5
		c0.2,0,0.3,0,0.5,0c-0.2,0-0.3,0-0.5,0c-2.7-4-1.2-5.4,3-3.3c1-1-0.7-1.3-1.5-1.6c-0.2-1.9,2.9-5.1,0.3-5.9
		c0.8-1.2,1.8-2.1,0.4-3.1c-0.2,0.4-0.3,0.7-0.5,1c-1.6-0.7,0.4-3.4,1.7-3.2c0.4-1.6,1.9-5.5-0.6-3.2c0-0.6,0.1-1.2,0.1-1.7
		c-1.5-0.3-1.3,2.5-2.9,2.8c-0.1-1.7-1.3-2.3-1.5-0.3c-1.2,0.1-0.6-3.1,1.1-2.2c0.6-0.5-0.4-1.5,0.6-1.8c-0.3-0.8,0.9-0.6,0.8-1.5
		c1.6-0.1,1.4,1.1,2,2.3c0.8-1.2,0.2-1.7-0.1-2.8c1.3,1.1,2.8-0.8,0.8,0.3c0.1-0.2,0.2-0.4,0.3-0.8c-1.1,1.1-3.2-0.4-2.9,1
		c-0.4,0.1-0.9,0.2-1.5,0.3c1-1.9,3.5-3.7,5.5-2.3c0-0.1,0-0.2,0-0.3c-0.2,0-0.4,0-0.5,0c2.8-5.4,0.2-1.6-2.9-0.3
		c0.3-1.2,1.5-1.9,1.7-3.3c0.4,0.1,0.6-0.1,0.7-0.6c-0.7-0.1-1.7-1.3-2.2-0.3c0.5,0.3,1,0.6,1.5,1c-0.5,0.4-1.2,0.9-0.6,1.5
		c-2.5,0.2-2.8,3.5-4.8,4.7c-0.3-1.3,0.5-2.1,0.8-3.3c0,0,0,0,0,0c-0.2-1.7,0.4-2.7,1-4.1c0.2,0.1,0.3,0.2,0.5,0.3
		c0-0.1,0.1-0.1,0.1-0.2c-2.4,0.2-2.1-3.3-4.3-4.1c0.2-0.3,0.4-0.6,0.6-0.9c-4.9-1.2-10.8,0-14.4-4.1c-6.1,1.4-12.3,5.4-19.6,5.9
		c1.2-2.5,5.7-2.9,6.7-5.6c2-0.1,3.6-0.9,5.7-0.7c-5.2-1.5-12.7,4.7-18.5,6.3c0.2,0.3,0.5,0.6,0.7,0.8C25.3,80.4,11.4,87,0,88.1
		c0-0.6,0-1.1,0-1.7c8.2-0.9,16.8-4.1,23.7-9.3c-0.9-0.4-1.1-0.4-1.5-1.2c-4,3.4-0.1-1.9-9.4,0.8c1.5-1.6,4-2.5,4.6-4.6
		c-1.7,0.1-3.3,0.7-5,0.4c0.1-0.9-0.1-1.5-0.5-2.4c5.9-9.8,21.4-7.4,29.9-14.1c-4.5,0.3-9.3,1.5-13.6,0.2c0.6-1.8,0.6-1.8,1.9-2.2
		c-0.6-0.3-1.6-0.1-1.7-1.2c4.8-1.3,9.5-2.5,14.6-3.2c-0.1,0.8-0.9,0.9-1.2,1.4c2.1,1.6,8.9-0.6,4.6-3c2-2.4-0.3-2.2-1-3.9
		c14.8-4.2,30.6-10.2,45.4-8.2c3.4,3.7,14.4,1.3,19.9,3.1c10.7,5.4,19.9,0.4,31.6-0.6c-0.1,3.6,5.9-3.3,6-0.4c-3,7.1,8.3-3.4,4,2.8
		c8.8-2.9,7.1-0.5,15.4,1.5c4.9-0.8,8,1.5,1.6,3.1c4.4,3.1,12.9-3.4,15,2.8c1.7,0.2,0.5-2.7,2.3-3c-0.2-0.3-0.5-0.6-0.7-0.9
		c3.7-2.3,8.7-2.9,10.3,0.7c5.8,1.2,12.2,2.1,16.9-1.9c-7-1.1,4.2-4.1,6.3-2.9c0.2,3.4-2.1,3.5-5,3.7c4.7,1-2.8,2.6,1,3.7
		c-0.3-3.4,10.5-3.3,6.2-4.9c0.9-0.9,2.2-0.9,2.5-2.2c-8.8-2.9,5.5-6.2,7.2-9.3c2.4-5.9,9.9-5.4,15.2-4.3c-3.2,2.1-6.9,4.3-11,3.4
		c-0.4,1.8-2.6,1.9-4,2.8c2.9,1.3-0.3,3,1.5,5.2c-1.2,0.3-2.3,0.8-3.3,1.4c1.1,0.9,2.9-0.3,4.3,1.2c-2.6,0.2-1.9,1.5-3.2,3.2
		c1.9-1.5,8.9-5.1,5.8,0.2c-5.2,2.6,0.3,5.4,2.7,0c1.5,1.9,3.8-1.9,5.7-2.1c0.3-2.6,1.8-2.6,3.9-3.4c-1.5-0.4-3.2,0.6-4-1
		c-6.3,0.4-5.6-2.8,0.2-2.2c-1.2-1.3-3,0-4.4-1.1c4-5,11.1-7.9,17.5-7.3c-13.7,5.4-2.9,9.6-6.4,5.7c1.1-0.5,1.8-1.5,3.1-1.1
		c-0.3-0.3-0.5-0.5-0.9-0.8c3-3.1,8.2-3.5,12.4-3.4c1,2.2-0.2,2.7-1.1,4.2c-2.3,0.7,5.7-0.6,7.5-1.4c-2-1.2-4.8,1.5-5.3-2.1
		c1.2-2.1,12-0.9,8.2,2.3c2.4,0.4,3,2,3.6,3.9c5.5-2.5,3.8,1.2,7,1.8c2.6,0.1,2.7,0.4,1,2.1c1.8-1.1,4.7,0.6,1.5,1.3
		c3.1,2.5-2.2,0.9-3.5,3.3c2.2,0.7,4.1,2.6,6.3,2.1c0.2,0.9,1.3,0.4,1.5,1.1c-0.4,1.5,1.2,0.5,1.7,1.5c1.8,1.3,6.3,1.3,0.3,2.7
		c-11,9.9-5.9-1.4-13.5,0c1.1,1.5-0.5,1.4-1.5,1.6c0.5,3.2,5.7,3.4,3.3,5.5c1.9,1,1.4,3.4-1,2.5c0.3,1.9-2.1,1.7-0.8,3.1
		c-2.4-1-5.2-3.6-8.3-4.2c4.3,5.5,5.7,7.2-2.8,4.6c-2.3-2.4-4.6,0.5-5.7-3.5c0.5-0.2,0.9-0.3,1.6-0.6c-2.5-0.6-2.8-3-5.2-3.4
		c-1.7,0.5-13.8,2.6-8-1.6c2.6-2.7,13.1,1.4,11.3-3.5c2.7-2.2,8.9-1.8,7.9-6.6c-5.4-3.4-1.2-2.6-6.9-1.8c0.1-1.6,1.8-1,3-1.2
		c-1.2-1.1-4.1-5.4-5-3.5c-0.6,2.1-11.2,0.4-2.5,1.3c-3.3,2.1-6.4-1.7-10.3-0.2c2.1,0.4,2.1,1.1,4.1,2.2c-0.6,2.8-5.7,1.5-4.2,4.8
		c0,2.6-6.5,4.6-8.7,3.9c-0.5,0.8-0.5,0.8-1.6,0.8c0.2,0.5,0.4,1.1,0.6,1.6c-2.1-0.5-2.8-3.5-5.8-2.4c0.2,0.4,0.4,0.7,0.6,1.1
		c-6.3,3.9-12.1,8.1-19.7,8.4c1.1,2.5-2.8,2.8-4.6,2.5c-5,4-14,6.6-16.7,13.7c4.8-0.5,2.2,3.1,1.6,6.1c7.4-2.5,11.1,5.2,17.3,6.5
		C221.1,87.3,217.6,91.8,215.2,96.1L215.2,96.1z M242.1,491.8c0.1-0.1,0.2-0.1,0.3-0.2c-0.1,0-0.2-0.1-0.3-0.1
		c0,0.4-0.3,0.4-0.6,0.4c0,0.1,0,0.1,0.1,0.2C241.8,491.9,242,491.8,242.1,491.8z M81.5,76.6c0.2-0.2,0.4-0.3,0.1-0.5
		C81.5,76.3,81.5,76.4,81.5,76.6c0.2,0,0.4,0,0.6,0c0,0,0-0.1,0-0.1C81.9,76.6,81.7,76.6,81.5,76.6z M271.8,296.3
		c0.1-0.3,0.2-0.5,0.3-0.8c-0.1,0-0.2,0-0.2-0.1C271.9,295.7,271.8,296,271.8,296.3c0.1-0.1,0.2-0.1,0.3-0.2c0,0.1,0,0.2,0,0.3
		C272,296.4,271.9,296.3,271.8,296.3z M160.5,64.1C163.2,63.9,160.8,62.2,160.5,64.1c-3.7,0.6-6.5,1.7-10.2-0.5
		c-0.6,3.5-5.3,3.4-8.6,4.6C148.1,70.8,154.8,65.8,160.5,64.1z M280,93.9c-0.8-0.3-1.3,0.1-1.8,0.8C278.8,94.7,280,94.6,280,93.9
		c0.3,0,0.6,0.1,0.7-0.2C280.4,93.6,280.2,93.8,280,93.9z M36.6,73c-1.4,0.3-2.6,0.1-4,0.8c1.8,0,3.1,0.2,4.3-1
		C36.8,72.9,36.7,72.9,36.6,73z M247.8,492.1c-0.4,0.1-0.7,0.1-1.3,0.2c1.3,1.7,0.7,7,2.5,2.9c0.6,0.9,0.6,2.1,1.8,1.9
		c-0.1,0.4,0.4,0.5,0.5,0.2c-1.9-0.7-0.6-1.9,0.2-2.7C249.2,494.2,248.2,495.4,247.8,492.1C250.2,492.6,249.5,490.3,247.8,492.1z
		 M141.6,51c9.1-0.5,1.8,1.2-2.2,3.5c3.3,1.6,4.8-2.1,7.9-1.5c0.6,1.5,1.3,0.5,1.8-0.2c2.7-1,6,0.5,7.8-2.7
		c-2.1,0.5-4.1,1.1-6.4,0.2c1.3-0.9,2.9-0.5,3.8-1.7c-4.2,0.2-9.2,1.2-12.9,2.4C141.4,51,141.5,51,141.6,51z M194.4,112.5
		c-6.6-1.7-14.2,3.6-19.8,6.8c4.7,0.3,7.9-0.8,13-2.6c-0.8,0.6-1.4,1.1-2.1,1.6c2.9,2.6,5.5,1.3,9,1c2.1,2.7,2.1-2.8,2.1-4.2
		C194.6,115.4,194,114.4,194.4,112.5z M205.8,122.5c-4-1.1-8.1-1.8-11.4,0.1c5.5,2.3,0.1,5.9-1,7.9c6.8-5.4,0,11,9.3-5.7
		C204.8,129.5,208.2,126.3,205.8,122.5z M179.2,138.1c7.3-2.2,4.7-10.6,14.4-15.8C185.8,120.9,179.4,130.9,179.2,138.1z
		 M191.6,137.8c3.8,2.7,11-1.8,14.7-3.9C201,133.8,196,135.7,191.6,137.8z M172.3,94.4c-2.3-1.8-3.9-0.3-4.7,1.7
		c0.2,0.1,0.5,0.2,0.9,0.4c-1.8,0.8-0.6,2.2-0.5,3.7c0.5-0.1,0.9-0.2,1.4-0.4C170.9,104.2,171.9,95.7,172.3,94.4z M215.9,128.5
		c-2.8,2.7-8.6-0.5-10.7,3.8C208.2,130.5,217.3,134.4,215.9,128.5z M205.2,255.5c-2.6,1.9-1.7,2.6-0.5,5
		C207.7,260.2,206.4,257,205.2,255.5z M272.9,49.8c-0.1,0.6-0.1,1-0.1,1.4c3.5-0.2,6.1-0.4,1.8-2.8
		C273.9,48.9,273.4,49.3,272.9,49.8z M161.4,252.7c-0.1-1.1-2.3-4.2-3.2-2.6C158.3,251.6,159.8,253.8,161.4,252.7z M215.5,355
		c-0.8-1-1.8-2.4-3.1-2.4C211.6,354.3,214.3,356.2,215.5,355z M170.6,102.1c-0.8,1.3-2.9,1.9-2.7,3.6
		C169.6,104.3,171,103.6,170.6,102.1z M227.7,53.8c-0.5-1-1.5-1.9-2.4-1.3C225,53.7,226.6,54.1,227.7,53.8z M237.7,118.1
		c1.8-0.7,1.8-0.7,2.8-2.1C239.4,116.7,238.4,116.8,237.7,118.1z M243.4,493.6c1.1,0.5,2.2-0.1,2.1-1
		C244.7,492,244.3,493.2,243.4,493.6z M210.4,46.1c0.7,0.2,1.3,0.4,1.6-0.5C211.4,45.4,210.9,45.3,210.4,46.1z M84.5,78
		c0.2-0.8,0.9-1.5,0.6-1.9C84.6,76.3,84.2,77.1,84.5,78z M51.4,49.9c-0.3-0.3-1.1-0.3-1,0.2C50.6,50.6,51.3,50.4,51.4,49.9z
		 M189.1,44.5c-0.8-0.1-0.9-0.3-1.2,0.3C188.4,45,188.5,44.8,189.1,44.5z M257.2,499.7c0,0.4,0.2,1.5,0.7,0.8
		C257.7,500.2,257.9,499.7,257.2,499.7z M278.3,301.8c0.6-0.7,0-1.2-0.5-0.6C277.9,301.4,278.1,301.6,278.3,301.8z M228.4,476.3
		c0.2,0.3,0.3,0.6,0.5,0.9C229.1,476.7,229.1,476.4,228.4,476.3z M25.3,79c-0.6-0.2-0.8-0.3-1.3,0C24.3,79.5,24.7,79.7,25.3,79z
		 M49.7,48.6c-0.5-0.1-0.7-0.1-0.8,0.4C49.3,49,49.5,48.9,49.7,48.6z M265.1,122.4c-0.3,0.2-0.6,0.3-0.3,0.7
		C265.2,122.8,265.5,122.8,265.1,122.4z M17.3,69.5c-0.1-0.5-0.6-0.3-0.3,0.1C17,69.6,17.1,69.5,17.3,69.5z M166.6,62.4
		c-0.1-0.2-0.3-0.1-0.5-0.1C166.2,62.6,166.4,62.5,166.6,62.4z M138.6,51.8c0.4-0.5,0.1-1-0.4-0.4C138.3,51.4,138.4,51.5,138.6,51.8
		z M194.9,135.1c-0.1-0.1-0.2-0.1-0.3-0.2c-0.2,0.3-0.2,0.4,0.2,0.5C194.8,135.4,194.9,135.2,194.9,135.1z M211.1,251.2
		c-0.3-0.3-0.4-0.1-0.2,0.2C211,251.4,211,251.3,211.1,251.2z M272.7,297.6c0-0.1,0-0.2,0-0.3C272.7,297.3,272.7,297.4,272.7,297.6z
		 M192.6,43.5c0,0-0.1,0.1-0.1,0.1c0.1,0.1,0.3,0.2,0.4,0C192.8,43.6,192.7,43.6,192.6,43.5z M215.7,356.1c-0.1,0.1-0.1,0.2-0.2,0.3
		C215.8,356.5,216,356.3,215.7,356.1z M229.6,474.9c0.6-0.1,0.5-0.7,0-0.5C229.6,474.5,229.6,474.7,229.6,474.9z M239.2,489
		c0,0.2,0.3,0.1,0.4,0.1C239.6,488.8,239.4,488.9,239.2,489z M190.1,44.4c-0.1,0-0.1,0-0.2-0.1c0,0.1,0,0.1,0,0.2
		C190,44.5,190.1,44.5,190.1,44.4z M271.6,296.6c0-0.2-0.1-0.2-0.2-0.1c0,0.1,0.1,0.2,0.1,0.2C271.5,296.7,271.5,296.6,271.6,296.6z
		 M136.8,40.2c0,0.1-0.1,0.1-0.1,0.2C136.8,40.4,136.9,40.4,136.8,40.2z M275,301.5l-0.1,0.1l0.1,0L275,301.5z M276.3,301.6l0-0.1
		l-0.2,0L276.3,301.6z M65.4,152.9l-0.1-0.2l-0.1,0.2L65.4,152.9z M283,35.8l0.2-0.1l-0.2-0.1L283,35.8z M80.2,80.3
		c-0.3-0.2-0.5-0.1-0.2,0.2C80.1,80.4,80.1,80.4,80.2,80.3z M209.3,147.3c0,0.1,0,0.1-0.1,0.2c0.1,0,0.1,0,0.2,0
		C209.4,147.3,209.4,147.2,209.3,147.3z M226.8,466.9c0-0.1-0.1-0.2-0.2-0.2c0,0.1,0,0.1,0.1,0.2C226.6,467,226.7,466.9,226.8,466.9
		z M233.3,485.2c0,0-0.1,0.1-0.1,0.1c0.1,0.2,0.2,0,0.3,0C233.4,485.2,233.3,485.2,233.3,485.2z M266.2,61.9l0,0.1l0.1,0L266.2,61.9
		z"/>
	<path d="M749,224.1c-2.3-4.9-7.4-8-9.8-14.7c-2.3,2-7,6-10.4,3.2c-5.2,0.3-2.1,9.5-7.9,7.8c0,0-0.1,0.1-0.1,0.1
		c0.1,0.1,0.2,0.2,0.4,0.3c-4.2,5.9-8.8,10.2-13.1,14.6c-6.4,0.3,0.8,9.5-1.9,12.9c-1.5,2.5,0,5-0.4,7.8c-1.6-0.3-3.7,2.8-2,3.8
		c-9.2,8.5-7.8,1.2-11.9-7.3c-7.3-12.9-11.8-27.4-13.8-41.4c-1,8.3-9.1,5.7-11.5-0.7c1.6,0.3,3.5,0,4.1-1.8
		c-9.2,2.3-10.2-12.9-19.1-8.8c-10.3,0.2-22,1.4-27.7-7.3c-0.8-0.5-0.5,3.5-3.2,1.6c-10.2,3.3-14-11.7-21.6-13.3
		c-0.9,1.6-1.7,1.5-3.1,2.9c3.2,6,7.7,10.2,10.2,16.1c3.2-8.9,2,2.7,4.1,4.1c6.3,2.3,10.5-3.5,14.1-8.1c-1.8,12.4,20.3,9.2,8.5,22.3
		c-2.8-1.5-1.8,3.6-1.7,5.2c-1.8,0.4-3.4,0.7-3.7,2.8c-0.6,2.3-4.6,0.6-4.1,3.7c-0.2,0.8-0.9,1.4-1.7,1.2c-2.9,0.2-8.6,1.3-8.1,5.1
		c-6.6,2.7-12.2,6.7-19,8.3c-8.6,5.2-9.9,2.6-11.9-6.5c0.4-9.1-7.9-16-12.7-22.6c0.2-6.3-3.8-9.8-6.9-14.1c-2.4-4-4.7-10.4-9.1-12.2
		c0.2-1.1,0.8-2.1,0.3-3.3c-1.1,8.6-5.2,1.6-7.1-2.8c3.2,9.8,10.4,21.8,15.6,30.8c2.6,5.2-1.1,9.2,5.4,12.9
		c1.4,11.3,21.9,20.1,15.2,24.5c6.8,6.8,8,3.5,16.3,1.8c6.9,0.6,11.6-7.5,11.9,2.9c-6.2,30.2-54.4,47.8-35.7,80.6
		c5.4,30.2-20.7,20.7-19,38.2c3.9,13.4-1.5,11.2-8.8,18.2c2.2,11.3-14.5,26.2-24,30.2c-3.7,0.6-8-1-11.4,0.8
		c-3.5,0.7-7.9,3.4-10.3-0.6c-1.7,1.2-0.9-3.5-2.7-4.8c4-3.7-3.1-12.7-5.2-16.9c-3.9-4.4-4.9-14.3-5-20.1
		c-1.1-8.2-9.6-14.8-8.8-23.4c9.4-26.6,6.4-36.8-9.8-60.2c3.2-4.5,4-11.8,2.7-17.6c-2.4,0.2-1.9-2.5-4-2.8c-15.2,4.5-6-4.7-14.8-6.5
		c-7.1-0.2-13.2,3-19.5,6.3c-6.4-3.9-13.2-0.4-19.4,1.2c-12.3-6-18.6-16.8-25.2-27.6c-3.5,0.3-5.5-4.6-3.3-6.9
		c-0.9-1.7-0.7-3.7-2.8-4.4c5.3-4.9,7.2-19.5,2.1-23.3c2.2-8.7,7.8-16.4,12.9-23.4c1.2-5.2,8.1-2.5,12.5-11.1
		c-0.8-5.1,1.7-11.7,7.4-13.5c4.6-0.9,3.5-7.9,7.3-8.3c9.2,9.2,22.1-8,33.5-3.1c2.2-0.7,16.3-3.5,15.8-0.4c0.8-0.4,2.7-1.6,2,0.1
		c-4.1,3.3,1.3,3.5,0,6.6c-0.3,1.6-3.8,2.5-2.6,4.2c3.9,2.4,7.5,4,12.8,4.5c1.1,0.9,3.2,0.5,3.6,2c0.6,5.1,7.3,2.4,10,5.9
		c10.2,5.7-3.1-19.4,21.5-3.6c11.4,1.2,9.3,2.6,21,0.2c1.7,2.9,8.9,1.6,8.8-2.7c1.3-3.9,5-18.4,0.7-16.4c-3.4-2.6-6.2,4.6-9.8,1
		c-5.3-5.2-5.8,3.7-12.1-1.7c-0.8,0.6-1.7,0.1-2.7,0.1c2.2-1,1.2-1.5-1-1c0.3-0.4,0.4-0.6,0.6-1c-0.7-0.6-1.4-1.1-2.2-1.7
		c0.4-0.1,0.8-0.3,1.3-0.4c-1.8-0.8-4.7-3.9-1.5-2.3c-0.2-0.9,0.2-1.6-0.4-2.5l0,0c-0.1-0.5-0.1-0.9-0.2-1.5c-0.5,0-1.1,0.1-1.8,0.2
		c0-1.6-0.2-3.1,1.5-4.4c-4.1-0.7-5.5-1.2-8.7-0.1c0.6,0.9,1,1.1,1.8,1.6c-1,0.5-1.6-0.8-1.3,0.9c-0.5-0.1-0.9-0.3-1.4-0.4
		c0,0,0,0,0,0c-0.8-0.2-1.4-1-2.3-1.4c-1,4,5,5.7,4.8,8.9l0,0c-0.1,0.5-0.2,1-0.3,1.7c-4.9-3.2,0.3,2.7-3.5,0.9c0.2,1.4,0.9,2,1,3.6
		c-0.6-0.4-1-0.7-1.4-1c-0.2,0.3-0.5,0.6-0.8,1c-0.3-0.5-0.7-1.1-1-1.6c-2.4,1.3-1.2-2.9-3.3-3.7c0.4-0.5,0.8-1,1.2-1.5
		c-8.3-3.5-4-16.2-14.6-17.4c0.2-0.2,0.5-0.3,0.9-0.6c-0.7-0.9-1-1-1.9-0.2c-2.7-2-5-4.7-7-7.7c0.2,1-1,0.9-1.3,1.8
		c-0.9-1.1-1.6-2-0.9-3.4c-1.5-0.4-5.2,0.8-3.4,2.5c-2.3,3.7,4.3,4.1,4.5,7.5c0.1,4.3,7.8,2.4,6.3,5.4c1.8,0.8,10.9,4.6,6.6,6
		c-1.1-2.4-4.9-2.6-4.6,0.7c4,0.8-0.9,7.9-3.1,6.3c-2.2,1.2,0.1,3.7-1.5,5c-1.6-0.8-9.9-3.3-7.1-5.2c12.7,1.7,12.5-6,2.7-11.6
		c-7,0.6-9.7-14.1-15.9-11.1c-5.5,6.3-10.6,1-15.8,3.9c2.6,8.4-14.8,7.5-9.7,16.4c-4.5,7.5-11.5,6.1-18.2,10.3
		c-4.6-4.4-3-4.7-10.2-4.2c0.2-5.6-1.8-7.9,1.4-13.5c0.5-5-2.4-11.3,4.6-11.2c9.2,0.9,21.7,5,19.4-9.1c-4.9-6.5-4.8-3.8-9.4-7.2
		c-1.6-5.7,12.3,2,8.2-5.2c0.4-0.8,1.1-0.2,1.5-0.5c2.4,3.6,5.2-0.9,8.3-1.6c0-5.5,7.1-1.9,9.8-10c0.6,0.1,1.1,0.1,1.8,0.2
		c3.2-4.9,14.6-0.4,7.9-9.7c-1.4-5,3-5.5,6.2-7.4c-0.6,6.7,3.8,2.3-1.3,7.2c3.8,0.3,2.6,3.5-0.4,1.4c0.1,1.5,1.4,3.7,3.7,3
		c-1.2,4.5,7.7-3.5,6.8,0.6c4.1,3.1,8.3-2.2,12.6-2.1c2,0.8,4.7,3.2,6-0.4c0.8-0.7,3.6,0.7,3.1-1.1c-5.4-17.2,10.2,0,7.1-10.3
		c-9-6,10.8-4.5,14-6.2c-0.2-0.2-0.4-0.1-0.6,0.1c-5.2-5.5-13.2,2.3-18.9-0.6c-8.5-4.8-1.3-14.2,5.4-16.2c0.3-5-12-3.1-9.3,1.5
		c-3.5,4-10.2,4.5-10.4,10.4c11.3,10.6-1.8,4.3-0.9,15.2c0.3,0,0.5,0,0.7,0c0.1,4.2-7.5,1.1-6.8,5.5c-2.1-0.1-4,0.7-4.4-2
		c-1.9,1.6-1.1,6.5-4.6,4c3.8,0.1-3.3-4.3,1.9-3.4c5.1-2.6-1.6-9.1-3.5-12.6c-2.6,4-15.6,7.6-12.2,0.3c-0.6,0-1.2,0.1-1.8,0.1
		c-0.1-1.8-0.1-1.8,0.8-2.9c-6.4-9.1,10.5-10.4,14.5-15.3c4.2-3.8,6.4-9.2,12.2-12.2c-0.8-0.2-1.8,0.6-2.4-0.3
		c-3,2.5-1.2-3.2,0.6-1.2c0.3-0.6,0.3-1.4,1.3-1.4c-1.2,2.5,6.2,1.2,2.4,0c1.8-0.8,4.4-3.3,6.5-2.2c0.6,0.5,0.9,0,1.3-0.2l0-0.1
		c0.5,0.6,0.5,0.6,0.9,0l-0.1,0.1c1.6-0.3,2.6-0.9,4.5-1.5c-0.2-0.1-0.4-0.3-0.6-0.4c0.3-0.4,1-0.4,1.4-0.6c1.8,1.6,4.3-0.8,6.6-1.2
		c0.4,1.1,0.8,1.2,1.8,0.7c0.1,0.4,0.3,0.8,0.5,1.3c1.1-1,3.4-3.2,3.9-0.5c2.1-1.1,4.4,0.3,6.6,1c-1.1,0.5-2,0.8-3.2,1.4
		c16.9-1.5,50.5,17.2,11,10.2c4.9,2.5,3.1,5.1,6.5,7.8c1.4,0.5,8.7,3.2,5.8,0.1c-2.7,0.5-4.6-3.5-1.1-2.7c2.2,0.9,5.1,2.4,7.4,1.1
		c-0.7-0.7-1.4-1.3-2.1-2.1c2-4.6,15.3-1.3,8.7-5.8c0.1-2.3,0.4-3.7-2.3-4.6c2.9,0.3,7.4-0.4,8.7,2.7c-6.6,0.3-0.5,4,3.1,3
		c0.2-4.1,6.8-4.5,10.2-5.5c-0.3,0.6,0.6,0.5-0.1,0c0.9-1.1,2.2-1.3,3.6-1.2c0.2,5.3,8.9-1.3,12.5,0.2c1.2,2.8,1.7,0.8,4,0.1
		c-21.1-12.1,17.8,3.9,19.8,0.2c-4.3-2.1-6.8-1.7-7.5-6.1c-2.5-0.1-1.7-1.8,0.1-2.3c2.1-0.9-0.6-4.1,1.9-4.6l-0.1-0.1
		c3,1.2,10.4-1.4,8.2,4.9c4.9,1.2,3.5,8.1,8.7,8.9c0.8,2.6-1.4,7.6-4.8,6.6c4.7,3,11.5-2.5,7-7c3.6-1.9,7.1,0.1,8.8,3.4
		c0-0.1,0-0.1,0-0.2c-0.1,0-0.2,0-0.4,0c1-5.5-7.2-4.5-10.7-4.2c-2.9-2.7-1.5-6.1-6-7.2c-0.2-2,4.6-2.1,1.3-4.3
		c4.7-0.7,1.2,6,7.9,4.8c-2-0.9-4.8-2.3-0.8-2.6c-4-4.3,11.6,1.9,12.6,0.8c-16.6-7.5-2.9-4.8,5.5-6.6c-1.4-0.7-2.5-1-3.9-1.4
		c0.5-3,6.7-2.8,9.5-3.6c6.1-2.1,12.1-0.6,18.2-2.5c-2.5-4.4,6-3,8.5-2.5c-0.3,2.6,4.6-0.4,4.7,2.5c42.1-1.5-4.1,13.7,16.5,8.7
		c-0.5-0.1-1-0.2-1.7-0.3c0.8-1.8,2.5-0.4,3.9-1.1l-0.1,0c0.7,1.3,3,1.8,3.9,0.5c3.6-0.1,29.1,5.5,24.6,1.1
		c5.8-0.9,16.1-0.3,19.3,5.4c-0.5-0.4-0.8-0.9-1.6-0.7c2.3,0.7,12.9,7.1,9.4,0.5c5.8,1.9,12-0.1,18.1,1c-1-1.5-7.1-3-2.1-3.2
		c0.3-0.5-0.2-0.5-0.2-0.7c27.2,0.5,54.3,11,80.1,9.4c-0.4,0.7-1.1,0.2-1.5,0.5c4.9,2.6,12.5,4.1,3-1.6c16.6,1.8,59.7,5.9,64.1,15
		c1,1.4,2.1,2.1,3.4,3.2c-8.4,0.3-17.5-4.5-25.5-5.5c3.9,1.6,5.6,5.2-0.3,4.9c2.4,2,12.9,4,13.4,7.4c-5.8-1.7-13.9,2.4-12.7,8.5
		c-3-1.4-9.3-4.8-10.4,0.2c-1.8-0.6-3.2-3.8-3.6,0.2c-1.3-0.8-2.1-0.9-3.6-0.5c2,2.1,0.9,7,4.5,7c1-0.4,2.6,0.1,3,1.1
		c-0.3,2.2,9.2,5.9,3.2,4.8c-2.6,2.4,8.8,6.6,1.6,6c-2.5,1.8,0.5,3.4,1.8,4.8c-5.4,0.2,1.6,4.9-1.8,8.1
		c-8.4-7.2-18.8-14.1-22.5-24.2c4.6-0.8,3-6,3.8-9.4c3.7-1.4-1.8-8.5-4.3-7.1c0.1,1.7,1.6,2.2,3,3.2c-4.5-0.3-3.1,7.7-8.7-0.9
		c-1,0.9-2,0.4-3.1,0.1c-7.5,0.3-2.7,1.5-5.4,5.4c0.1,3.1,2.7,1.9,4.4,3.4c-3.4,0.6-6.4,2-9.7,0.9c0.4-0.5,0.4-0.5,0.8-0.7
		c-1.7-0.9-8.6-3.3-8.1,0c-10.4-0.8-17.8-3.1-19.6,9.1c-2.9,8.4-5.2,4.4,3,8.2c3.2,4.4-0.6-2.7,3.6,1.2c0,0.4-0.1,0.8-0.1,1.2
		c1.9,0,2-0.2,2-2.4c5.8-0.8,9.7,4.4,13.6,7.2l-0.1-0.1c0.3,5.1,4.1,8.4,6,13c-0.8,7.4-0.3,27.2-12.5,20.3c-0.2,0.7-0.3,1.3-0.5,2
		c-4.7,2.5,1.4,8.3-5.3,10.5c2.9,5.4,22,17,6.9,19.5c-4.7,3.5-2.4-7.2-6.5-8.4c3.8-3.7-5-3.1-6.4-5c1.3-10.2-8.4-4.7-12.3-2.5
		c0.8-1.3,1.1-1.7-0.6-2.4c1.2-2.7,1.4-5.6-2.7-5.1c-2.3,2.3-3.2,7.8-7.2,6.3c-1.9,4.7,5.2,2.5,5.9,5.5c0.5,1.9,0.5,1.9,2.6,1.9
		c1-3.7,9.4-1.9,9.1,1.2c-16.4,4.3,4.2,14.6,6.5,22.3c-1.2,0.8-2.6,1.2-2.9,2.7c1.9-0.7,2.6,0.9,4.4,0.9l0-0.1
		c2.2,6.5-4.9,10.7-3.2,17.2c-4,2.9-6.9,10.5-12.9,10.3c-1.9,0.8-3.1,2.8-4.4-0.1c0.1,5.2-8,2.6-9.9,6.8c0.9,1.2,1.3,2.9-0.9,2.5
		c-1.4-3.9-2.7-6.3-7.4-4.4c-5.9,3.9-7.3,9.6-1.5,15.1c8.3,5,18,23.8,3.2,26.1c-0.3,3.5-3.5,5.3-6,7.2c-0.8-1.9-0.9-3-0.2-5.4
		c-1.1-0.4-1.8-1.6-3.2-1.8l0,0.1c-0.6-0.3-0.9-0.3-1.7-0.1c0.5-3.8-1.2,0.9-3.1-5.3c-1.9-1.7-3.6-2.9-6.4-3
		c0.2-2.2-0.6-3.6-2.9-2.6c1.4,5.8-5.3,13.3,0.8,16.5c1.7,2.3,1.3,7.5,4.6,7.8c8.9,3.7,7,13.4,11,20.4
		c-13.7,2.8-12.6-26.1-20.8-24.2c0.3-12-0.2-24.8-7.6-34.9C749.4,245.6,754,225.9,749,224.1z M531.3,48.9c-0.1-0.1-0.2-0.2-0.3-0.4
		c0,0-0.1,0.1-0.1,0.1c0.4,0,0.5,0.5,0.8,0.4C531.5,49,531.4,48.9,531.3,48.9z M511.2,37.5c1.5-0.6-0.5-0.3-0.1,0.5
		C511.1,37.8,511.2,37.6,511.2,37.5z M515.5,148.9c-0.2,0-0.3-0.3-0.4,0c0.6-0.2,0.7,0.4,1.1,1C516.3,149.1,515.8,149.1,515.5,148.9
		z M541.7,63.5c-1.4-0.9-1.4-0.9-2.4-0.7C540,63.6,540.9,63.6,541.7,63.5c0,0.4,0,0.7-0.1,1.2c-5.5,0.3,0.6,1.9,1.2,3.5
		c-0.1,1.5,1.6,0.3,1.9-0.6C542.6,66.7,543.4,63.6,541.7,63.5z M555.6,295.8c-1.1-0.1-1.7-2.1-3.4-2.2c-2,1.4-5.2,1.1-4.9,4.5
		c1.1,2-1.7,5,0.6,6.4c0.8-2.1,4.4,0.7,5.3-1.1c-2.1-1.4,0.4-2.1,0.9-3.6C555,298.6,554.6,297,555.6,295.8c0.3,0,0.6,0,1,0
		c0-0.1,0-0.1,0-0.2C556.3,295.7,556,295.7,555.6,295.8z M605.6,140.7c2.2,0.4,3.1,0.9,5.3-0.3c-2-1.9-6.3-7.5-6.1-1.4
		c-2.5-1.1-0.5-3.3-1.7-5c-2.7,0.3-11.5-8.9-5.3-6.6c-2-3.4,1.5-3.2,3.9-3.2c2.4-11.7-15.8-3.4-17.1,3.4c4.7,4.6,6.6,12.2,13.4,15.4
		c-3.3,0.2-3.3,6.2-2.9,8.6c3.6,4.5,10.5,6.4,16.2,4c-2-3.4,0-7.7-4.2-9.1C609.1,143.6,603.7,144.8,605.6,140.7z M553.7,137.8
		c4,3.5,12.1,3.8,16.6,0.8c1.4-6.8-11.8-9.9-16.5-13.5c-2.5,0.2-6.7,3.5-8.9,2.4c0.7-2.6-1.3-2.3-2.9-3.3c0.6-1.3,2-1,2.8-1.8
		c-1.4-1.7-5.5,0.4-5.1-2.4c-6.6-0.1-8.3,9.9-11.3,15C533.5,146.8,545.5,133,553.7,137.8z M560.7,117.9c-4.3,0-9.5,1.2-12.4,4.6
		c3.1,2.7,8.5,3.1,10.1-1.2c-0.5-0.4-1-0.8-1.7-1.3C558.1,119.3,559.5,119,560.7,117.9z M752.9,93.4c-6.2-17.8,0,8.9-10.4,7.9
		c4.8,2.5,7.4-3.8,10.4-6.4C751.5,94.7,751.2,93.5,752.9,93.4z M540.8,316.7c-0.7-3-1-5.9-2.3-8.7c-0.4,6.8,1.2,15.1,6.1,19.3
		C544.4,323.2,540.2,319.8,540.8,316.7z M557.9,348c-2.5-3.2-0.8-7-1-10.2c-0.5-1.6-2.3-10.1-2.5-5.1
		C556.6,337.3,552.1,346.4,557.9,348z M536,69.7c-2.4-2-5.7-4.8-8-1.8c2.1,1,2.5,2.9,4,4.2c1-1.1,1.8-1.1,3.1-0.5
		C535.4,71,535.7,70.4,536,69.7z M533.2,141.2c-2.5-1.1-4.6-1.5-6.5,1.3C528.9,142.6,532,143.6,533.2,141.2z M663.2,123.6
		c0.4,0.3,0.9,0.6,1.6,1.1c0.3-1.8,0.8-2.6,1.8-4C669,117.6,662.1,120.4,663.2,123.6z M678.7,119.5c-2.2,0-2.9,0.5-4.8,0.5
		C675.5,120.9,677.8,121.3,678.7,119.5z M619.7,127.7c-0.4-1.1,0.5-2.4-0.5-3.5C618.6,126.1,618.6,126.2,619.7,127.7z M668.1,119.6
		c1,0.7,1.9,0.6,2.9,0.4C670,119.5,669.3,118.8,668.1,119.6z M622.6,120.3c1.1-0.2,3.1,1.8,3.3,0.3
		C625,120.4,623.3,119.4,622.6,120.3z M622.4,124.8c-0.6,0.7-1.1,1.2-0.9,2.1C622.3,126.4,622.8,125.9,622.4,124.8z M512.7,150.8
		c0.7,0.2,2,1.6,2.2,0.4C514.3,151,513.7,150.5,512.7,150.8z M910.7,49.7c-0.9-0.9-0.9-0.9-2.1-0.9
		C909.1,49.4,909.7,49.8,910.7,49.7z M790.4,33.3c0.7,0.1,0.9,0.3,1.4-0.2C791.3,32.6,791.1,33,790.4,33.3z M774.9,34.9
		c0.1-0.3,0-0.4-0.2-0.5C774.5,34.6,774.7,34.8,774.9,34.9z M472.1,83c0.5-0.2,0.3-0.4,0.1-0.7C471.7,82.5,471.9,82.7,472.1,83z
		 M633.3,32.9c0-0.1,0-0.2,0-0.2c-0.4-0.1-0.8-0.2-1.1,0.1C632.5,33.1,632.8,33,633.3,32.9z M461.5,99.1c0.9-0.4,1-0.2,1.1-0.9
		C461.9,98.1,462.1,98.3,461.5,99.1z M695.4,29.4c-0.1-0.1-0.1-0.2-0.2-0.3c-0.2,0.2-0.2,0.4,0,0.7
		C695.2,29.6,695.3,29.5,695.4,29.4z M487,93.6c-0.1,0-0.2,0.1-0.3,0.1c0.2,0.2,0.3,0.2,0.5,0C487.1,93.6,487,93.6,487,93.6z
		 M800.4,33.4c-0.1,0-0.2,0.1-0.3,0.1c0.1,0.2,0.3,0.1,0.4,0.1C800.5,33.6,800.4,33.5,800.4,33.4z M634.1,35.2
		c0.5,0.1,0.7,0.4,0.9,0C634.9,35,634.6,35.2,634.1,35.2z M774.1,266.4c0,0,0-0.1-0.1-0.1c-0.1,0.1-0.1,0.2,0,0.3
		C774,266.4,774,266.4,774.1,266.4z M896.4,55.8c0.1,0,0.1,0,0.2,0.1c0-0.1-0.1-0.1-0.1-0.2C896.4,55.7,896.4,55.7,896.4,55.8z
		 M506,38c-0.1,0.2-0.2,0.3,0,0.5C506.2,38.3,506.3,38.2,506,38z M787.7,31.6c0.1,0,0.1,0,0.2,0.1c0-0.1-0.1-0.1-0.1-0.2
		C787.7,31.5,787.7,31.5,787.7,31.6z M546,121.6L546,121.6l0.1,0.1L546,121.6z M515,147.4c0-0.1-0.1-0.2-0.1-0.3
		c-0.3,0.2-0.4,0.3-0.1,0.6C514.9,147.6,515,147.5,515,147.4z M467.9,62.8l0,0.1l0.2,0L467.9,62.8z"/>
	<path d="M809.1,393.3c4.1,2.1-1.9-9.1,4.1-16.5c0,0.9,0,1.5,0,2.1c8-8.8,22.1-5.8,29.2-15.8c-1-2.8,0.9-4.5,3-6.1
		c0.7,0.9,0.4,2.3,1.5,3c0.1-0.7,0.5-1.1,1.2-1.4c-0.7-1.1-0.7-1.7-0.1-2.8c3.6,1.5,3.6-5,7.1-6.5c1.3-0.1,1.7-0.2,2.2-1.8
		c1.6,0.3,1.9,0.6,2.8-0.9c1.9,1,3.3,2.4,3.7,4.8c1.4-2.2,6.6,1.8,4.1-2.4c0.5-1.9,3-3,3.2-4.8c0.6-5.4,9.4-0.9,8.4-5.8
		c-4.7-2.6,3.5,0.3,5.3,1.5c2.5,1.6,5-0.9,6.5,1.8c0.3-0.6,0.5-1.1,0.8-1.7c0.6,0.4,1.1,0.7,1.7,1.1c-6.6,7-6.8,12.5,3.1,16.9
		c2.1,0.7,3,4.7,6,3.1c7.4-6.8,3.8-19,10-25.7c2.2,4.2,1.8,9.1,2.7,13.9c7-1.8,3.5,11.2,5.5,14.9c-0.1,5.9,7.6,3,8.3,15.4
		c0.3-0.4,0.6-0.7,0.8-1c3.4,1.2,0.6,3.7,2.7,5.9c8.4,9.7-0.5,26.5-9.1,33.9c-12.7,12.2-12.2,16.6-29,23.4c-1.2-0.4-2.1-1.4-2-2.7
		c-0.5,0.2-0.9,0.4-1.4,0.6c1.3-1.3,0.7-2.8-0.6-1.3c-3,3.8-7.7,1.5-11.1,0c-5.2-1.4,3.4-10.7-4.3-9.1c5-8.3,1.1-2.9-3.2-1.6
		c2.6-2.4,5.5-5.4,6.8-9.2c-19.6,16.9-3.8,0-15.6-3.1c-6.9-3.7-15.1,0.8-22.7,1.8c-9.8,3.4-4.8,6.8-15.2,5.1
		c-7.6,0-14.3,8.7-20.7,1.8c7.2-7.7,5.9-20.2,3-30.5C808.5,394.1,809.6,395.3,809.1,393.3L809.1,393.3z M879.1,427.9
		c-0.3,0-0.6-0.2-0.7,0.3C878.8,428.3,878.9,428.4,879.1,427.9z"/>
	<path d="M327.8,41.5c0.7-0.8,0-1.4,0.3-2.5c-1.6,0-2.7-1.2-4.3-1l0.1,0.1c-0.5-0.5-1.5-0.3-1.7-1.5c2.6-0.8,5,0.4,7.4,0.8
		c0.5-2.5-3.3-1.4-3.2-3.8c-4.6,2-6,1.6-3.5-2.9c1.6-0.2,2.9-3.5,1.3-4.4c-0.4-0.1,0-1.1,0.5-1.3c-2.1-9.3-22.3-0.8-23-5.9
		c-0.8-0.7-2.2-0.1-2.9-1c1.9-1.4,4.7,0.3,6.5-1.6c1.5,0.8-5.5-0.2-6.7-1.6c3.4-3.6,19.2-0.6,20.8-5.1c-10.1-1.3,23.6-6,28.2-5.5
		c0,0.6,0.4,1.2-0.2,1.4c2.2-2.2,4-0.6,6.9-0.4c-0.1-0.4-0.2-0.8-0.4-1.3c3.7-1.2,7.5,1.5,11.2,1.2c-0.9-1.4-3.8-0.1-3.9-2.1
		c16.7-1.4,34.4-3.2,51.2,0.5c-2.9,1.1-5.7,0.5-8.5,1.1c0.2,3,9.2-3.4,5.6,2.2c-0.4-0.4-0.8-0.2-1.2,0.1c7-1,14.5-3,21.7-1
		c-4.1,1.2-8.1,1.8-12.3,2.1c0.9,0,1.9,0.1,2.8,0.1c-5.6,2.7-10.3,3.3-14.1,7.5c1.1,0.2,1.2,0,0.9-1c1.6,0.9,3.5-0.2,4.9,1.4
		c-1.1,0-1.8,0-2.8,0.1c4.9,2,4.5,0,2.2,4.5c-0.2-4.8-5-1.5-7.5-1.9c1.1,0.4,1.8,2,2.7,0.4c2.1-0.2,3.9,3.9,1.3,4
		c-3.2-1.3-0.3,1.4,1.2,1.8c0,0-0.1-0.1-0.1-0.1c-0.8,1.5-3,0.7-4.4,1.4c1.4,4.3-7.1,1-8.8,1.5c2.3,1.9,6.1,0.7,3.7,4.3
		c-1.9-0.2-6.9-1.4-2.8-3.3c-1.7-0.1-2.8-1-4.1,0c1.9,2,4.6,4.3,7.2,5.5c-0.4,1.1-0.1,2.1-0.8,3.1c-9.1,0.5-2.9-6.7-11.1,0.3
		c3.2-0.5,5.8,1,9.2,0.6c-5.4,2.9-19.8,8.2-25.4,5.6c-3.3,4-12.2,9.3-17.6,8.2c-3,0.8-6.1,2.2-8.4,2.8c2.3,2.5-4.1,7.5-7.1,7.6
		c-7.7,19.4-9,2.9-17.2,7c-0.6-2.1-1.6-4.5-3.1-6c0.7-2.7-1.8-4.9-1.3-7.4c2-3.2-3.2-4,0.2-6.8c-0.5-6.1,8.5-5.8,11.3-8.1
		C328.5,41.4,328.2,41.5,327.8,41.5z M386.2,38.5c-0.2,0-0.3,0-0.5,0c0.1,0.3,0.8-0.3,0.6-0.4C386.3,38.3,386.2,38.4,386.2,38.5z
		 M384.8,36.7C383.5,36.9,384.3,38,384.8,36.7C386.4,36.9,384.9,35.4,384.8,36.7z M307.9,16.5c1.4,0.8,1.4,0.8,1.9-0.2
		C309.2,16.3,308.8,16.4,307.9,16.5z M390,5.2c0,0.1,0,0.1,0,0.2c0.5,0,1-0.1,1.5-0.1c0,0,0-0.1,0-0.1C391,5.2,390.5,5.2,390,5.2z
		 M395.4,4.7c0,0.1,0,0.1,0,0.2c0.4,0,0.9,0,1.3-0.1c0,0,0-0.1,0-0.1C396.3,4.7,395.8,4.7,395.4,4.7z M402.5,25.9
		c-0.3,0.2-0.5,0.4-0.3,0.7C402.5,26.5,403.2,26.1,402.5,25.9z M330,38.8c-0.2,0.2-0.3,0.3-0.4,0.4C330,39.9,330.6,39.2,330,38.8z
		 M325.5,30c-0.1-0.5-0.4-0.3-0.7-0.2C324.9,30.3,325.1,30.3,325.5,30z M400.9,6.1c0,0,0-0.1,0-0.1c-0.2,0-0.4,0-0.7,0
		c0,0.1,0,0.1,0,0.2C400.4,6.2,400.7,6.1,400.9,6.1z M355.9,50.6c-0.4,0.6-0.1,0.7,0.3,0.2C356.1,50.8,356,50.7,355.9,50.6z
		 M344.6,57.4L344.6,57.4L344.6,57.4L344.6,57.4z M322.6,56.3c-0.6-0.4-0.6,0-0.2,0.3C322.4,56.5,322.5,56.4,322.6,56.3z
		 M320.9,56.7c-0.1-0.1-0.1-0.2-0.2-0.3c-0.3,0.1-0.1,0.3,0,0.4C320.8,56.8,320.8,56.7,320.9,56.7z M375.4,3.5c-0.1,0-0.1,0-0.2,0.1
		c0,0.2,0.1,0.1,0.2,0.1C375.4,3.6,375.4,3.5,375.4,3.5z M366.7,4l0.2,0.1l0-0.1L366.7,4z M389.8,34c-0.1,0-0.2-0.1-0.2,0.1
		C389.7,34.1,389.8,34.1,389.8,34z M328.1,33.9c-0.1,0-0.1,0-0.2,0c0.1,0,0.2,0.1,0.2,0.1C328.2,34,328.2,34,328.1,33.9z M412.3,10
		c0.1-0.1,0.2-0.1,0.3-0.2c-0.1-0.2-0.3-0.1-0.5-0.1C412.2,9.8,412.3,9.9,412.3,10z"/>
	<path d="M916.7,327.5c-5.9,6.8-11.6-4.7-18.9-1.2c9.4-11.5-3.9-12.7-12.7-17.9c-3,4.8-2-1.9-4.9-3c1-1.7,5.8-0.1,5.8-2.3
		c-4.4,1-8.1-1.8-10.4-4.9c5.5-1.3,6-2.8,11.3-0.5c1.6,1.9-1.3,6.4,1.7,6.7c3.4,9.3,7.2-8.4,13.7-2.7c11.1,3.1,23,10.8,29.4,16.8
		c1,1.9-1.3,1.9-2.6,1.8c0.5,2.8,3.7,8.7,6.5,8.4c-0.1,1.8,0.6,2.1,2.3,2.3c-1.3,0.8,5,5.7-0.8,3.2c-2.1-1.6-6.4,0-7.7-2.6
		c-3.5-5.9-7.5-10.4-14-5.3C916,326.7,916.3,327.2,916.7,327.5z"/>
	<path d="M827.6,309.8c-0.5-0.7-0.7-1-1-1.4c-1.5,0.8-2.7,1.3-4.2,2.1c-0.1-2.1-0.9-3.8-3.1-2.5c-1.5-2.5-3.8-0.3-6.1,0.1
		c-0.1-3.3-3.2-1.2-5.4-2.2c-0.4-2.4-0.5-4.5-1-6.8c-0.5,0.1-0.9,0.2-1.3,0.3c-2.6-6.5-4-14,5-10.8c1.5-9,5.5-0.6,9.5-10.9
		c1.4-1.4,4.5-1.1,4.8-2.5c0.9-3.1,6.4-10.2,7.2-2.8c3.3-0.6,8.5,4.5,1.9,3.9c0.7,0.7,1.1,1.3,1.6,1.8c-6.7,2.2-1.6,9.9,1.5,13.2
		c-3,0.6-5.9,1-4.7,5.2c0.7,1.5-1.5,2.2-2.5,3.1C827.8,302.3,828.2,306.3,827.6,309.8z"/>
	<path d="M260.4,8c3.7-2.5,8.1-1.4,11.4,1.4c1.3-1.3,3.1-0.6,2.1,1.3c5.2,0-1.8,3.1,3.5,1.3c0.4-1.3-1-1.3-1.9-1.6
		c1.7-2.8,7-1.2,9.3,0.4c0.2-0.2,0.3-0.4,0.4-0.7c-0.9-4.4-12.2,1.7-13.3-4.5c20.3-1.8,40.7-4.6,61.2-1.6
		c-11.3,3.1-24.7,6.2-36.6,7.5c2.6,1.1-0.9,1-1.9,0.8c0.4,0.3,0.8,0.5,1.2,0.6c-3.7,3.4-10.1,1.9-14,4.8c3.8,0.8,0.2,1.8-1.8,1.7
		c-8.2,1.3-18.1-1.5-25.6,1c5.1,4.9,15.1-2.2,21.1,2c-7.7,5.1-19.8,2-29.3,1.9c5.9-8.5-0.4-1.5-3.8-5.9c3.7-1.8,9,0.2,12.8,1
		c2.1-2,6-1.3,9-2.1c-0.2-4.6,4.6-0.2,6.5-0.4c0.3-3.4-4.6-1.1-2.3-3.4c-0.3-1-1,0.1-1.5,0.3c-4,2.1-17-0.3-6.6-2.3
		C253,13,253.9,8.4,260.4,8c0.1,0.3,0.2,0.4,0.5,0.1C260.7,8,260.6,7.9,260.4,8z M291.4,7.7c-1.3,0.3-2.5,0.6-3.8,0.8
		c2.2,0,4.4-0.5,6-1.2C292.9,7.5,292.2,7.6,291.4,7.7z M278.8,13.3c-0.4-0.7-0.7-0.8-1.4-0.5C277.9,12.9,278.3,13.1,278.8,13.3z
		 M321.3,6.2c0.2-0.1,0.3-0.1,0.4-0.1c-0.2-0.1-0.4-0.2-0.7-0.1C321.1,6.1,321.2,6.1,321.3,6.2z M277.7,16.5
		c-0.3,0.4,0.2,0.8,0.4,0.3C278,16.7,277.9,16.6,277.7,16.5z M271.4,12.8c0-0.2-0.3-0.1-0.4-0.1C271,13,271.2,12.8,271.4,12.8z
		 M281.2,6.8c-0.1,0-0.1,0-0.2,0c0,0.2,0.1,0.1,0.2,0.1C281.2,6.9,281.2,6.9,281.2,6.8z M283.5,4.9l0-0.1l-0.2,0.1L283.5,4.9z"/>
	<path d="M606.6,354.8c-0.4-0.7-0.7-1.2-1.1-2c0.7,8.6-15,57.3-21.4,30.3c-2.8-4.7-0.1-7.7,2.3-11.7c1.7-5.2-1.6-10.3,1.5-15.5
		c3.4-0.2,6.1-3.4,9-3.3c-0.1-1.4,0.8-2,1.8-2.3c0.7-1.6,1.3-2.8,1.2-4.6c3.7,1.2,2.6-3.7,4.4-5.5
		C606.3,342.1,609.3,353.1,606.6,354.8z"/>
	<path d="M177.3,30.8c-5.6,1.1-10.3,4.7-16.1,4.5c0.4-1.7-0.7-2.1-2.2-2.8c7.9-3.3,14.6-10.3,23.8-6.4c1.9-0.6,6.5-0.4,5.3,2.4
		c2.8-0.2,2.1,1.7,0,2c0,0.1,0,0.1,0.1,0.2c1.5-0.6,6.5-2.4,6.4,0.3c3.3-0.2,7.3-3.5,4.4,2.5c3.6-0.7,4.6-7.5,9.5-4
		c-0.6-2.7,2.3-2.8,4.9-1.8c-4.4,2.8-12.6,8.7-3.4,10.7c-1,2.9-2.9-0.1-4.8,1.5c2,3.8-10.4,3.2-10.6,0.6c-1.7,1.3-22.7,6.3-18.3,0.9
		c-13.8-1.8,3.2-4.6,8.5-3.5c-1.2-2.8-10.4,0.4-12.7-1.7c1-1.8,4.9-0.9,6.4-2c-2.1,0.2-3.6,0.6-5.3-0.7c2.5-2.2,5.1-2.5,8.6-3.9
		C179.9,29.7,178.6,30.4,177.3,30.8z M185.6,29.1c0-0.1,0-0.1,0-0.2c-0.2,0-0.4,0-0.6,0c0,0,0,0.1,0,0.1
		C185.2,29.1,185.4,29.1,185.6,29.1z M183.6,29.5c-0.1-0.1-0.1-0.1-0.3-0.1C183.4,29.5,183.5,29.5,183.6,29.5z M203.6,40.3
		c-0.2-0.1-0.3-0.3-0.5-0.1C203.3,40.4,203.5,40.6,203.6,40.3z"/>
	<path d="M781.9,289c-0.1,2.1,2.8,1.2,2,3.6c3,0.7,2.3,2,1.6,3.9c4,6.6,10.5,9,6.9,20.1c-1.6-1.3-1.8,0.1-3.7-1c0,0.3-0.1,0.6-0.1,1
		c-10.9-7.4-13.6-21.4-21.8-30.3c-0.6-3.7-12.8-10.3-8-12.7c6.7,1.4,9.6,5.3,14.6,10c1.4,2.6,3.1,3.1,5.8,3.3
		C779.7,288.5,780.1,289,781.9,289z"/>
	<path d="M855.2,171.1c-0.7,1.8-2.7-0.2-3.4-1.5c12.1-17.2,15.2-0.6,17.2-15.8c1.6,7.3,7.7-4.3,4.8-7.9c-1.9-1.8-2.2-3.5-2.1-6.1
		c0.8,1.7,4.2,0.9,1.7,0.3c-1.8-0.7,0.1-1.4,1.1-0.6c1.9,3.9,7.1,5.7,5.8,11c-1.3,0.3,1.7,8.6,2.7,9.7c0.2,2.6-2.2,4.8-1.9,0.9
		c-0.7,0.1-0.7,0.1-0.9,1.2c-2.4-0.5-0.1,1.4-1.2,2.3c-2-3-3,2.2-7.1-1c-0.7,0.9,0.6,1.5,1.1,2.1c-1.7,3.9-5.4,4.3-4.8-0.9
		c-4.9-1.4-8.2,2.7-12.7,2.5c0.2,1.3,1.4,1.2,2.5,1.1c1.5,2.8,3.4,6.7,0.5,9.6c-0.3-0.7-1.1-2.2-0.9-0.6
		C854.4,177.2,857.3,172.2,855.2,171.1C854.9,169.7,853.8,171,855.2,171.1z"/>
	<path d="M434.7,97.1c-0.3,0-0.6,0-1-0.1c0.3-0.6,0.5-1.1-0.1-2c6.2,2,4.1-1.6,3.8-5.2c-1.4,0.1-2.9,0.3-4.6,0.4
		c1.8-3.3,2-4.3-1.4-2.3c0.4-1.5,0.3-2.5,1.2-3.9c-4.5,1.6,1.1-1.3-2.9-3.3c3.6,0.3,4.4-5.8,10.1-4c-5.5,4.7-0.1,1.8,3.1,3.6
		c-1.6,2.1-2.3,4.1-4.6,5.3c3.4-1.2,9.7,8.4,9,11.4c1.5-0.9,4.7-0.8,4,1.7c-0.5,1.7-4.6,3-1.1,3.9c-1.3,3.2-6,0.6-7.6,2.5
		c-4.5-1.5-8.6,1.9-12.7,1.9c2.5-2.8,5-3.8,8.1-4.9C425.9,100.6,435.6,101.2,434.7,97.1z"/>
	<path d="M971.1,447.4c0.7,0.5,0.9,1.2,0.6,2.1c1.2,0.2,2.2-1.2,3.4,0c-2.1,4-10.4,6.1-11,9.9c-9.8,0.3-15.3,14.7-25.7,8.9
		C946.1,458.8,962.3,456.9,971.1,447.4z"/>
	<path d="M836.5,308c4.8-30.1,7.8-9.6,20.5-19.7c1.7,9.3-12.4,2.5-16,5.5c-2,3.1,2.3,8.8,4.5,4.3c10.5-2.2,5,0.2-0.5,4.1
		c3.4,2.3,1.5,7.8,5.5,8.1c-1.8,0.6-4.8,4.2-5.7,1.7c1-2.6-3.1-3.2-1.1-6.2c-3.9-3.9-1.9,7.3-2.9,9.7
		C833.9,318.9,842.4,306.9,836.5,308z"/>
	<path d="M404,51.7c0.4-1,1.3-0.3,2,0.1c0.7-0.5,1.4-1.1,2.3-0.4c1.8-2.6,2-0.1,4-0.6c9.6,8.6-15.4,10.4-21,7.9
		c4.5-0.7,0.8-3.7-2-2.8c0.8-0.9,2.9-0.9,4.1-0.9c-0.1,0-0.2,0-0.3-0.1c0.2-0.4,0.5-0.8,0.8-1.2c-1.7-1.1-3.3,0.9-4.9-0.3
		c1.4-0.7,2.5-3.1,4.2-1.6c0-0.1,0.1-0.1,0.1-0.2c-0.2-0.1-0.3-0.3-0.5-0.1c0.9-2.9,4.1,0.4,3.6,2.4c1.5-1.1,2.6-0.3,2.9-2.5
		c0.6,0.5,1.1,0.8,1.5,1.2c1-1.3,2.4-1.8,3.4-0.5C404.1,51.9,404.1,51.8,404,51.7z"/>
	<path d="M575.9,34.2c0.2,0.6,0.3,0.9,0.4,1.3c-0.9-0.3-1.7-0.3-2-1.3c-6.6-0.7,1.3-2-1.2-4c0.8-1.1,4.1-1.8,1.8-2.8
		c1.2-1,4.3-2.6,2.3-4.5c7.9-1,18.9-6.8,26.2-3.8c-8.2,1.6-34.5,10.1-16,17.4C583.6,37.8,578.9,37,575.9,34.2z"/>
	<path d="M290.6,110.3c-3.7,2.3,0.8,2.1,0,2.9c-1.1,0.6-2.7,1.6-2.4,2.9c0.8-0.7,1.4-1.2,2.1-1.8c0.5,0.8-0.5,1.1-0.7,1.7
		c3.1-0.7-0.1,4.1-2.1,3.4c0-0.3,0-0.6-0.1-1c-0.4,0.1-0.9,0.2-1.3,0.3c-0.3-1.3,2.3-2,1.1-3.5c-1.8,0.9-4.2,3.9-6.3,3.3
		c0.9-1.1,2.3-1.2,3.2-2.4c-1.2-0.7-2,1.6-2.5-0.6c-3.1,1.2-6.5,0.2-9.8,0.4c0.1-1.8,1.8-1.9,3.1-2.9c-0.5-0.3-0.8-0.5-1.2-0.8
		c5.5-1.2,7.8-11.8,14.3-10.3c-2.1,1.3-3.7,3.7-5.5,5.8c1-0.7,1.8-0.8,3-0.2c-0.5,0.5-0.8,0.8-1.3,1.2
		C286.3,111.1,289.1,107.7,290.6,110.3z"/>
	<path d="M815.7,322.1c-0.8,3.7,5,0,5.3,2.9c1,1,6.2,0,2.3,2.6c-1.4-0.8-3-2.4-2.5,0c-10.1-2.5-21.3-2.8-29.5-7.1
		c3.5-9.7,13.4,5.5,17.8-1.5c3.1,2.2,6.8,1.7,10.4,1.8C818.7,321.8,818.7,321.8,815.7,322.1z"/>
	<path d="M991.3,442.2c-5.3-1.8-9.8,11.3-15.5,7.8c7.7-3,0-6.7,4-8.4c8.2-3.6,4.7-11.2,6.2-17.5c5.5,5.7-0.1,5.9,2.3,10.3
		c4.5-4.7-4.2,6.4,8.2,1.9C995.1,439,992.6,439.6,991.3,442.2z"/>
	<path d="M431.9,91.2c-4,2-0.9,5.7-4.1,8.3c-5.6,1.7-15.2,4.9-7.6-3.4c-0.7-0.4-1.3-0.7-2-1.1c0.8-4.3,1.8-2.3,5-3.7
		C422.2,87.3,431.1,87.3,431.9,91.2z"/>
	<path d="M188.9,211.7c1.3,2,5.9,2.8,7,5c1.7-0.1,2.9,0.9,4.2,2.1c-3.5,1.9-7.6,0.8-11.5,1.2c4.8-4.1-2.3-1.6-2.2-5.7
		c-2.9-1.5-7.4-2.1-10.6-3.6c0.3-0.2,0.7-0.5,1.1-0.7c-4-2.2-6.3,3.2-9.9,2.4C171.9,204.3,182.3,208.4,188.9,211.7
		C188.9,211.7,188.9,211.7,188.9,211.7z"/>
	<path d="M478.8,13.8c-0.3-0.3-0.6-0.7-1-1.1c0.2-0.1,0.3-0.3,0.5-0.4c-4.3-1.8,2.6-2.3,4.4-2.2c-0.2,0.4-0.3,0.7-0.5,1.2
		c3.4-0.9,2.7-1.3,5.5,0.7c-0.8-6.3,14.7,4.4,18.5,3.6c-2.8,2.3-4.6,0.9-7.5,1.1c-0.6-7.4-7.2,1.1-10,2.4c-0.8-1-7.9-1.8-4.1-2.9
		c-1.4-0.3-1.4-0.3-2.2-0.9c1.8-0.7,3.8-0.5,5.6-1.5C484.7,13.1,481.8,15.5,478.8,13.8z"/>
	<path d="M850.1,242.8c-2.4,1.4,1.8,2.4,1.2,4.2c-0.9,1.9-7.3-8.7-5.3-2.2c-1.2-3.6-9.4,0.2-5.9-4.8c-0.3-0.3-0.6-0.5-1-0.8
		c-0.2,0.4-0.4,0.8-0.6,1.1c-2.1-1.3-2.8-4.5-3.2-6.9c0.6,0.3,1.2,0.5,1.9,0.8c-0.9-5.8-2.2-10.9,5.1-8.7c3.4,9.6-2.8,7.5-0.3,13.6
		c0.1,5.2,4.1-0.3,5.4,3.6C848.5,242.1,848.7,242.2,850.1,242.8z"/>
	<path d="M852.3,264.3c1.1-0.8,0.8-1.9,2.3-1.8c0-1.6,1.2-1.5,2.6-1.7c-0.2-0.9-0.4-1.7-0.6-2.6c4.3,1.9,5.2,8.4,3.4,12.5
		c-3.1-7.8-0.9,1.9-2.4,3.3c-7.7-3.5-2.2-5.3-6.4-8.4c-0.5,1.4-2.4,1.5-3,0.1C842.1,275.3,849.4,256.3,852.3,264.3z"/>
	<path d="M881.2,131c0.4,0.5,0.8,0.9,1.2,1.5c-2.1,1.6-5,0.3-3.9,4.3c-3.3-1.3-14.7-3.5-6,0.8c-1.1,0.4-1.5,0.6-2.2,1.6
		c-2.3-2.6-2.6-4.1-3.2-7c1-0.3,1.8,0.8,2.8,0.1c-0.7-3.1-2.3-5.4-3.8-7.9c3.9,0,9.5,7.7,13.4,4.4
		C880.2,129.4,879.9,130.7,881.2,131C881.2,131,881.2,131,881.2,131z"/>
	<path d="M848,99.2c0.8-1.6-4.4-4.6-1-4.2c0-0.5-0.1-1-0.1-1.5l0,0c6.1,4.9,11,11.1,17.1,16.6c-7.8-0.5,2.2,8.8,5.2,10.3
		c-2.4-0.5-4.1-1.4-3.3,1.5C859.5,115.2,856.1,104.6,848,99.2z"/>
	<path d="M199.8,19.2c4.5-0.6,6.9,4.3,11.2,2.6c-0.1-0.3-0.2-0.6-0.5-0.8c0.8-0.2,1-0.5,0.7-1.4c1.6-0.2,3-1.2,4.8-1.2
		c-2.1,4,1.1,1.8,3.6,2.4c-6.1,4.6-16.8,3.7-24.2,4.2c1.1-2,4.5-0.3,6.2-1.9c-3.9,0.2-7,0.8-10.8,0.1
		C193.1,21.1,197.2,20.9,199.8,19.2L199.8,19.2z"/>
	<path d="M216,222.1c-0.2,0.3-0.3,0.5-0.5,0.9c1.8,0.2,4.2,1.6,1.8,3.3c-3.6-1.5-7.5-0.7-9.3,2.3c-1.2-3-5.4-2.8-7.9-1.7
		c-6.9-5.6,11.7,3,2.4-6.2C206.1,218.4,212.4,220.7,216,222.1z"/>
	<path d="M889.1,456c-6.8,7.4-6.3-3.7-3.4-8.1c5,1.8,4.6,1.5,10,0.3C896.7,450.3,890.2,458.1,889.1,456c0.2,0.1,0.3,0.2,0.5,0
		C889.5,456,889.3,456,889.1,456z"/>
	<path d="M237.7,51.9c0.4,1.8-1.4,0.2-1.8,2c2.6-1,3.7,1.7,5.9,2.4c-1.1,2.8,1.7,0.8,2.1,2.7c-4.4,3.2-5.7-2.5-8-0.5
		c-2.2,1.2-4.2,2.6-6.8,2.7c0.3-0.7,0.5-1.2,0.7-1.7c-3.4,0-4.4-0.3-0.3-1.6C231.4,55.1,233.9,51.9,237.7,51.9z"/>
	<path d="M706.4,257.9c4.2,1.8,10.9,13.3,2.6,14.6C703.4,270.5,707.3,262.2,706.4,257.9z"/>
	<path d="M214.6,30.7c2.4-3.2,4.3,1.7,6.7-1.3c-3.1-2.3,9-4.1,9.6-1.9c-1.3,0.8-2.7,1.3-4.2,1.8c1.6,1.8,1.3-0.1,2.9,0.1
		C225.6,35.6,219.1,35.5,214.6,30.7z"/>
	<path d="M653.3,7.9c2.3,3.4,7.7,0.6,10.4,4.6c-4.9,1.4-10.3-0.9-15.3-1.3c2.7-3.6-4.1,1.6-5.5-1.4c1.1-0.2,1.1-0.6,0.1-0.8
		c0-0.6,1.3-0.4,0.7-1.4C646.9,6.2,650,6.7,653.3,7.9z"/>
	<path d="M774.6,21.9c0.3,0.5,0.5,0.9,0.8,1.4C754,27.5,749.9,16.9,774.6,21.9z M768.9,22.8c0.1-0.1,0.1-0.2,0.3-0.1
		C769.1,22.7,769,22.7,768.9,22.8C770.1,21.4,767.3,21.4,768.9,22.8z"/>
	<path d="M228.3,23.6c0.2-0.6,0.3-0.9,0.4-1.2c-7.6,0.9-4.8-7.1-0.4-1.1c0.7-4.2,5.2,1.8,3.8-2.3C244.4,17.6,235,24.9,228.3,23.6z"
		/>
	<path d="M835,211.8c-4.2-3-4.1-8.9-0.3-12C838.7,199.2,835.1,209.9,835,211.8z"/>
	<path d="M495.2,10.7c-1.3-0.4-3.4,0.2-3.6-1.7c6.3,0.6,12.3-1,18.5,0.9C505.9,12.8,499.6,12.1,495.2,10.7c0.3,0,0.7,0.2,1.3-0.2
		C495.8,10.6,495.5,10.7,495.2,10.7z"/>
	<path d="M944.9,313.3c-0.1-1-0.1-1.7-0.2-2.6c8.5,1.9-7.9,12.6-11,5.1C938.2,315.5,941.5,315.8,944.9,313.3z"/>
	<path d="M800.9,226.2c-11.4-1.4,6.6-13,2.7-3.2C803.5,224.7,802.1,225.3,800.9,226.2z"/>
	<path d="M199.9,19.2c-1.2-0.5-5.9,1.9-4.7-0.2c-2.2,0.6-5,1-6.7,2.4l0.1-0.1c-2-0.6-3.8-0.4-6.3-0.4c6.3-2.5,14.9-4.7,21.5-3.9
		C202.2,17.4,200.4,18.1,199.9,19.2z"/>
	<path d="M850,333.6c1.7-5.2,7.9-7.5,13.2-7.4C859.4,328.6,854.4,332.9,850,333.6z"/>
	<path d="M470.1,148c0-2.2,0.3-4.5-0.8-6.4C475.8,135.7,475.8,149.9,470.1,148z"/>
	<path d="M231.3,14c6.6-0.4-3.2-3.2,6.6-2.3c3.7,0.4,6.8,3.8,1.1,4C237.1,13.2,233.6,15.2,231.3,14z"/>
	<path d="M665.7,15c-1-3,2.4-5.3,4.1-2.3c1.3-1.3,5.7,0,7,1C673.4,14.8,669.3,15,665.7,15z"/>
	<path d="M866.1,165.9c0.4-0.4,0.6-0.6,1-1c-0.3,1.9,0.1,2.8-0.9,4.5c-1.9-1.2-2.9,0.1-3,2.1c-2.5-0.2-3.2-2.9-1.9-4.8
		C863.9,167.8,863.1,164.4,866.1,165.9z"/>
	<path d="M852.9,250.7c2.7,3.7,0.2-1.7-0.8-3c3.9-0.9,3.8,2.3,4.8,5.1c-3.8-0.3,0.2,2.7-1.9,3.8
		C854.2,254.7,851.9,253.2,852.9,250.7z"/>
	<path d="M222,14.1c-2.2-0.1-3,1.6-5,1.4c-0.1,1.7-5.9,2.1-7.1,0.9c2.1-2.2,5.5-0.8,8.2-1.7c-1.6-0.7-2.2,0-4-0.7
		C216.9,14.1,219.7,11.9,222,14.1z"/>
	<path d="M875.8,309.2c-2.6-2.3-5.8-1.1-8.4-2.1C864.7,304.5,878,304.5,875.8,309.2z"/>
	<path d="M985.4,378.3c-2.4,1.9-7.8-4.8-7.8-7.2C981,371.6,982.4,376.3,985.4,378.3z"/>
	<path d="M838.4,327.9c0.1-3.3,9.6-0.8,12.8-1.8C847.7,327.8,842.9,328.5,838.4,327.9z"/>
	<path d="M323.9,38c5.7,2.5-2.3,4.7-4.4,1.9C320.6,37.6,322,37.9,323.9,38z"/>
	<path d="M267.3,45.2C258,53.2,260.4,40.4,267.3,45.2L267.3,45.2z"/>
	<path d="M26.6,82.5c0-3.3,5-2.3,7.2-3.7l0,0C37.4,80.5,27.8,83.3,26.6,82.5c0.1-0.1,0.2-0.1,0.3-0.1C26.8,82.5,26.7,82.5,26.6,82.5
		z"/>
	<path d="M835.7,326.2c1,2.9-4.4,1.5-6.2,2.7c-2.6,0.1-0.7-3.1,1.3-2.6c0.6,0.6,1.2,1.8,2.2,0.8C830,324.4,833.9,326,835.7,326.2z"
		/>
	<path d="M880.6,35.3c-1.7,1.5-3.9-0.1-5.8,0.9C867.9,34.8,878.7,32.4,880.6,35.3z"/>
	<path d="M239,22c9.3-1.2,2.7,5.3-2.1,1.6C237.4,22.8,238.6,22.9,239,22z"/>
	<path d="M866.3,296.5c-0.5-1.7-0.8-3.4-0.8-5.2c0,0-0.1,0-0.1,0c1.9,0.7,1.4-2.5,3.4-2.5c1.1,1.4-0.3,2-0.9,2.8
		c1.8,1.7,1.3,2.3-1.1,1.4c-0.3,1.7,0.2,3,0.8,4.5C866.8,297.7,866.9,296.6,866.3,296.5L866.3,296.5z"/>
	<path d="M850,259.5c-0.4,2.4-3-0.1-3.3-1.8c1.2-0.6,1.5-1.6,1.3-3l0,0C851.7,250.5,848.1,258.4,850,259.5L850,259.5z"/>
	<path d="M78.4,93c-2.4,1.6-4.2,3.8-4.2,6.6C71.9,96.6,73.9,90.8,78.4,93z"/>
	<path d="M848,254.6c-1.2,1.2-1.1-0.3-3,0.6c-0.5-1.7,0.5-3.5-0.7-5.2C851.1,252.3,847.1,251.7,848,254.6z"/>
	<path d="M777.8,22c3.8,1.1,8,0.2,11.6,1.7C788.6,25.1,778.2,24.1,777.8,22z"/>
	<path d="M836.6,252.5c1.6,3.6-3.4,8.4-6.7,10.3C831.5,259.2,836.1,256.9,836.6,252.5z"/>
	<path d="M245.6,15.5c-1.2-3.8,4-2.5,6-1.5C250.4,16.3,247.7,15.4,245.6,15.5z"/>
	<path d="M791,302.5c2.8-5.1,2.5,1.4,5,1.9c0,0.7-0.1,1.3-0.1,2C792.6,306.2,794.3,302.7,791,302.5z"/>
	<path d="M185.7,226c1.9-1.8,5.2-0.7,6.7,1.4C189.6,227.6,187.8,228.5,185.7,226z"/>
	<path d="M841.3,332.5c-1.8,2.8-3.1-1.5-5.3-1.1C834.7,328.8,841,330.1,841.3,332.5z"/>
	<path d="M565,7.8c2.2-1.5,5.4-1.9,8.1-2.4c-0.9,1.1-1.2,2-2.8,1.9c0.4,0.2,0.7,0.3,1.3,0.5C569.2,8.9,567.5,8,565,7.8z"/>
	<path d="M472.2,139.1c-2.4-1.6-1.9-4.7,0.9-5.5C473.9,135.6,473.5,137.4,472.2,139.1z"/>
	<path d="M842,248.8c-1.8-1.2-1.9-3.3-3.4-4.4C840.9,242.3,844.2,246.7,842,248.8z"/>
	<path d="M550.9,161c-0.1,0.8-1.6,0.9-1,2C542.5,166.8,544.9,161,550.9,161z"/>
	<path d="M526,162.4c-2.6,2.1-5.7,0-8.4-0.2C517.2,159.5,523.8,162.7,526,162.4z"/>
	<path d="M780.1,28.8c-2.6,0.6-5-0.5-7.5-0.5C772.8,25.4,778.2,27.4,780.1,28.8z"/>
	<path d="M222.2,227c0-0.5-0.1-1-0.1-1.5C228.4,223.8,228.8,228.6,222.2,227z"/>
	<path d="M260.2,107.8c2.8-0.1,5.1,0.8,6.4,2.5C264.2,111.6,261.8,109.6,260.2,107.8z"/>
	<path d="M277.2,490.2c-0.3-1.5,0.9-2,1-3.4c1.4,0.3,2.6,0,3.3,1.5C280,489,278.9,490.4,277.2,490.2z"/>
	<path d="M954.8,315.3C962,320,955.6,323.3,954.8,315.3L954.8,315.3z"/>
	<path d="M647.8,479.4c0.7-0.2,1.5-0.4,2.2-0.6c0.8,1.7-1.1,0.6-1.7,1.4c0.2,0.2,0.4,0.3,0.6,0.5
		C643.1,482.7,645.3,474.7,647.8,479.4z"/>
	<path d="M862.2,306.3c0.9,0,2.2,1,1.8,1.9C862.2,311,857.6,306.2,862.2,306.3z"/>
	<path d="M571.8,41.4c-1.1,1.5-3.2,2.1-4.4,0.8C566.3,39.7,570.5,40.4,571.8,41.4z"/>
	<path d="M850,311.6c1.2,1.1-1.2,1.7,0.3,3.3C847.3,317.8,846.4,312,850,311.6z"/>
	<path d="M231.6,64.2c0.5-2.5,3.8-1.9,6-2.5C236.2,63.5,233.8,64.7,231.6,64.2z"/>
	<path d="M876,337.4c0.2,2.4-2.9,2.1-4.6,1.7C871.7,336.7,874.4,337.2,876,337.4z"/>
	<path d="M553,9.6c-1-0.4-0.3-1.3-0.8-1.8c2.4,0.9,4.3-1.2,6.7,0.4C557.2,8.6,554.8,9.1,553,9.6z"/>
	<path d="M888.6,316.9c0.3,0.9-1.8,4.9-2.5,3.1C886.1,318.7,888.1,313.2,888.6,316.9z"/>
	<path d="M581.4,8c-2,0.9-3.6,1-5.7,0.4C577.1,6.7,578,6.7,581.4,8z"/>
	<path d="M259.9,122.3c-1.6-1.1-3.1-1-4.3-2.9c0.4-0.3,0.6-0.6,1.1-1c0.3,2.5,3.1,2.2,5.3,1.8C260.8,121.1,260.6,121.2,259.9,122.3z
		"/>
	<path d="M273.9,487.3c4.5-1.6,2.6,3.6-0.1,2.4C274.5,488.9,274.1,488.1,273.9,487.3z"/>
	<path d="M9.5,70.8c-0.3,2-4,2.3-4.8,0.7C6.2,71,7.8,70.3,9.5,70.8z"/>
	<path d="M231.5,84.9c-1.3,0.9-2.6,1.5-4.2,1.4C227.7,84.4,230,83.3,231.5,84.9z"/>
	<path d="M970,329.8c1.4,0.4,3.8,0.2,3.5,2.2C972,331.9,969.6,332.1,970,329.8z"/>
	<path d="M341,496.8c2.6-0.1,5.1,0.5,6.2,2.8C344.8,499,343.5,497.6,341,496.8z"/>
	<path d="M850,259.5c-0.6-2.3,0.9-4.1,1.3-6.2C852.7,255.9,850.3,257.1,850,259.5z"/>
	<path d="M137.6,298.3c0.4-0.6,0.7-1,1.1-1.5c-0.5-0.2-0.9-0.3-1.3-0.5c0.2-0.5,0.3-1,0.5-1.7C139.5,295.8,140.9,299.8,137.6,298.3z
		"/>
	<path d="M865.5,291.4c-1.1-1.3-0.2-3,1-4.7C866.9,288.9,867.4,289.9,865.5,291.4z"/>
	<path d="M252.8,16.2c-1.9,0.9-4.1,0.4-6.4,0.4C247.7,15.1,251.3,15.6,252.8,16.2z"/>
	<path d="M242.6,63.6c0.7,1.2-1.3,2.3-2.3,2.7C238.3,65.6,241.3,63.5,242.6,63.6z"/>
	<path d="M800.6,306.7c-1.6,0.3-2.5-1.3-1.2-2.3C800.8,304,801.9,305.7,800.6,306.7z"/>
	<path d="M869.8,430.2c0.6-1.5,3-1.7,4.3-0.7C872.7,430.5,871.4,430.4,869.8,430.2z"/>
	<path d="M239.9,254.1c0.7,1.4-0.1,3.5-2,2.6c0.6-0.8,0.7-1.4,0.5-2.5C239,254.2,239.5,254.2,239.9,254.1z"/>
	<path d="M967.1,323.2c1,1.1,4.1,1.7,3.5,3.4C968.4,325.5,967.7,324.9,967.1,323.2z"/>
	<path d="M947.7,309.2C952.1,310,948.6,315.4,947.7,309.2L947.7,309.2z"/>
	<path d="M976.1,331.1c-2-1.7-2.8-2.5-2.3-4.9C975.3,327.3,975.3,329.4,976.1,331.1z"/>
	<path d="M215.1,96.2C220.5,94.2,218.9,100,215.1,96.2C215.2,96.1,215.1,96.2,215.1,96.2z"/>
	<path d="M705.1,26.4c-2.1-1.6,2.5-1.7,2.9-0.6C707.5,26.8,705.9,26.2,705.1,26.4C705,26.3,705.1,26.4,705.1,26.4z"/>
	<path d="M451.7,145.9c0.7-1.3,1.9-1.3,3-0.4C454.3,147.4,452.8,146.9,451.7,145.9z"/>
	<path d="M188.9,202.4c0.4-0.8,0.7-1.4,1-2.1C191.9,201.5,190.3,204.3,188.9,202.4z"/>
	<path d="M766.4,292.7c-0.5-1.3-1.7-1.9-1.8-3.1C766.1,288.7,767.6,291.1,766.4,292.7z"/>
	<path d="M497.4,82.3c-1-1.3-0.2-3.1,1.4-3C499,80.6,498.9,80.8,497.4,82.3z"/>
	<path d="M827.3,328.2c-0.6-0.1-1-0.1-1.3-0.1C825.3,325.2,829.7,324.8,827.3,328.2z"/>
	<path d="M853.9,258c-0.9,0.4-1.5,0.8-2.5,0.6C851.2,256.8,853.6,255.8,853.9,258z"/>
	<path d="M188.5,21.4c1.6-0.3,3.2-0.6,5.1-0.9C192.5,21.6,189.2,23.1,188.5,21.4C188.6,21.3,188.5,21.4,188.5,21.4z"/>
	<path d="M936.6,60.4c-1.8-0.8-3.9,1.1-5.1-0.9C933.7,60,934.5,58.4,936.6,60.4z"/>
	<path d="M848.6,249.3c0-0.5-0.1-1.1-0.1-1.7c0.6,0.1,1,0.1,1.6,0.2c-0.1,1,1.3,1.2,1.3,2.4C850.1,250.3,849.9,248.6,848.6,249.3z"
		/>
	<path d="M771.3,300.9c-0.7,1.3-2-0.9-2-1.7C769.8,297.3,771.3,300,771.3,300.9z"/>
	<path d="M587.3,7.5c-1.6,0.7-3.1,0.5-4.7,0.3C584,7.3,585.9,6,587.3,7.5z"/>
	<path d="M990.2,350.5c1.3,0.8,2.4,2.9-0.1,2.9C989.7,352.5,990,351.6,990.2,350.5z"/>
	<path d="M621.4,247.7c-0.7,1-3.3,1.2-3.2-0.3C619.7,246.9,620.4,246.9,621.4,247.7z"/>
	<path d="M877.8,295.8c-1.2,0.5-2.2,1-3.1-0.3C875.4,294.4,877.3,294.5,877.8,295.8z"/>
	<path d="M612.2,29.6c-0.2-2,2.2-1.9,3.4-0.5C614.5,29.6,612.9,29.2,612.2,29.6z"/>
	<path d="M510.3,76.8c-0.5,1.3-1.7,1.2-2.8,1.7C506.1,76.8,509.1,76.7,510.3,76.8z"/>
	<path d="M876.5,324.8c-0.9-1,0.5-2.7,1.5-3.1C878.2,323.1,877.5,324,876.5,324.8z"/>
	<path d="M963.6,322.8c-1.9-0.5-2.4-1.6-3.2-2.9C962.2,319.9,962.5,321.5,963.6,322.8z"/>
	<path d="M975.6,333.4c1.1,0.4,2.1,0.7,2.6,1.9C976.6,335.5,976.2,335.2,975.6,333.4z"/>
	<path d="M963.5,324.9c0.5,0.8,1.3,1.4,1.5,2.6C963.6,326.7,959.8,324,963.5,324.9z"/>
	<path d="M747.9,249.2c-0.3-1.7-0.1-3.3,0.2-4.9C749.1,244.9,748.8,248.1,747.9,249.2L747.9,249.2z"/>
	<path d="M892.9,106.5c0.7-0.6,0.3-2.1,1.8-2.1C895.1,105.8,894.3,108.2,892.9,106.5z"/>
	<path d="M428.8,79.6c-0.5-1.4,0.8-1.9,2.1-2.3C430.8,78.6,430.8,78.6,428.8,79.6z"/>
	<path d="M33.8,78.9c1-1,2.6-1.7,4-1.3C37.3,78.9,34.7,78.6,33.8,78.9z"/>
	<path d="M572.5,7.8C578.7,9.8,567.9,9.7,572.5,7.8C572.6,7.9,572.5,7.8,572.5,7.8z"/>
	<path d="M886,124.8c-0.5,1-1.3,1.9-2.2,2.9C883.7,126.2,884.4,124.2,886,124.8L886,124.8z"/>
	<path d="M225.5,17.5c-0.4-2.2,2.2-2,1.9,0C226.8,17.5,226.2,17.5,225.5,17.5z"/>
	<path d="M889.1,75.7c-1,1.2-1.6,1.2-2-0.3C888.3,74.4,888.4,74.5,889.1,75.7z"/>
	<path d="M15.1,60.9c-1.2,0.3-2.2,0.5-3.2,0.8C12,59.9,13.9,60,15.1,60.9z"/>
	<path d="M410.4,23.4c0.5-0.8,2.2-1.2,2.5,0.2C412.1,23.5,411.2,23.9,410.4,23.4z"/>
	<path d="M624,374.7c-0.5,0.8-1.7,0.4-1.7-0.5C622.5,372.9,624,373.2,624,374.7z"/>
	<path d="M858.3,324.7c1.1-1.1,1.6-1.2,3.1-1C860.8,325.1,859.6,324.5,858.3,324.7z"/>
	<path d="M867.2,300.9c-0.9,0.4-2.1,0.7-2.3-0.4C865.4,299.6,866.6,300,867.2,300.9z"/>
	<path d="M828.7,88.9c0.7-0.2,2.4,1,1.3,1.6C829.4,90.2,827.6,89.7,828.7,88.9z"/>
	<path d="M857.7,301.5c-0.9,1.1-4.3,0.6-2.3-0.5C856.1,301.2,856.8,301.3,857.7,301.5z"/>
	<path d="M896,301.5c-1.5,0.6-2.5,0.2-3.7-0.5C893.6,300.9,894.6,300.9,896,301.5z"/>
	<path d="M267.3,45.3c1.7-0.4,1.7-0.4,3.3,0.3C269.7,46.5,268.1,46.1,267.3,45.3C267.3,45.2,267.3,45.3,267.3,45.3z"/>
	<path d="M256.8,17.2C257.9,14.2,262.4,17.9,256.8,17.2L256.8,17.2z"/>
	<path d="M391,187.3c-0.8,1.4-0.8,1.4-1.8,2c-0.2-0.3-0.3-0.7-0.6-1.2C389.4,187.9,390,187.7,391,187.3z"/>
	<path d="M897,446.9c-0.3-3.4,2.3-2.6,0.4,0C897.3,446.9,897.1,446.9,897,446.9z"/>
	<path d="M173.5,213.2c0.1,0.5-0.3,0.8-0.9,0.9C170.8,213.8,173,211,173.5,213.2z"/>
	<path d="M947.6,307.8c-1.5,0.4-2.7-0.9-3.4-2.1C945.3,306.4,946.5,307.1,947.6,307.8z"/>
	<path d="M550.4,7.9c-1,1-1.8,0.7-2.9,0.2C548.5,8,549.4,8,550.4,7.9z"/>
	<path d="M872.6,301.9c0.8-0.5,1.1-0.5,2-0.8C875,302.8,873.8,302.7,872.6,301.9z"/>
	<path d="M867.8,287.1c-0.2-1.2-0.1-1.6,0.5-1.9C869.4,285.5,869.1,286.4,867.8,287.1z"/>
	<path d="M249.8,60.6c-1,1-1.4,1-2-0.3C248.5,60,249.2,59.9,249.8,60.6z"/>
	<path d="M992.9,356.6c-0.3,0.2-0.7,0.3-1.1,0.5c-0.1-1-0.2-1.4-0.6-2.3C992.2,355.2,992.3,355.5,992.9,356.6z"/>
	<path d="M218.7,23.3c0.8-0.7,1.6-1.1,2.4-0.5C220.6,23.6,219.7,23.9,218.7,23.3z"/>
	<path d="M938.4,471.6c0.4-0.7,0.9-1.2,1.4-1.5C940.9,471,939.5,472,938.4,471.6z"/>
	<path d="M856.1,325.7c-0.3,0.9-1,0.7-1.8,0.8C852.7,325.5,855.2,325.4,856.1,325.7z"/>
	<path d="M279.1,65.4c0.7,1.4-0.1,2.3-1.2,1.2C277.9,65.9,278.8,66.2,279.1,65.4z"/>
	<path d="M928.3,302.9c0.8-1,1.7-1,2.3-0.5C930.2,303.3,929.4,302.8,928.3,302.9z"/>
	<path d="M526.1,147.6c-1,0.7-1,0.7-2.2-0.2C524.2,146.2,525.6,147.5,526.1,147.6z"/>
	<path d="M258.8,42.5c1-0.7,2.2-1.2,3.5-1.5C261.1,41.8,260.2,42.4,258.8,42.5z"/>
	<path d="M851.9,299.8c-0.6,1.2-1.4,0.6-2.1,0.5C849.7,298.9,851,299.3,851.9,299.8z"/>
	<path d="M760.1,283.9c0.6,0.5,1.2,1,1.9,1.6C761,285.4,758.9,284.7,760.1,283.9z"/>
	<path d="M469.4,282.2c0.6-0.7,1-1.1,1.5-1.6C471.3,282.1,470.8,283,469.4,282.2z"/>
	<path d="M564.4,8.6c-0.6,0.9-0.6,0.9-2,0.6C563.5,8.4,563.5,8.7,564.4,8.6L564.4,8.6z"/>
	<path d="M771.6,26.7c-0.9,0.2-1.6,0.3-2.1-0.7C770.9,25.8,770.9,25.8,771.6,26.7z"/>
	<path d="M572.1,316.8c0.1,0.6,0.9,1.5,0.4,1.9C571.7,318.7,571.6,317.6,572.1,316.8z"/>
	<path d="M843.1,168.8c0.3,1-0.8,1.1-1.5,1C840.9,169.1,842.5,168.3,843.1,168.8z"/>
	<path d="M236.1,15.4c-0.9,0.7-0.9,0.8-2.1,0.4C234.4,15.1,235.4,15.6,236.1,15.4z"/>
	<path d="M571.4,8.9c0.1,0.1,0.2,0.2,0.3,0.3C570,10.8,567.8,8.3,571.4,8.9z"/>
	<path d="M393,189c0.5,0.4,0.1,1.6-0.5,1.3C391.8,189.9,392,188.8,393,189z"/>
	<path d="M890.1,121.7c-0.5,1.1-0.5,1.1-1.3,1.7C888.4,122.7,889.2,121.2,890.1,121.7z"/>
	<path d="M630.3,370.1c0.6,0.9,0.2,1.8-0.7,1.7C629.1,371.2,629.7,370.5,630.3,370.1z"/>
	<path d="M247.5,9.8c1-0.4,1.7-0.5,2.5,0C249.2,10.8,248.5,10.4,247.5,9.8z"/>
	<path d="M854.2,196.1c0.1-0.8,0.2-1.6,1.1-1.9C855.4,195,854.9,195.8,854.2,196.1z"/>
	<path d="M229.9,484.7c-0.3-0.8-1.6-2.2-0.4-2.3C230.4,482.8,229.8,483.8,229.9,484.7z"/>
	<path d="M866.3,296.6c-1-0.1-0.2,0.9,0.1,1.3C864.4,298.1,864.4,295.2,866.3,296.6z"/>
	<path d="M531.4,157.8c0.1,1-0.3,1.4-1,1.6C530.1,158.4,530.1,158.4,531.4,157.8z"/>
	<path d="M846.8,93.5c-0.7-0.5-1.7-0.7-2-1.5C846.2,91.8,846.4,92.3,846.8,93.5z"/>
	<path d="M233.1,488.6c0.6-0.1,0.8,0.3,1.1,0.7C233.4,489.8,233.4,489.8,233.1,488.6z"/>
	<path d="M191.1,194.3c-0.6,0.7-1.2,0.7-1.8,0.6C189.8,194.2,189.8,194.2,191.1,194.3z"/>
	<path d="M430.1,64.6c0.7-0.5,0.7-0.5,1.3,0C430.9,65.1,430.9,65.1,430.1,64.6z"/>
	<path d="M639.4,7.1c-0.7,0.4-1.3,0.4-1.9-0.1C638.7,6.5,638.7,6.5,639.4,7.1z"/>
	<path d="M397.2,188.5c0.3-0.5,0.5-1,0.8-1.6C398.6,187.9,398.6,187.9,397.2,188.5z"/>
	<path d="M969.3,101c-1.2,0.5-1.3,0.8-1.8-0.6C968.6,100.6,968.5,100.5,969.3,101z"/>
	<path d="M203.5,18.5c0.7-0.4,1.3-0.6,2-0.2C204.6,18.7,204.6,18.7,203.5,18.5z"/>
	<path d="M851.2,243.7c-0.4-0.4-0.8-1.5-0.1-1.5C851.8,242.4,852,243.3,851.2,243.7z"/>
	<path d="M809.2,393.3c-0.7-0.6-0.9-1.4-0.3-2.1C809.8,391.8,809.3,392.8,809.2,393.3z"/>
	<path d="M635,30.3c-0.5,0.4-1.6,0.4-1.7-0.3C633.6,29.2,634.7,29.6,635,30.3z"/>
	<path d="M204.3,215.1c-0.4,1-1.1,0.9-2,0.7C202.8,214.7,203.5,215.1,204.3,215.1z"/>
	<path d="M190.7,205.6c-0.3-0.7-0.5-1.2-0.7-1.7C191.3,203.6,191.5,203.8,190.7,205.6z"/>
	<path d="M774.9,306.9c-0.4-1-1.3-1.4-1-2.7C774.3,305.1,775.2,305.5,774.9,306.9z"/>
	<path d="M240.6,239.4c0.5-1.2,1.6,1.4,0.4,0.8C240.8,240,240.7,239.7,240.6,239.4z"/>
	<path d="M801.1,280.7c-0.7-0.6-0.7-0.6-0.4-1.4C801.4,279.8,801.4,279.8,801.1,280.7z"/>
	<path d="M885.9,443.8c0.2,0.9-0.1,1.3-0.9,1.6C885.1,444.5,885.1,444.5,885.9,443.8z"/>
	<path d="M508.7,76.3c-1.5-0.7,0-1.7,0.8-0.6C509.2,76,509,76.2,508.7,76.3z"/>
	<path d="M240.7,233.5c-0.5,0.3-0.9,0.6-1.5,1C238.9,233.7,240.3,232.7,240.7,233.5z"/>
	<path d="M847.9,335.3c1.4-1.4,2.2-0.3,0.2,0.3C848.1,335.5,848,335.4,847.9,335.3z"/>
	<path d="M754.5,22.2c-0.2,0.7-1.2,0.1-1.3-0.3C753.3,21.2,754.5,21.9,754.5,22.2z"/>
	<path d="M940,304.1c0.5-0.6,1.5,0,1,0.6C940.5,304.9,940.1,304.7,940,304.1z"/>
	<path d="M859.2,301.6c0.3,0,0.6,0.1,0.9,0.1c0,0,0,0,0,0c0.1,0.5,0.1,1.1,0.2,1.7C859.5,302.9,859.9,302.1,859.2,301.6z"/>
	<path d="M939.8,329.8C942.2,331,939,331.8,939.8,329.8L939.8,329.8z"/>
	<path d="M838.8,249.4c-0.5,0.4-1.2,0-1.2-0.4C837.9,248.4,838.8,248.9,838.8,249.4z"/>
	<path d="M268.7,43.2c0,0.5-0.1,0.9-0.8,0.8C267.3,43.6,267.6,43,268.7,43.2z"/>
	<path d="M445.2,71.6c-0.8-0.1-1-1-0.4-1.3C445.6,70.4,445.3,71.1,445.2,71.6z"/>
	<path d="M747.8,249.1c0.2,0.6,0.5,1.1,0.1,1.8C747.2,250.3,747.2,250.2,747.8,249.1C747.9,249.2,747.8,249.1,747.8,249.1z"/>
	<path d="M788.6,295.7c0.2-0.3,0.3-0.5,0.5-0.9c0.3,0.2,0.6,0.4,1,0.7C789.7,296,789.2,295.6,788.6,295.7z"/>
	<path d="M524.1,149.7c0.6,0.4,0.7,0.8,0.3,1.4C523.9,150.7,523.8,150.3,524.1,149.7z"/>
	<path d="M908.2,89.3c-0.7,0-1.2-0.3-1.5-0.9C907.4,88.4,907.4,88.4,908.2,89.3C908.1,89.4,908.2,89.3,908.2,89.3z"/>
	<path d="M881.4,129.3c0-0.5,0.1-0.9,0.1-1.4c0.3,0,0.6,0,0.9,0C882.3,128.5,881.9,129,881.4,129.3
		C881.3,129.2,881.4,129.3,881.4,129.3z"/>
	<path d="M572.6,7.9c-0.3-1.2,0.9-0.9,1.3-0.2C573.5,8.1,572.6,7.9,572.6,7.9z"/>
	<path d="M252,60.3c-0.5,0-1.1-0.8-0.3-0.9C252.2,59.4,252.8,60.2,252,60.3z"/>
	<path d="M941,332.4c0.4,0,0.7-0.2,0.9,0.2C941.9,333.2,941.3,332.8,941,332.4z"/>
	<path d="M267.6,70.9c0.5-0.8,0.9-1,1.5-0.7C268.8,70.9,268.3,70.9,267.6,70.9z"/>
	<path d="M760.4,26.7c-0.4-0.1-0.8-0.3-1.4-0.5C759.8,25.8,760.1,26.3,760.4,26.7z"/>
	<path d="M265,41.5c-0.8-0.3,0.3-1.2,0.7-0.7C265.8,41.3,265.4,41.5,265,41.5z"/>
	<path d="M843.9,243.5c0.3,0.9,0.8,1,0.1,1.4C843.5,244.3,843.4,244.3,843.9,243.5z"/>
	<path d="M857.1,256c0.1,0.4,0.2,0.7,0.2,1.1C856.8,256.7,856.8,256.5,857.1,256z"/>
	<path d="M995.5,459.2c-0.3,0.4-0.6,0.7-0.8,1C994.6,459.3,994.6,459.3,995.5,459.2z"/>
	<path d="M995.2,364.7c0.3,0.6,0.8,0.9,0.2,1.3C994.6,366.1,994.9,365.3,995.2,364.7z"/>
	<path d="M581.9,5.7c-0.4,0.6-0.8,0.1-1.5,0.2C581.2,5.5,581.2,5.5,581.9,5.7z"/>
	<path d="M847.1,270c-0.7,0.6-0.9,0.6-1.3,0C846.2,269.4,846.4,269.5,847.1,270z"/>
	<path d="M752.7,267.8c0,0.3,0.3,0.8,0,1.1C752.4,268.6,752,267.8,752.7,267.8z"/>
	<path d="M872.3,152c-0.5,0.5-0.6-0.2-0.9-0.5C871.6,150.8,872,151.7,872.3,152z"/>
	<path d="M278.5,20.6c-0.2,0.7-0.6,0.6-1.1,0.6C277.7,20.6,278,20.5,278.5,20.6z"/>
	<path d="M508.1,151.6c-0.7-0.3-1.2-0.3-1-0.9C507.8,150.4,507.8,150.9,508.1,151.6z"/>
	<path d="M514.7,12.8c-0.4,0-0.8,0-1.1,0c0,0,0-0.1,0-0.1c0.4,0,0.8,0,1.1,0C514.7,12.7,514.7,12.8,514.7,12.8z"/>
	<path d="M987.3,373c0.3,0.4,0.2,0.8-0.1,1.2C986.6,373.9,986.6,373.2,987.3,373z"/>
	<path d="M934.1,96.5c1.8,0.3,1.3,1.4-0.2,0.3C934,96.7,934.1,96.6,934.1,96.5z"/>
	<path d="M500.5,71.2c0.2-0.4,0.6-0.3,1-0.4C501.6,71.5,500.8,71.5,500.5,71.2z"/>
	<path d="M932.3,316.5c-0.2-0.4-0.5-0.7,0.1-0.9C932.5,316.1,933,316.3,932.3,316.5z"/>
	<path d="M990.7,335.1c-0.3,0.2-0.4,0.5-0.7,0.2C990.2,335.1,990.3,334.8,990.7,335.1z"/>
	<path d="M585.1,338c0.1,0.4,0.3,0.9-0.1,1.2c-0.4-0.4-0.3-0.8-0.2-1.3C584.9,338,585,338,585.1,338z"/>
	<path d="M948.1,337.7c0.7,0.1,1,0,1.1,0.6C948.5,338.5,948.5,338.3,948.1,337.7z"/>
	<path d="M994.1,356.3c-0.1-0.1-0.2-0.3-0.3-0.4C994.1,355.4,994.8,356,994.1,356.3z"/>
	<path d="M993.7,361.9c-0.6-0.7-0.3-0.7,0.2-1.1C994.4,361.3,994.1,361.5,993.7,361.9z"/>
	<path d="M617.5,7.8c-0.6,0-1,0-1.4,0C616.6,7.5,616.6,7.5,617.5,7.8z"/>
	<path d="M521.5,9.4c-0.3,0-0.6,0-0.9,0c0,0,0-0.1,0-0.1C520.9,9.3,521.5,9.1,521.5,9.4z"/>
	<path d="M576.1,9.6c0.4,0,0.7-0.1,1.1-0.1C577.4,10.1,576,10.1,576.1,9.6z"/>
	<path d="M477.5,13.7c0.3,0,1.2,0.1,1.2,0c0,0.2,0,0.4,0,0.7C478.3,14.2,477.9,13.9,477.5,13.7L477.5,13.7z"/>
	<path d="M681.5,14.8c0.2,0,0.5,0,0.7,0c0,0,0,0.1,0,0.1C682,14.8,681.8,14.8,681.5,14.8C681.5,14.8,681.5,14.8,681.5,14.8z"/>
	<path d="M662.2,17.9c-0.6,0-1,0-1.5,0C661.2,17.5,661.6,17.4,662.2,17.9z"/>
	<path d="M622.5,29.4c0.3-0.2,0.6,0,0.9,0.1C623.6,30.1,622.5,30,622.5,29.4z"/>
	<path d="M221.7,40.2c-0.5,0.5-0.6,0.7-1.1,0.3C220.7,40,221.2,40.3,221.7,40.2z"/>
	<path d="M440.1,75.7c-0.3,0.1-0.6-0.1-0.8-0.3C439.4,74.9,440.2,75.3,440.1,75.7z"/>
	<path d="M488.9,89c-0.3,0.4-1,0.2-0.8-0.2C488.4,88.5,488.6,88.8,488.9,89z"/>
	<path d="M913.9,90.7c-0.3-0.1-0.6-0.2-1-0.3C913.4,90.1,913.8,90.1,913.9,90.7z"/>
	<path d="M973.4,99.8c-0.2-0.4-0.5-0.6,0.1-0.8C973.6,99.4,974,99.5,973.4,99.8z"/>
	<path d="M976.4,100.1c-0.3,0-0.5,0-0.8,0c0,0,0-0.1,0-0.1c0.3,0,0.5,0,0.8,0C976.4,100,976.4,100,976.4,100.1z"/>
	<path d="M964.4,100.7c0.4-0.2,0.7-0.1,0.7,0.3C965.1,101.4,964.4,101.1,964.4,100.7z"/>
	<path d="M886.1,124.8c0.1-0.6,0.4-1,1.1-0.7C887,124.8,886.3,124.7,886.1,124.8z"/>
	<path d="M457.4,144.6c-0.5,0.2-1.2,0.4-1.1-0.3C456.6,144,456.9,144.4,457.4,144.6z"/>
	<path d="M364.5,152.5c0.4,0,0.8,0,1.3,0C365.3,153,364.9,152.8,364.5,152.5z"/>
	<path d="M390.1,171.9c-0.4-0.1-0.6-0.1-0.9-0.2C389.2,171.1,389.9,171.2,390.1,171.9z"/>
	<path d="M398.6,186.1c0.2-0.7,0.5-0.9,1-0.8C399.6,186,399.2,186,398.6,186.1z"/>
	<path d="M385.6,186.3c0.4,0.4,0.5,0.6,0,0.9C385.2,186.9,385.2,186.8,385.6,186.3z"/>
	<path d="M574.2,236.1c-0.4,0.1-0.7,0-0.5-0.9C573.9,235.6,574,235.9,574.2,236.1z"/>
	<path d="M364.7,238.2c-0.2,0.2-0.2,0.3-0.3,0.4c-0.3-0.3-0.7-0.5-0.2-0.9C364.3,237.8,364.5,238,364.7,238.2z"/>
	<path d="M843.4,239.4c-0.5-0.3-0.6-0.4-0.4-0.9C843.5,238.6,843.5,238.8,843.4,239.4z"/>
	<ellipse cx="844.5" cy="248.1" rx="0.1" ry="0.8"/>
	<path d="M747.2,255c0-0.4-0.2-0.9,0.3-0.8C748,254.4,747.7,254.9,747.2,255z"/>
	<path d="M788.2,290.6c0.6,0,1-0.2,1,0.6C788.6,291.3,788.5,291.1,788.2,290.6z"/>
	<path d="M463.5,294.5c-0.5-0.6-0.2-1.3,0.4-0.8C463.8,293.9,463.7,294.2,463.5,294.5z"/>
	<path d="M788.6,295.7c0,0.4,0.5,1.1,0,1.3C787.8,296.7,788.4,296.2,788.6,295.7z"/>
	<path d="M140.8,297.2c0.3-0.4,0.6-0.6,0.9-0.2C141.9,297.7,141.2,297.7,140.8,297.2z"/>
	<path d="M204.1,42.7c-0.4,0.5-0.5,0.6-0.9,0.3C203.3,42.6,203.6,42.7,204.1,42.7z"/>
	<path d="M415.6,15.7c-0.2,0.1-0.4,0.2-0.6,0.3c-0.2-0.5,0.2-0.4,0.5-0.5C415.6,15.6,415.6,15.7,415.6,15.7z"/>
	<path d="M229.7,253.4c1-0.7,1.3,0.1,0.1,0.3C229.8,253.7,229.8,253.6,229.7,253.4z"/>
	<path d="M430.5,86.6c-0.4,0.5-0.5,0.5-0.9,0.1C430,86.3,430.1,86.3,430.5,86.6z"/>
	<path d="M773,303.1c-0.4,0.4-0.5,0-0.7-0.3C772.7,302.5,772.8,302.8,773,303.1z"/>
	<path d="M414.6,5c-0.4,0.2-0.4,0-0.6-0.3C414.3,4.7,414.5,4.7,414.6,5z"/>
	<path d="M919.3,244.2c-0.1,0.1-0.3,0.1-0.4,0.2c-0.1-0.3,0-0.4,0.3-0.5C919.2,244,919.2,244.1,919.3,244.2z"/>
	<path d="M867.7,308.4c-0.4,0.2-0.6,0.3-1.1,0.5C866.8,308.2,867.1,308.1,867.7,308.4z"/>
	<path d="M448.9,148.1c-0.4,0.2-0.6,0.6-0.9,0.2C448.4,148,448.5,147.6,448.9,148.1z"/>
	<path d="M573.7,313.7c0,0.4,0,0.7,0,1.1c-0.1,0-0.1,0-0.2,0c0-0.4,0-0.7,0-1.1C573.6,313.7,573.7,313.7,573.7,313.7z"/>
	<path d="M841.3,317.2c0,0.3,0,0.6,0,0.8c0,0-0.1,0-0.1,0c0-0.3,0-0.6,0-0.8C841.2,317.2,841.2,317.2,841.3,317.2z"/>
	<path d="M518.5,151.4c0.6-0.3,0.6-0.3,1.2,0.4C519.2,151.6,518.8,151.3,518.5,151.4z"/>
	<path d="M431.5,35.7c0.2-0.2,0.4-0.3,0.6,0C431.8,35.8,431.7,35.9,431.5,35.7z"/>
	<path d="M324.4,35.3c0.2-0.4,0.9-0.3,0.9,0C325,35.3,324.8,35.6,324.4,35.3z"/>
	<path d="M843,272.2c0.3,0,0.6,0,0.9,0.1c0,0.1,0,0.2,0,0.3c-0.3,0-0.6,0-0.9-0.1C843,272.4,843,272.3,843,272.2z"/>
	<path d="M960.6,324.3c-0.3-0.3-0.3-0.5,0.1-0.7C960.9,323.9,961.2,324.1,960.6,324.3z"/>
	<path d="M203.7,224c-0.4,0.3-0.5,0-0.8-0.3C203.3,223.5,203.4,223.8,203.7,224z"/>
	<path d="M78.5,81.7c-0.3,0.1-0.6,0.6-0.9,0.2C77.9,81.7,78.1,81.2,78.5,81.7C78.5,81.8,78.5,81.7,78.5,81.7z"/>
	<path d="M359.4,231.1c-0.6-0.5-0.1-0.5,0.1-0.9C360,230.5,359.6,230.7,359.4,231.1z"/>
	<path d="M852.7,326c0.2,0.1,0.3,0.2,0.4,0.2c-0.1,0.2-0.2,0.3-0.3,0.5c-0.1-0.1-0.3-0.2-0.4-0.3C852.5,326.2,852.6,326.1,852.7,326
		z"/>
	<path d="M862.6,278.3c0,0.3,0,0.6,0,0.9c-0.1,0-0.1,0-0.2,0c0-0.3,0-0.6,0-0.9C862.5,278.3,862.6,278.3,862.6,278.3z"/>
	<path d="M947.4,329.3c-0.1-0.1-0.2-0.3-0.3-0.4c0.1-0.1,0.3-0.2,0.4-0.2c0.1,0.2,0.2,0.3,0.3,0.5
		C947.7,329.2,947.6,329.2,947.4,329.3z"/>
	<path d="M854.5,173.1c0.2-0.2,0.3-0.3,0.4-0.4C855.5,173.2,855.1,173.6,854.5,173.1z"/>
	<path d="M939.8,329.8C938.6,330.9,938.1,329.2,939.8,329.8C939.8,329.8,939.8,329.8,939.8,329.8z"/>
	<path d="M477.6,13.7c-0.6,0.2-1,0-1.3-0.6C477,13.1,477,13.1,477.6,13.7C477.5,13.7,477.6,13.7,477.6,13.7z"/>
	<path d="M635.3,22.7c-0.2,0.4-0.4,0.1-0.6,0C634.9,22.3,635.1,22.4,635.3,22.7z"/>
	<path d="M80.5,185.2c-0.4-0.8-0.7-0.7-0.3-1.3C80.7,184.2,80.5,184.3,80.5,185.2z"/>
	<path d="M994.9,353.7c0,0.2-0.1,0.4-0.1,0.6c-0.2-0.1,0-0.4-0.1-0.6C994.8,353.7,994.8,353.7,994.9,353.7z"/>
	<path d="M61.4,70.4c-0.1,0.3-0.2,0.4-0.5,0.3C61,70.5,61.1,70.4,61.4,70.4z"/>
	<path d="M989.5,375.8c-0.3,0.1-0.4,0.1-0.6,0.2C988.6,375.3,989.1,375.2,989.5,375.8z"/>
	<path d="M434.9,91.8c-0.5,0.6-0.5,0.8-1.1,0.5C434,91.8,434.3,92,434.9,91.8z"/>
	<path d="M858,188c0.1,0.4-0.3,0.5-0.6,0.8C857.2,188.5,857.6,187.8,858,188z"/>
	<path d="M208.3,42.5c-0.4,0.1-0.7,0.4-0.9-0.1C207.8,42.2,208.1,41.8,208.3,42.5z"/>
	<path d="M766.9,250.6c0.2,0.3,0.1,0.4-0.2,0.5C766.5,250.8,766.6,250.7,766.9,250.6z"/>
	<path d="M614.1,11.1c0.2-0.1,0.4-0.2,0.6,0C614.4,11.2,614.2,11.1,614.1,11.1z"/>
	<path d="M193.4,195.9c0.2-0.2,0.4-0.4,0.7-0.3C194,196,193.7,195.9,193.4,195.9z"/>
	<path d="M558.9,9.7c0.3,0,0.6,0,0.9,0c0,0.1,0,0.1,0,0.2c-0.3,0-0.6,0-0.9,0C558.9,9.9,558.9,9.8,558.9,9.7z"/>
	<path d="M605.5,196.4c0.1,0.2,0.2,0.3,0.3,0.5C605.4,197.2,605.2,196.7,605.5,196.4z"/>
	<path d="M923.2,484.5c-0.6,0.8-1.1,0.2-0.2-0.2C923.1,484.4,923.1,484.5,923.2,484.5z"/>
	<path d="M231.9,487C233.3,486.1,233.1,487.8,231.9,487L231.9,487z"/>
	<path d="M239.1,493.1c-0.7,0.2-1.3,0.6-1.9-0.2l-0.1,0C237.8,493,238.5,493.1,239.1,493.1z"/>
	<path d="M892.4,297.6c-0.1,0.1-0.2,0.2-0.3,0.3c-0.2-0.2-0.3-0.3-0.5-0.5C892,297.2,892.2,297.4,892.4,297.6z"/>
	<path d="M860.1,179.7c-0.1,0.1-0.1,0.1-0.2,0.2c0-0.2-0.1-0.4,0.1-0.5C860,179.5,860.1,179.6,860.1,179.7z"/>
	<path d="M827.3,89.4c-0.1,0.1-0.2,0.1-0.2,0.2C826.7,89.3,827,89.2,827.3,89.4z"/>
	<path d="M483.9,44.8c0-0.7,0.4-0.5,1.1-0.3C484.4,44.6,484.1,44.7,483.9,44.8C483.8,44.7,483.9,44.8,483.9,44.8z"/>
	<path d="M483.8,44.7c-0.2,0.1-0.5,0.1-0.7,0.2c0,0,0-0.1,0-0.1C483.4,44.8,483.7,44.8,483.8,44.7z"/>
	<path d="M356.5,150.3c-0.1-0.1-0.2-0.1-0.3-0.2c0.3-0.2,0.4-0.3,0.6,0C356.7,150.2,356.6,150.2,356.5,150.3z"/>
	<path d="M966.5,100.8c0.1-0.1,0.2-0.1,0.3,0.1c-0.1,0-0.2,0.1-0.3,0.1C966.6,100.9,966.5,100.9,966.5,100.8z"/>
	<path d="M785.8,255.3C785.9,256.6,785.2,256.5,785.8,255.3C785.9,255.4,785.8,255.3,785.8,255.3z"/>
	<path d="M881.3,129.2c0,0.6-0.1,1.2-0.1,1.8C881.3,130.4,880.9,129.8,881.3,129.2C881.4,129.3,881.3,129.2,881.3,129.2z"/>
	<path d="M158.7,217.8c0.3,0.3,0,0.4-0.3,0.3C158.5,218,158.6,217.9,158.7,217.8z"/>
	<path d="M840,275.3c-0.2,0.2-0.3,0.3-0.5,0C839.7,275.1,839.9,275.2,840,275.3z"/>
	<path d="M362.3,232.2c0.1,0,0.2,0.1,0.3,0.1c-0.2,0.2-0.3,0.2-0.5,0C362.2,232.2,362.2,232.2,362.3,232.2z"/>
	<path d="M367.3,234.2c-0.1,0.1-0.2,0.2-0.2,0.3c-0.1-0.1-0.2-0.3-0.3-0.4C367.1,233.9,367.2,233.9,367.3,234.2z"/>
	<path d="M858.9,180.9c-0.3-0.1-0.4-0.2-0.2-0.5C859,180.5,859.1,180.5,858.9,180.9z"/>
	<path d="M240.2,236.3c0.3,0.2,0.1,0.6,0.1,0.8C240,237.2,240,236.4,240.2,236.3z"/>
	<path d="M170.9,266.6c-0.2,0.3-0.5,0.1-0.3-0.2C170.7,266.5,170.8,266.6,170.9,266.6z"/>
	<path d="M193.4,195.9c0.1,0.3,0.1,0.7,0.2,1c-0.1,0-0.2,0-0.3,0C193.3,196.5,193.4,196.2,193.4,195.9z"/>
	<path d="M196.6,43.5c-0.4,0.4-0.5,0.2-0.8,0C195.9,43.3,196.1,43.5,196.6,43.5z"/>
	<path d="M144.7,297.8c-0.1,0.3-0.2,0.4-0.5,0.2C144.3,297.7,144.4,297.6,144.7,297.8z"/>
	<path d="M824.2,320.9c-0.1,0-0.2-0.1-0.3-0.1c0.1-0.2,0.3,0,0.4,0C824.3,320.8,824.2,320.8,824.2,320.9z"/>
	<path d="M846.3,314.1c0.1,0.4,0.3,0.7-0.1,0.9C846.1,314.6,845.9,314.4,846.3,314.1z"/>
	<path d="M844.6,334.5c-0.2,0.1-0.2,0-0.2-0.2c0.1,0,0.2,0,0.3,0C844.7,334.4,844.7,334.5,844.6,334.5z"/>
	<path d="M516,144C516,144,516,144,516,144c0.4,0.1,0.3,0.3,0.3,0.7C516.1,144.4,515.7,144.3,516,144z"/>
	<path d="M520.8,144.6c0.5-0.1,0.7-0.3,0.9,0C521.6,145,521.4,144.7,520.8,144.6z"/>
	<path d="M954.9,315.2c-0.3-0.3-0.4-0.6,0-1C954.9,314.6,954.7,315.1,954.9,315.2z"/>
	<path d="M243.7,21.4c-0.1-0.1-0.1-0.2-0.2-0.3c0.2-0.1,0.3-0.1,0.5-0.2C244.1,21.2,244,21.3,243.7,21.4z"/>
	<path d="M929.9,314.9c-0.1,0-0.2,0.1-0.3,0.1C929.4,314.6,929.9,314.4,929.9,314.9z"/>
	<path d="M994.2,357.9c-0.1-0.1-0.2-0.2-0.2-0.3c0.2-0.2,0.3,0.1,0.4,0.2C994.3,357.9,994.2,357.9,994.2,357.9z"/>
	<path d="M995.5,368.2c-0.1,0.1-0.2,0.1-0.3,0.2c-0.1-0.3-0.2-0.4,0.2-0.5C995.4,368,995.4,368.1,995.5,368.2z"/>
	<path d="M777.7,18.8c0.1,0.1,0,0.2-0.1,0.2c0-0.1,0-0.1-0.1-0.2C777.6,18.8,777.6,18.8,777.7,18.8z"/>
	<path d="M300.5,17.1c0-0.1-0.1-0.2-0.1-0.2c0.2,0,0.4-0.1,0.5,0.1C300.8,17,300.7,17,300.5,17.1z"/>
	<path d="M780.9,315.2c-0.1,0-0.1-0.1-0.2-0.1c0.2-0.1,0.3-0.2,0.3,0.1C781,315.1,781,315.1,780.9,315.2z"/>
	<path d="M297.7,16.8c0.1,0,0.2,0.1,0.3,0.1c-0.1,0.1-0.2,0.1-0.4,0C297.6,16.9,297.7,16.8,297.7,16.8z"/>
	<path d="M413,12.9c-0.1,0.1-0.1,0.1-0.2,0.2c-0.2-0.2,0-0.3,0.2-0.4C413,12.8,413,12.9,413,12.9z"/>
	<path d="M244.2,38.7c-0.6,0-0.7,0.3-1-0.1C243.6,38.3,243.6,38.5,244.2,38.7z"/>
	<path d="M556.7,9.3c0.2,0,0.5-0.2,0.6,0.1c-0.2,0-0.4,0.1-0.6,0.1C556.7,9.5,556.7,9.4,556.7,9.3z"/>
	<path d="M916.7,327.5c0-0.3,0-0.6,0-0.8c0,0,0.1,0,0.1,0C916.8,327,916.8,327.3,916.7,327.5z"/>
	<path d="M882.1,316.7c-0.1,0.1-0.1,0.1-0.2,0c0.1-0.1,0.1-0.1,0.2-0.2C882.1,316.6,882.1,316.7,882.1,316.7z"/>
	<polygon points="573.6,6.5 573.7,6.4 573.7,6.5 	"/>
	<path d="M232,137.7c0-0.2,0.1-0.5,0.2-0.9C232.5,137.4,232.4,137.6,232,137.7z"/>
	<path d="M499.6,38.9c0.2-0.3,0.4-0.4,0.7-0.6c0.1,0.1,0.1,0.6,0.2,0.5C500.1,38.8,499.8,38.8,499.6,38.9
		C499.5,38.8,499.6,38.9,499.6,38.9z"/>
	<path d="M469.9,60.2c0,0,0,0.1,0,0.1c-0.1,0-0.1-0.1-0.2-0.1C469.7,60.3,469.8,60.3,469.9,60.2z"/>
	<path d="M858.8,257.9c-0.2-0.2-0.2-0.3,0-0.4C859,257.6,858.8,257.8,858.8,257.9z"/>
	<path d="M887.5,266.4c0.1,0,0.1,0.1,0.1,0.2c-0.1,0-0.1,0-0.2,0C887.4,266.5,887.5,266.5,887.5,266.4z"/>
	<path d="M829.9,267.4c0.1,0.1,0.1,0.2,0,0.3C829.8,267.5,829.8,267.5,829.9,267.4z"/>
	<path d="M858.7,281.8c0,0-0.1-0.1-0.1-0.1c0.1,0,0.1-0.1,0.2-0.1C858.8,281.6,858.8,281.7,858.7,281.8z"/>
	<path d="M257.9,44.5c0,0-0.1-0.1-0.1-0.1c0.1-0.1,0.2-0.1,0.3,0C258,44.5,258,44.5,257.9,44.5z"/>
	<path d="M140.2,295.9c0-0.1-0.1-0.1-0.1-0.2c0.2,0,0.3-0.1,0.4,0.1C140.4,295.8,140.3,295.8,140.2,295.9z"/>
	<path d="M361.3,3.2c-0.1,0-0.2,0-0.4,0C361.1,3.2,361.2,3.1,361.3,3.2z"/>
	<path d="M768.8,296.5c-0.1,0.1-0.2,0.1-0.2,0.2c-0.1-0.2-0.1-0.4,0.1-0.5C768.7,296.3,768.7,296.4,768.8,296.5z"/>
	<path d="M864.3,296.1c0.1,0.2,0.2,0.4-0.1,0.5C864,296.3,864,296.2,864.3,296.1z"/>
	<path d="M893.9,109.6c-0.1,0-0.1,0.1-0.2,0.1c-0.1-0.2-0.2-0.4,0-0.5C893.9,109.3,893.9,109.4,893.9,109.6z"/>
	<path d="M360.4,149.2c-0.2,0.2-0.3,0.2-0.5,0C360.1,148.9,360.3,149.1,360.4,149.2z"/>
	<path d="M523.2,143.4c0.2,0.2,0.2,0.3,0,0.4C522.9,143.7,523.1,143.6,523.2,143.4z"/>
	<path d="M262.9,40c-0.1,0.1-0.1,0.2-0.2,0.3c-0.1-0.1-0.1-0.1-0.2-0.2C262.7,40.1,262.8,40.1,262.9,40L262.9,40z"/>
	<path d="M859.2,301.6c-0.1,0-0.2,0-0.3,0.1C859,301.6,859.1,301.6,859.2,301.6z"/>
	<path d="M860.1,301.7c0.1,0,0.2-0.1,0.4-0.1C860.3,301.6,860,301.6,860.1,301.7z"/>
	<path d="M262.9,40.1C263.3,39.6,263.8,40,262.9,40.1C262.9,40,262.9,40.1,262.9,40.1z"/>
	<path d="M86.3,108c0.1,0.2,0.2,0.4-0.1,0.5C86,108.3,86.4,108.1,86.3,108z"/>
	<path d="M947.7,309.2c0-0.5-0.1-1-0.1-1.4C947.6,308.2,947.7,308.8,947.7,309.2z"/>
	<path d="M508.2,152.4c0.1,0.2,0.2,0.3,0,0.4C508.1,152.7,507.9,152.5,508.2,152.4z"/>
	<path d="M213,37.1c-0.1,0-0.1,0-0.2-0.1c0.1-0.1,0.1-0.1,0.2-0.2c0,0,0.1,0.1,0.1,0.1C213.1,37,213,37.1,213,37.1z"/>
	<path d="M505.6,36.4c0.2,0,0.4,0,0.5,0.1C505.9,36.8,505.8,36.5,505.6,36.4z"/>
	<path d="M522.6,155.5c0.1-0.1,0.1-0.2,0.2-0.3c0.3,0.1,0.1,0.2,0,0.4C522.7,155.6,522.7,155.6,522.6,155.5z"/>
	<path d="M951,100.5c-0.1,0-0.2,0-0.2-0.1c0.1,0,0.2,0,0.2,0C951.1,100.3,951,100.4,951,100.5z"/>
	<path d="M220.8,100c-0.1,0.1-0.2,0.1-0.2,0C220.6,100,220.7,100,220.8,100z"/>
	<path d="M846.6,163.4c0,0.2,0.2,0.3,0,0.4C846.5,163.7,846.3,163.5,846.6,163.4z"/>
	<path d="M849.5,165c-0.1-0.2,0-0.2,0.1-0.3C849.6,164.9,849.6,165,849.5,165z"/>
	<path d="M850.3,171.8c-0.1,0-0.1,0-0.2,0.1c0-0.1,0-0.2-0.1-0.2C850.2,171.7,850.3,171.7,850.3,171.8z"/>
	<path d="M832.2,182c0.1-0.1,0.2-0.2,0.3-0.3c0,0.1,0.1,0.2,0.1,0.2C832.5,181.9,832.1,181.9,832.2,182z"/>
	<path d="M73.2,188.5c0.2,0,0.1,0.1,0.2,0.2c-0.1,0-0.1,0-0.2,0C73.1,188.6,73.2,188.6,73.2,188.5z"/>
	<path d="M871.4,324.7c-0.1-0.1-0.2-0.1-0.3-0.2c0.2-0.2,0.4-0.2,0.6,0C871.6,324.6,871.5,324.7,871.4,324.7z"/>
	<path d="M387.7,188.9c0,0.1-0.1,0.2-0.1,0.3c-0.2-0.1,0-0.3,0-0.4C387.6,188.8,387.6,188.9,387.7,188.9z"/>
	<path d="M909.1,89.7C909.8,89.8,909.4,90.3,909.1,89.7C909.2,89.6,909.1,89.7,909.1,89.7z"/>
	<polygon points="385,190.3 385.1,190.5 384.9,190.5 	"/>
	<path d="M909.2,89.6c-0.4,0.2-0.8,0.2-1-0.3c0,0,0,0,0,0C908.5,89.4,908.8,89.7,909.2,89.6z"/>
	<path d="M470.3,89.9c0,0-0.1,0-0.1,0C470,89.7,470.3,89.7,470.3,89.9z"/>
	<polygon points="3.4,89.1 3.3,89.2 3.3,89.1 	"/>
	<path d="M962.7,326.8c0.1,0.1,0.1,0.2,0,0.3C962.6,326.9,962.6,326.9,962.7,326.8z"/>
	<polygon points="198,203 198,202.8 198.1,203 	"/>
	<path d="M202.3,209.9c0,0.1,0,0.1-0.1,0.2c-0.1-0.1-0.2-0.2,0-0.3C202.3,209.8,202.3,209.8,202.3,209.9z"/>
	<path d="M187.5,210.6C187.1,210,188,210,187.5,210.6C187.5,210.6,187.5,210.6,187.5,210.6z"/>
	<path d="M188.8,210.5c-0.4,0-0.9,0-1.3,0.1C187.9,210.6,188.4,210.6,188.8,210.5C188.8,210.5,188.8,210.5,188.8,210.5z"/>
	<path d="M188.9,211.7C188.9,211.7,188.9,211.7,188.9,211.7c0-0.4-0.1-0.8-0.1-1.1C188.8,210.9,188.8,211.3,188.9,211.7z"/>
	<path d="M738.5,211.2c-0.1,0-0.1-0.1-0.1-0.2C738.6,211,738.6,211.1,738.5,211.2z"/>
	<path d="M624.7,28.2c0-0.2,0.1-0.1,0.2-0.1C624.9,28.3,624.9,28.2,624.7,28.2z"/>
	<path d="M645.5,25.2c-0.1,0-0.2-0.1-0.3-0.1C645.3,25.1,645.5,25.1,645.5,25.2z"/>
	<path d="M790,334c0.1,0,0.1,0,0.2,0.1c-0.1,0.1-0.2,0.1-0.2,0.2c0,0-0.1-0.1-0.1-0.1C789.9,334.1,790,334,790,334z"/>
	<polygon points="23.8,84.1 23.9,84.1 23.9,84.2 	"/>
	<path d="M495.3,25.3c-0.1,0-0.1,0-0.2,0c0-0.1,0-0.2,0-0.2C495.2,25.2,495.3,25.2,495.3,25.3z"/>
	<path d="M634,217.9c0-0.2,0-0.3,0.1-0.5c0.1,0,0.1,0,0.2,0.1C634.2,217.7,634.1,217.8,634,217.9C634,217.9,634,217.9,634,217.9z"/>
	<path d="M409.4,25.1c0.1-0.1,0.2-0.2,0.3-0.3C409.8,25.2,409.3,24.9,409.4,25.1z"/>
	<path d="M634,217.9c0.1,0.2-0.1,0.3-0.2,0.5C633.4,218,633.8,218,634,217.9z"/>
	<path d="M289.3,108.8c0,0-0.1-0.1-0.1-0.1c0.1,0,0.2,0,0.3,0C289.4,108.7,289.4,108.8,289.3,108.8z"/>
	<polygon points="970.6,338.3 970.8,338.2 970.8,338.4 	"/>
	<path d="M588.4,340.9c0,0-0.1-0.1-0.1-0.1c0.1-0.1,0.2-0.1,0.3,0C588.6,340.9,588.5,340.9,588.4,340.9z"/>
	<path d="M590.7,343c0,0,0.1,0,0.1,0.1c-0.1,0-0.1,0.1-0.2,0.1C590.7,343.1,590.7,343,590.7,343z"/>
	<path d="M993.6,346.6c0.1,0.1,0.1,0.2,0,0.3C993.4,346.8,993.4,346.7,993.6,346.6z"/>
	<path d="M237.4,22.4c0,0-0.1-0.1-0.1-0.1c0.1-0.1,0.2-0.1,0.3,0C237.6,22.4,237.5,22.4,237.4,22.4z"/>
	<path d="M749,224c-0.3,0-0.6,0.1-0.7-0.2C748.6,223.7,748.8,224,749,224z"/>
	<path d="M504.8,145.3c0.3,0.2,0.2,0.3,0,0.5C504.6,145.7,504.7,145.5,504.8,145.3z"/>
	<path d="M427.6,81.2c0.2,0,0.1,0.1,0.2,0.2c-0.1,0-0.1,0-0.2,0C427.5,81.4,427.5,81.3,427.6,81.2z"/>
	<path d="M361.8,238.7c0,0.1-0.1,0.1-0.1,0.1c-0.1-0.2-0.3-0.3,0-0.5C361.7,238.5,361.7,238.6,361.8,238.7z"/>
	<path d="M646.5,17.4c-0.1,0-0.1,0-0.2-0.1c0.1-0.1,0.2-0.2,0.3,0C646.6,17.4,646.6,17.4,646.5,17.4z"/>
	<path d="M256.8,17.3c-0.1-0.1-0.1-0.2-0.2-0.3C256.3,17.1,256.6,17.6,256.8,17.3C256.8,17.2,256.8,17.3,256.8,17.3z"/>
	<path d="M427.8,80.5c0-0.1-0.1-0.1-0.1-0.2c0.2-0.1,0.4-0.3,0.5,0C428,80.4,427.9,80.4,427.8,80.5z"/>
	<path d="M241,242.3c0.1,0.3,0.2,0.4-0.1,0.6C240.8,242.6,240.8,242.5,241,242.3z"/>
	<polygon points="256.7,62.8 256.8,62.8 256.8,62.9 	"/>
	<path d="M240.3,244.9c0,0-0.1,0-0.1,0c0-0.1,0.1-0.1,0.1-0.2C240.2,244.8,240.2,244.9,240.3,244.9z"/>
	<path d="M245.4,245.2c0.1-0.1,0.2-0.1,0.3,0c-0.1,0-0.2,0.1-0.3,0.1C245.4,245.3,245.4,245.2,245.4,245.2z"/>
	<path d="M56.4,72.3c-0.1,0.1-0.2,0.1-0.3,0.1C56.2,72.4,56.3,72.3,56.4,72.3L56.4,72.3z"/>
	<path d="M766.6,247.8c-0.1,0-0.1,0.1-0.2,0.1c0-0.2-0.2-0.3,0.1-0.4C766.6,247.6,766.6,247.7,766.6,247.8z"/>
	<path d="M223.6,461.3c0-0.1-0.1-0.3-0.1-0.4c0.1,0,0.1,0,0.2,0C223.6,461,223.5,461.4,223.6,461.3z"/>
	<polygon points="229.7,139.1 229.8,139.2 229.6,139.2 	"/>
	<path d="M56.4,72.3c0.1-0.2,0.1-0.5,0.3-0.4C56.7,72.1,56.5,72.2,56.4,72.3C56.4,72.3,56.4,72.3,56.4,72.3z"/>
	<path d="M846.4,248.3c-0.1-0.1-0.2-0.1-0.3-0.2c0.1-0.3,0.3,0,0.5,0C846.5,248.2,846.5,248.2,846.4,248.3z"/>
	<polygon points="238.1,249.3 238.1,249.1 238.2,249.3 	"/>
	<polygon points="551,9 550.9,9 550.9,8.9 	"/>
	<path d="M231.9,486.9c0,0.2,0.2,0.5,0.1,0.7C231.4,487.5,232,487.2,231.9,486.9z"/>
	<path d="M564.4,8.6c0.2,0,0.4,0,0.6-0.1c0,0,0,0.1,0,0.1C564.8,8.6,564.6,8.6,564.4,8.6z"/>
	<path d="M655.1,490.6c0.1,0,0.1,0,0.2-0.1c0,0.1,0,0.2,0.1,0.2C655.2,490.8,655.1,490.7,655.1,490.6z"/>
	<path d="M237.2,492.9c-0.1,0-0.2,0-0.3-0.1C237,492.9,237.1,493,237.2,492.9z"/>
	<path d="M850.4,252.9c0-0.1-0.1-0.2,0.1-0.2C850.5,252.9,850.5,252.9,850.4,252.9z"/>
	<polygon points="417.3,5.6 417.3,5.7 417.1,5.6 	"/>
	<path d="M258.2,501.9c0.2,0,0.3-0.1,0.5-0.1C258.6,502.1,258.3,501.8,258.2,501.9z"/>
	<path class="st0" d="M194.4,112.5c-0.4,1.9,0.2,3,2.3,2.6c0,1.4,0,6.9-2.1,4.2c-3.5,0.3-6.1,1.7-9-1c0.7-0.6,1.3-1,2.1-1.6
		c-5.1,1.9-8.3,2.9-13,2.6C180.3,116,187.9,110.7,194.4,112.5z M185.9,115c-0.2,0-0.3,0-0.5,0c0.2,0.2,0.6-0.2,0.6-0.4
		C185.7,114.4,185.8,114.8,185.9,115z"/>
	<path class="st0" d="M205.8,122.5c2.4,3.8-1,7-3.1,2.3c-9.3,16.8-2.5,0.3-9.3,5.7c1.1-2,6.4-5.6,1-7.9
		C197.8,120.7,201.8,121.4,205.8,122.5z M200,122.7c-0.2-0.4-0.4-0.4-1-0.1C202.7,125,205,121.5,200,122.7z M197.6,122.1
		c0.1,0,0.1,0,0.2,0.1c0-0.1-0.1-0.1-0.1-0.2C197.6,122,197.6,122.1,197.6,122.1z"/>
	<path class="st0" d="M179.2,138.1c0.1-7.2,6.5-17.2,14.4-15.8C184.1,127.4,186.6,135.7,179.2,138.1z"/>
	<path class="st0" d="M141.7,51.1c3.6-1.4,8.6-2.2,12.7-2.4c-0.8,1.2-2.4,0.8-3.8,1.7c2.3,0.9,4.2,0.3,6.4-0.2
		c-1.8,3.3-5.1,1.7-7.8,2.7c-0.5,0.7-1.3,1.7-1.8,0.2c-3.1-0.6-4.6,3.1-7.9,1.5C143.4,52.2,150.7,50.5,141.7,51.1L141.7,51.1z"/>
	<path class="st0" d="M158.1,64.7c-4.1,2.7-11.3,5.5-16.5,3.5C155.4,65,144,63.8,158.1,64.7z"/>
	<path class="st0" d="M191.6,137.8c4.4-2.1,9.5-4,14.7-3.9C202.6,136,195.3,140.5,191.6,137.8z"/>
	<path class="st0" d="M172.3,94.4c-0.5,1.3-1.4,9.9-2.9,5.3c-0.5,0.1-0.9,0.3-1.4,0.4c-0.1-1.5-1.2-2.8,0.5-3.7
		c-0.4-0.2-0.7-0.3-0.9-0.4C168.4,94,170.1,92.6,172.3,94.4z"/>
	<path class="st0" d="M215.9,128.5c1.4,5.9-7.6,2-10.7,3.8C207.3,128,213.1,131.2,215.9,128.5z"/>
	<path class="st0" d="M205.2,255.5c1.1,1.5,2.4,4.7-0.5,5C203.5,258.2,202.7,257.5,205.2,255.5z"/>
	<path class="st0" d="M250.9,497.1c-1.2,0.1-1.2-1-1.8-1.9c-1.7,4-1.2-1.2-2.5-2.9c0.5-0.1,0.9-0.1,1.3-0.2c0,0,0,0,0,0
		c0.4,3.3,1.4,2.2,3.7,2.5C250.9,495.5,249.5,495.8,250.9,497.1L250.9,497.1z"/>
	<path class="st0" d="M279.2,414.5c-1.3,0.1-1.3-1.5-0.6-2C281.9,405.7,281.9,411.2,279.2,414.5z"/>
	<path class="st0" d="M272.9,49.8c0.5-0.4,1.1-0.9,1.7-1.3c4.3,2.4,1.6,2.6-1.8,2.8C272.8,50.8,272.8,50.4,272.9,49.8z"/>
	<path class="st0" d="M161.4,252.7c-1.7,1.1-3.1-1.1-3.2-2.6C159.1,248.5,161.3,251.5,161.4,252.7z"/>
	<path class="st0" d="M215.5,355c-1.2,1.2-3.9-0.8-3.1-2.4C213.7,352.6,214.8,354,215.5,355z"/>
	<path class="st0" d="M170.6,102.1c0.4,1.5-1.1,2.3-2.7,3.6C167.7,104,169.8,103.4,170.6,102.1z"/>
	<path class="st0" d="M80.6,84.8c-0.2-1.3,1.2-0.2,1.9-0.5l-0.1,0c0.4,1.1,0.9,1.6,0.1,2.8C81.9,85.8,82.1,84.6,80.6,84.8
		C80.5,84.7,80.6,84.8,80.6,84.8z"/>
	<path class="st0" d="M227.7,53.8c-1.1,0.4-2.7,0-2.4-1.3C226.2,51.9,227.2,52.8,227.7,53.8z"/>
	<path class="st0" d="M36.6,73c-0.9,1.4-2.4,0.8-3.9,0.9C34,73.1,35.2,73.3,36.6,73L36.6,73z"/>
	<path class="st0" d="M260.8,39.5c-1.2-0.1-3.8,1-3.6-0.9C258.4,38.9,259.6,39.2,260.8,39.5z"/>
	<path class="st0" d="M237.7,118.1c0.7-1.2,1.7-1.4,2.8-2.1C239.5,117.4,239.5,117.4,237.7,118.1z"/>
	<path class="st0" d="M51.9,68.6c0.2-0.9,2.6-1.5,2.8-0.2C53.8,68.5,52.6,68.5,51.9,68.6z"/>
	<path class="st0" d="M276.5,294.8c-0.4,0.9-2.7,0.5-2.8-0.1C274.5,294.7,275.8,294.8,276.5,294.8z"/>
	<path class="st0" d="M243.4,493.6c0.9-0.5,1.4-1.6,2.1-1C245.6,493.6,244.5,494.1,243.4,493.6z"/>
	<path class="st0" d="M83.1,78.9c-0.5-0.3-1-0.6-1.5-1c0.5-0.9,1.5,0.2,2.2,0.3C83.6,78.7,83.5,79,83.1,78.9
		C83,78.8,83.1,78.9,83.1,78.9z"/>
	<path class="st0" d="M210.4,46.1c0.4-0.8,1-0.7,1.6-0.5C211.7,46.5,211.1,46.3,210.4,46.1z"/>
	<path class="st0" d="M84.5,78c-0.3-1,0.1-1.7,0.6-1.9C85.4,76.5,84.7,77.2,84.5,78z"/>
	<path class="st0" d="M156.5,181.7c-0.5-0.1-0.9-0.2-1.4-0.3C155.3,180,156.7,181,156.5,181.7z"/>
	<path class="st0" d="M280,93.8c0.1,0.7-1.1,0.9-1.8,0.8C278.7,94,279.2,93.6,280,93.8L280,93.8z"/>
	<path class="st0" d="M49.1,69.2c0.8-0.5,2-0.8,2.8-0.6C51,68.7,49.9,69.3,49.1,69.2z"/>
	<path class="st0" d="M247.8,492.1C249.5,490.3,250.2,492.6,247.8,492.1C247.8,492,247.8,492.1,247.8,492.1z"/>
	<path class="st0" d="M160.5,64.1C160.8,62.2,163.2,63.9,160.5,64.1C160.5,64.1,160.5,64.1,160.5,64.1z"/>
	<path class="st0" d="M51.4,49.9c-0.1,0.5-0.7,0.7-1,0.2C50.2,49.6,51.1,49.6,51.4,49.9z"/>
	<path class="st0" d="M160.5,64.1c-0.8,0.2-1.7,0.3-2.3,0.6C158.8,64,159.7,63.7,160.5,64.1z"/>
	<path class="st0" d="M189.1,44.5c-0.6,0.4-0.7,0.5-1.2,0.3C188.2,44.2,188.2,44.3,189.1,44.5z"/>
	<path class="st0" d="M257.2,499.7c0.7-0.1,0.5,0.5,0.7,0.8C257.4,501.3,257.2,500.1,257.2,499.7z"/>
	<path class="st0" d="M252.9,124.8c0.4-0.7,1-0.4,1.8-0.3C254.1,125.3,253.4,124.8,252.9,124.8z"/>
	<path class="st0" d="M278.3,301.8c-0.2-0.3-0.4-0.4-0.5-0.6C278.3,300.7,278.9,301.2,278.3,301.8z"/>
	<path class="st0" d="M228.4,476.3c0.7,0,0.7,0.4,0.5,0.9C228.7,477,228.6,476.7,228.4,476.3z"/>
	<path class="st0" d="M25.3,79c-0.6,0.7-1,0.5-1.3,0C24.6,78.7,24.7,78.8,25.3,79z"/>
	<path class="st0" d="M273.6,294.7C273.6,294.7,273.7,294.6,273.6,294.7c-0.2-0.2-0.4-0.2-0.6-0.3
		C273.3,293.6,273.7,294.1,273.6,294.7z"/>
	<path class="st0" d="M83.2,84.5C84.3,83.6,84.7,84.7,83.2,84.5C83.3,84.5,83.2,84.5,83.2,84.5z"/>
	<path class="st0" d="M49.7,48.6c-0.3,0.4-0.4,0.4-0.8,0.4C49.1,48.5,49.3,48.5,49.7,48.6z"/>
	<path class="st0" d="M265.1,122.4c0.3,0.4,0,0.5-0.3,0.7C264.6,122.7,264.9,122.6,265.1,122.4z"/>
	<path class="st0" d="M265,31.7c-0.3,0.2-0.4,0.7-0.8,0.5C264.1,31.7,264.9,31.9,265,31.7z"/>
	<path class="st0" d="M140.6,183.9c-0.4,0.1-0.7,0-0.9-0.4C140,183.2,140.2,183.9,140.6,183.9z"/>
	<path class="st0" d="M17.3,69.5c-0.1,0-0.2,0.1-0.3,0.1C16.6,69.1,17.2,69,17.3,69.5z"/>
	<path class="st0" d="M82.5,80.4c-0.7-0.6,0-1.1,0.6-1.5c0,0,0,0,0,0C82.9,79.3,82.5,79.9,82.5,80.4z"/>
	<path class="st0" d="M166.6,62.4c-0.2,0-0.4,0.2-0.5-0.1C166.3,62.4,166.5,62.2,166.6,62.4z"/>
	<path class="st0" d="M138.6,51.8c-0.2-0.3-0.3-0.4-0.4-0.4C138.8,50.7,139,51.2,138.6,51.8z"/>
	<path class="st0" d="M194.9,135.1c0,0.1-0.1,0.3-0.1,0.4c-0.4-0.1-0.4-0.2-0.2-0.5C194.7,135,194.8,135.1,194.9,135.1z"/>
	<path class="st0" d="M280,93.9c0.2-0.1,0.4-0.3,0.7-0.2C280.6,94.1,280.1,93.8,280,93.9z"/>
	<path class="st0" d="M211.1,251.2c-0.1,0.1-0.1,0.2-0.2,0.2C210.7,251.2,210.8,250.9,211.1,251.2z"/>
	<path class="st0" d="M127.3,200.3c-0.6,0.3-0.7-0.3-0.2-0.6C127.2,199.9,127.2,200.1,127.3,200.3
		C127.3,200.3,127.3,200.3,127.3,200.3z"/>
	<path class="st0" d="M272.7,297.6c0-0.1,0-0.2,0-0.3C272.7,297.3,272.7,297.4,272.7,297.6z"/>
	<path class="st0" d="M192.6,43.5c0.1,0,0.2,0.1,0.2,0.1c-0.1,0.1-0.3,0-0.4,0C192.5,43.6,192.6,43.6,192.6,43.5z"/>
	<path class="st0" d="M215.7,356.1c0.4,0.2,0.2,0.5-0.2,0.3C215.6,356.3,215.6,356.2,215.7,356.1z"/>
	<path class="st0" d="M82.5,84.2c0.3-0.1,0.6-0.3,1-0.5c-0.1,0.3-0.3,0.7-0.2,0.8C83,84.4,82.5,84.2,82.5,84.2z"/>
	<path class="st0" d="M229.6,474.9c0-0.2,0-0.4,0-0.5C230.1,474.2,230.2,474.8,229.6,474.9z"/>
	<path class="st0" d="M239.2,489c0.2-0.1,0.4-0.2,0.4,0.1C239.5,489.1,239.2,489.2,239.2,489z"/>
	<path class="st0" d="M141.6,51c-0.1,0-0.2,0-0.2,0C141.4,51,141.7,51.1,141.6,51z"/>
	<path class="st0" d="M190.1,44.4c0,0.1-0.1,0.1-0.2,0.2c0-0.1,0-0.1,0-0.2C190,44.4,190,44.4,190.1,44.4z"/>
	<path class="st0" d="M271.8,296.3c0.1,0.1,0.2,0.1,0.3,0.2c0-0.1,0-0.2,0-0.3C272,296.2,271.9,296.2,271.8,296.3z"/>
	<path class="st0" d="M271.6,296.6c0,0-0.1,0.1-0.1,0.1c0-0.1-0.1-0.2-0.1-0.2C271.5,296.4,271.6,296.4,271.6,296.6z"/>
	<path class="st0" d="M79.4,108.8c0.2,0,0.3,0,0.5,0C79.7,108.8,79.5,108.8,79.4,108.8z"/>
	<path class="st0" d="M136.8,40.2c0.1,0.2,0,0.2-0.1,0.2C136.7,40.3,136.8,40.3,136.8,40.2z"/>
	<polygon class="st0" points="275,301.5 275,301.6 274.9,301.6 	"/>
	<polygon class="st0" points="276.3,301.6 276.2,301.6 276.3,301.5 	"/>
	<path class="st0" d="M294,303.6c0,0.2,0.1,0.4,0.1,0.6c0,0-0.1,0-0.1,0C294,304,294,303.8,294,303.6z"/>
	<polygon class="st0" points="65.4,152.9 65.2,152.9 65.3,152.7 	"/>
	<path class="st0" d="M271.8,296.3c0-0.3,0-0.6,0-0.8c0.1,0,0.2,0,0.2,0.1C272,295.7,271.9,296,271.8,296.3z"/>
	<polygon class="st0" points="283,35.8 282.9,35.6 283.1,35.7 	"/>
	<path class="st0" d="M286.8,94.1C286.7,93.2,286.4,94.6,286.8,94.1C286.8,94.1,286.8,94.1,286.8,94.1z"/>
	<path class="st0" d="M80.2,80.3c-0.1,0.1-0.1,0.1-0.2,0.2C79.7,80.2,79.9,80.1,80.2,80.3z"/>
	<path class="st0" d="M84.1,82.4c0.2,0,0.4,0,0.5,0c0,0.1,0,0.2,0,0.3C84.4,82.7,84.3,82.5,84.1,82.4C84.2,82.3,84.1,82.4,84.1,82.4
		z"/>
	<path class="st0" d="M209.3,147.3c0.1,0,0.1,0.1,0.1,0.2c-0.1,0-0.1,0-0.2,0C209.2,147.4,209.2,147.3,209.3,147.3z"/>
	<path class="st0" d="M79.5,77.7c0.2,0.1,0.4,0.1,0.6,0.2c0,0.1-0.1,0.1-0.1,0.2C79.8,77.9,79.6,77.8,79.5,77.7z"/>
	<path class="st0" d="M81.4,76.6c0.2,0,0.4-0.1,0.6-0.1c0,0,0,0.1,0,0.1C81.9,76.7,81.7,76.6,81.4,76.6z"/>
	<path class="st0" d="M81.5,76.6c0-0.2,0.1-0.4,0.1-0.5C81.8,76.3,81.6,76.5,81.5,76.6z"/>
	<path class="st0" d="M36.6,73c0.1-0.1,0.2-0.1,0.3-0.2C36.8,72.9,36.5,72.9,36.6,73z"/>
	<path class="st0" d="M225.1,465.6c0,0.1,0,0.2,0,0.3C225.1,465.8,225,465.5,225.1,465.6z"/>
	<path class="st0" d="M226.8,466.9c-0.1,0-0.1,0-0.2,0.1c0-0.1,0-0.1-0.1-0.2C226.7,466.8,226.7,466.8,226.8,466.9z"/>
	<path class="st0" d="M229.5,481.4c0.1-0.1,0.1-0.2,0.2-0.3C229.3,481.1,229.4,481.2,229.5,481.4
		C229.5,481.4,229.5,481.4,229.5,481.4z"/>
	<path class="st0" d="M233.3,485.2c0.1,0,0.1,0,0.2,0.1c-0.1,0.1-0.2,0.2-0.3,0C233.2,485.2,233.2,485.2,233.3,485.2z"/>
	<path class="st0" d="M242.1,491.8c0-0.1,0-0.2,0-0.4c0.1,0,0.2,0.1,0.3,0.1C242.3,491.6,242.2,491.7,242.1,491.8L242.1,491.8z"/>
	<path class="st0" d="M242.1,491.8c-0.1,0.1-0.3,0.2-0.4,0.2c0-0.1,0-0.1-0.1-0.2C241.7,491.8,242.1,491.9,242.1,491.8z"/>
	<polygon class="st0" points="266.2,61.9 266.3,62 266.2,62 	"/>
	<path class="st0" d="M250.8,497.2c0.2,0,0.3,0.1,0.5,0.1C251.2,497.6,250.7,497.6,250.8,497.2C250.9,497.1,250.8,497.2,250.8,497.2
		z"/>
	<path class="st0" d="M553.7,137.8c-8.2-4.8-20.2,9-25.4-2.9c3-5.1,4.6-15.1,11.3-15c-0.3,2.8,3.7,0.7,5.1,2.4
		c-0.8,0.8-2.2,0.5-2.8,1.8c1.7,1,3.7,0.7,2.9,3.3c2.2,1.1,6.5-2.2,8.9-2.4c4.7,3.6,17.9,6.6,16.5,13.5
		C565.8,141.6,557.7,141.4,553.7,137.8z"/>
	<path class="st0" d="M605.6,140.7c-1.8,4.1,3.6,2.9,1.6,5.8c4.3,1.5,2.3,5.8,4.2,9.1c-5.7,2.4-12.6,0.5-16.2-4
		c-0.4-2.4-0.5-8.3,2.9-8.6c-6.8-3.2-8.7-10.7-13.4-15.4c1.3-6.7,19.5-15.1,17.1-3.4c-2.5-0.1-6-0.2-3.9,3.2
		c-6.2-2.4,2.5,6.8,5.3,6.6c1.2,1.7-0.8,3.9,1.7,5l0-0.1c0.2,0.3,0.3,0.6,0.5,0.9c0,0,0-0.1,0-0.1
		C605.3,140.1,605.6,140.6,605.6,140.7z"/>
	<path class="st0" d="M555.6,295.8c-1.1,1.2-0.6,2.8-1.7,4c-0.4,1.5-3,2.2-0.9,3.6c-0.8,1.8-4.4-1-5.3,1.1c-2.3-1.5,0.5-4.4-0.6-6.5
		c-0.3-3.3,3-3,4.9-4.5C554,293.6,554.5,295.7,555.6,295.8C555.6,295.8,555.6,295.8,555.6,295.8z"/>
	<path class="st0" d="M560.7,117.9c-1.2,1.1-2.6,1.4-4,2.1c0.6,0.5,1.1,0.9,1.7,1.3c-1.6,4.3-7,3.9-10.1,1.2
		C551.2,119.1,556.3,117.8,560.7,117.9z"/>
	<path class="st0" d="M752.9,93.4c-1.7,0.2-1.4,1.4,0,1.6c-3,2.5-5.6,8.9-10.4,6.4C752.8,102.3,746.6,75.5,752.9,93.4z"/>
	<path class="st0" d="M540.8,316.7c-0.6,3,3.6,6.5,3.8,10.5c-4.9-4.2-6.5-12.5-6.1-19.3C539.8,310.8,540.1,313.7,540.8,316.7z"/>
	<path class="st0" d="M557.9,348c-5.8-1.6-1.3-10.7-3.5-15.3c0.1-5,2,3.5,2.5,5.1C557.1,341.1,555.4,344.8,557.9,348z"/>
	<path class="st0" d="M536,69.7c-0.3,0.7-0.6,1.3-0.9,2c-1.3-0.6-2.1-0.6-3.1,0.5c-1.5-1.4-1.9-3.3-4-4.2
		C530.3,64.9,533.6,67.7,536,69.7z"/>
	<path class="st0" d="M604.8,139c-0.3-6.1,4.1-0.6,6.1,1.4c-2.1,1.3-3.4,0.6-5.2,0.3c-0.2-0.3-0.3-0.6-0.5-0.9c0,0,0,0.1,0,0.1
		C605,139.6,604.9,139.3,604.8,139C604.7,138.9,604.8,139,604.8,139z"/>
	<path class="st0" d="M541.7,63.5c1.7,0.2,0.9,3.2,3.1,4.1c-0.3,0.9-2.1,2.1-1.9,0.6c-0.6-1.6-6.7-3.2-1.2-3.5
		C541.7,64.2,541.7,63.8,541.7,63.5L541.7,63.5z"/>
	<path class="st0" d="M533.2,141.2c-1.2,2.4-4.4,1.4-6.5,1.3C528.6,139.7,530.7,140.1,533.2,141.2z"/>
	<path class="st0" d="M663.2,123.6c-1.1-3.1,5.8-5.9,3.4-2.9c-1,1.4-1.5,2.2-1.8,4C664.1,124.2,663.6,123.8,663.2,123.6z"/>
	<path class="st0" d="M678.7,119.5c-1,1.7-3.2,1.4-4.8,0.5C675.9,120,676.5,119.6,678.7,119.5z"/>
	<path class="st0" d="M619.7,127.7c-1.2-1.5-1.2-1.7-0.5-3.5C620.2,125.4,619.4,126.6,619.7,127.7z"/>
	<path class="st0" d="M668.1,119.6c1.2-0.8,2-0.1,2.9,0.4C669.9,120.2,669.1,120.3,668.1,119.6z"/>
	<path class="st0" d="M622.6,120.3c0.4-1.1,4.7,0.5,2.7,0.9C624.7,120.5,623.6,120.6,622.6,120.3z"/>
	<path class="st0" d="M541.8,63.4c-0.9,0.1-1.8,0.2-2.4-0.7C540.3,62.5,540.4,62.7,541.8,63.4z"/>
	<path class="st0" d="M622.4,124.8c0.4,1.1-0.1,1.7-0.9,2.1C621.3,125.9,621.8,125.4,622.4,124.8z"/>
	<path class="st0" d="M512.7,150.8c1-0.3,1.6,0.2,2.2,0.4C514.7,152.5,513.4,151.1,512.7,150.8z"/>
	<path class="st0" d="M910.7,49.7c-1,0.2-1.6-0.3-2.1-0.9C909.8,48.8,909.8,48.8,910.7,49.7z"/>
	<path class="st0" d="M752.8,33.3c-0.5-0.2-1.2,0.1-1.6-0.6C751.9,32.4,752.4,33.1,752.8,33.3z"/>
	<path class="st0" d="M790.4,33.3c0.7-0.3,0.9-0.6,1.4-0.2C791.4,33.6,791.2,33.4,790.4,33.3z"/>
	<path class="st0" d="M515.5,148.9c0.3,0.2,0.8,0.2,0.7,1C515.9,149.4,515.7,149.1,515.5,148.9C515.6,148.8,515.5,148.9,515.5,148.9
		z"/>
	<path class="st0" d="M774.9,34.9c-0.3-0.1-0.4-0.2-0.2-0.5C775,34.5,775.1,34.6,774.9,34.9z"/>
	<path class="st0" d="M472.1,83c-0.2-0.3-0.3-0.5,0.1-0.7C472.4,82.7,472.6,82.8,472.1,83z"/>
	<path class="st0" d="M633.3,32.9c-0.4,0.1-0.8,0.2-1.1-0.2c0.3-0.3,0.7-0.1,1.1-0.1C633.3,32.7,633.3,32.8,633.3,32.9z"/>
	<path class="st0" d="M461.5,99.1c0.5-0.8,0.4-0.9,1.1-0.9C462.5,98.9,462.4,98.7,461.5,99.1z"/>
	<path class="st0" d="M511.2,37.5c0-0.4,0.2-0.4,0.5-0.5C511.8,37.4,511.5,37.4,511.2,37.5C511.2,37.5,511.2,37.5,511.2,37.5z"/>
	<path class="st0" d="M695.4,29.4c-0.1,0.1-0.1,0.2-0.2,0.3c-0.2-0.3-0.2-0.4,0-0.7C695.3,29.2,695.3,29.3,695.4,29.4z"/>
	<path class="st0" d="M487,93.6c0.1,0,0.1,0.1,0.2,0.1c-0.2,0.2-0.3,0.2-0.5,0C486.7,93.6,486.9,93.6,487,93.6z"/>
	<path class="st0" d="M555.6,295.8c0.3-0.1,0.6-0.1,0.9-0.2c0,0.1,0,0.1,0,0.2C556.3,295.8,556,295.8,555.6,295.8z"/>
	<path class="st0" d="M800.4,33.4c0,0.1,0.1,0.2,0.1,0.2c-0.2,0-0.4,0.1-0.4-0.1C800.2,33.5,800.3,33.5,800.4,33.4z"/>
	<path class="st0" d="M634.1,35.2c0.5,0,0.7-0.2,0.9,0C634.9,35.7,634.7,35.3,634.1,35.2z"/>
	<path class="st0" d="M774.1,266.4c0,0-0.1,0.1-0.1,0.1c-0.1-0.1-0.1-0.2,0-0.3C774,266.3,774.1,266.3,774.1,266.4z"/>
	<path class="st0" d="M896.4,55.8c0,0,0-0.1,0.1-0.1c0,0.1,0.1,0.1,0.1,0.2C896.5,55.8,896.4,55.8,896.4,55.8z"/>
	<path class="st0" d="M531.3,48.9c0.1,0.1,0.2,0.1,0.4,0.2C531.4,49.2,531.4,48.9,531.3,48.9C531.3,48.8,531.3,48.9,531.3,48.9z"/>
	<path class="st0" d="M531.3,48.8c-0.2-0.1-0.3-0.1-0.5-0.2c0,0,0.1-0.1,0.1-0.1C531.1,48.6,531.2,48.7,531.3,48.8
		C531.3,48.9,531.3,48.8,531.3,48.8z"/>
	<path class="st0" d="M639.7,46c0.1,0,0.2,0,0.4,0c0,0.1,0,0.1,0,0.2C640,46.1,639.9,46,639.7,46C639.8,45.9,639.7,46,639.7,46z"/>
	<path class="st0" d="M577.7,43.3c0.1,0.1,0.3,0.2,0.2,0.4C577.5,43.8,577.8,43.3,577.7,43.3z"/>
	<path class="st0" d="M515.6,148.8c-0.2,0-0.3,0-0.5,0C515.2,148.6,515.5,149,515.6,148.8z"/>
	<path class="st0" d="M499.5,38.8c0.3,0,0.6,0,0.9,0C500.1,39.4,500,39.4,499.5,38.8z"/>
	<path class="st0" d="M506,38c0.3,0.2,0.2,0.3,0,0.5C505.8,38.4,506,38.2,506,38z"/>
	<path class="st0" d="M511.2,37.5c0,0.2,0,0.3-0.1,0.5C510.9,37.8,511.3,37.6,511.2,37.5z"/>
	<path class="st0" d="M787.7,31.6c0,0,0-0.1,0.1-0.1c0,0.1,0.1,0.1,0.1,0.2C787.8,31.6,787.8,31.6,787.7,31.6z"/>
	<path class="st0" d="M721.2,220.8c-0.1-0.1-0.2-0.2-0.4-0.3c0,0,0.1-0.1,0.1-0.1C721,220.5,721.1,220.7,721.2,220.8
		C721.2,220.8,721.2,220.8,721.2,220.8z"/>
	<polygon class="st0" points="546,121.6 546.1,121.7 545.9,121.7 	"/>
	<path class="st0" d="M526.9,72.1c0.2-0.2,0.3-0.3,0.6-0.1C527.3,72.1,527,72,526.9,72.1z"/>
	<path class="st0" d="M515,147.4c-0.1,0.1-0.1,0.2-0.2,0.3c-0.3-0.2-0.2-0.4,0.1-0.6C514.9,147.2,515,147.3,515,147.4z"/>
	<polygon class="st0" points="467.9,62.8 468,62.8 467.8,62.9 	"/>
	<path class="st0" d="M879.1,427.9c-0.2,0.5-0.3,0.4-0.7,0.3C878.5,427.8,878.7,427.9,879.1,427.9z"/>
	<path class="st0" d="M406.9,19.2c-0.9,1.7-1.6,0.1-2.7-0.4C404.5,17.8,406.5,19.3,406.9,19.2z"/>
	<path class="st0" d="M307.9,16.5c0.9-0.1,1.4-0.1,1.9-0.2C309.3,17.2,309.3,17.2,307.9,16.5z"/>
	<path class="st0" d="M390,5.2c0.5,0,1,0,1.5,0c0,0,0,0.1,0,0.1c-0.5,0-1,0.1-1.5,0.1C390,5.3,390,5.3,390,5.2z"/>
	<path class="st0" d="M395.4,4.7c0.4,0,0.9,0,1.3,0.1c0,0,0,0.1,0,0.1c-0.4,0.1-0.9,0.1-1.3,0.1C395.4,4.8,395.4,4.8,395.4,4.7z"/>
	<path class="st0" d="M407.5,14.8c0.3,1,0.2,1.2-0.9,1C406.9,15.4,407.2,15.1,407.5,14.8C407.5,14.8,407.5,14.8,407.5,14.8z"/>
	<path class="st0" d="M402.5,25.9c0.7,0.2,0.1,0.6-0.3,0.7C401.9,26.2,402.2,26,402.5,25.9z"/>
	<path class="st0" d="M330,38.8c0.7,0.4,0,1.1-0.4,0.4C329.7,39.1,329.8,39,330,38.8z"/>
	<path class="st0" d="M384.8,36.7C384.3,38,383.5,36.9,384.8,36.7C384.8,36.7,384.8,36.7,384.8,36.7z"/>
	<path class="st0" d="M384.8,36.7c-0.1-0.5,0.3-0.5,0.6-0.6C385.9,36.7,385,36.8,384.8,36.7z"/>
	<path class="st0" d="M325.5,30c-0.4,0.3-0.6,0.3-0.7-0.2C325.2,29.7,325.4,29.4,325.5,30z"/>
	<path class="st0" d="M409.6,6.9c-0.4,0.1-0.7,0.1-1.1,0.2C408.8,6.6,409.4,6.7,409.6,6.9z"/>
	<path class="st0" d="M400.9,6.1c-0.2,0-0.4,0-0.7,0c0-0.1,0-0.1,0-0.2c0.2,0,0.4,0,0.7,0C400.9,6.1,400.9,6.1,400.9,6.1z"/>
	<path class="st0" d="M355.9,50.6c0.1,0.1,0.2,0.2,0.3,0.2C355.8,51.3,355.5,51.2,355.9,50.6z"/>
	<polygon class="st0" points="344.6,57.4 344.6,57.4 344.5,57.5 	"/>
	<path class="st0" d="M322.6,56.3c-0.1,0.2-0.2,0.2-0.2,0.3C322,56.2,322,55.8,322.6,56.3z"/>
	<path class="st0" d="M327.8,41.5c0.4,0,0.7-0.1,1.2-0.1C328.5,42.1,328.2,41.4,327.8,41.5z"/>
	<path class="st0" d="M320.9,56.7c-0.1,0-0.1,0.1-0.1,0.1c-0.1-0.2-0.3-0.3,0-0.4C320.8,56.5,320.8,56.6,320.9,56.7z"/>
	<path class="st0" d="M375.4,3.5c0,0,0,0.1,0.1,0.1c-0.1,0-0.2,0.1-0.2-0.1C375.3,3.5,375.3,3.5,375.4,3.5z"/>
	<polygon class="st0" points="366.7,4 366.8,3.9 366.8,4 	"/>
	<path class="st0" d="M347.7,5.4c-0.1,0.1-0.2,0.2-0.3,0.2C347.5,5.6,347.8,5.5,347.7,5.4z"/>
	<path class="st0" d="M386.1,38.5c-0.2,0.1-0.3,0.3-0.4,0.1C385.8,38.5,386,38.5,386.1,38.5C386.2,38.5,386.1,38.5,386.1,38.5z"/>
	<path class="st0" d="M386.2,38.5c0-0.1,0.1-0.3,0.1-0.4C386.5,38.3,386.2,38.3,386.2,38.5C386.1,38.5,386.2,38.5,386.2,38.5z"/>
	<path class="st0" d="M389.8,34c0,0.1-0.1,0.1-0.2,0.1C389.6,33.9,389.7,33.9,389.8,34z"/>
	<path class="st0" d="M328.1,33.9c0,0,0,0.1,0.1,0.1c-0.1,0-0.2-0.1-0.2-0.1C328,34,328.1,34,328.1,33.9z"/>
	<path class="st0" d="M305.3,16.4c0.3-0.1,1-0.1,0.5,0.3C305.7,16.7,305.3,16.4,305.3,16.4z"/>
	<path class="st0" d="M412.3,10c0-0.1-0.1-0.2-0.1-0.2c0.2,0,0.4-0.2,0.5,0.1C412.5,9.9,412.4,9.9,412.3,10z"/>
	<path class="st0" d="M291.4,7.7c-0.5,1.3-2.6,0.7-3.7,0.9C288.9,8.3,290.2,8,291.4,7.7L291.4,7.7z"/>
	<path class="st0" d="M291.4,7.7c0.7-0.1,1.4-0.2,2.3-0.3C293,8,292.8,7.9,291.4,7.7z"/>
	<path class="st0" d="M278.8,13.3c-0.6-0.2-0.9-0.3-1.4-0.5C278.1,12.4,278.4,12.5,278.8,13.3z"/>
	<path class="st0" d="M321.3,6.2c-0.1-0.1-0.2-0.1-0.3-0.2c0.2-0.1,0.5-0.1,0.7,0.1C321.5,6.1,321.4,6.1,321.3,6.2z"/>
	<path class="st0" d="M277.7,16.5c0.1,0.1,0.3,0.2,0.4,0.3C277.9,17.2,277.5,16.9,277.7,16.5z"/>
	<path class="st0" d="M271.4,12.8c-0.2,0-0.4,0.2-0.4-0.1C271.1,12.7,271.3,12.6,271.4,12.8z"/>
	<path class="st0" d="M281.2,6.8c0,0,0,0.1,0,0.1c-0.1,0-0.2,0.1-0.2-0.1C281.1,6.8,281.1,6.8,281.2,6.8z"/>
	<polygon class="st0" points="283.5,4.9 283.4,4.8 283.5,4.7 	"/>
	<path class="st0" d="M260.4,8c0.2-0.1,0.3,0,0.5,0.1C260.6,8.4,260.5,8.3,260.4,8C260.4,7.9,260.4,8,260.4,8z"/>
	<path class="st0" d="M177.3,30.8c1.3-0.5,2.6-1.1,4.5-1.1C180.1,30.5,178.5,30.8,177.3,30.8z"/>
	<path class="st0" d="M177.1,34.4c0.5,0,0.9,0,1.4-0.1C178,34.9,177.5,34.4,177.1,34.4z"/>
	<path class="st0" d="M185.6,29.1c-0.2,0-0.3,0-0.5,0c0,0,0-0.1,0-0.1c0.2,0,0.4,0,0.6,0C185.6,29,185.6,29,185.6,29.1z"/>
	<path class="st0" d="M183.6,29.5c-0.1,0.1-0.2,0-0.3-0.1C183.5,29.3,183.6,29.3,183.6,29.5z"/>
	<path class="st0" d="M188.7,30.5c-0.2,0.1-0.4,0.2-0.6,0.3c0-0.1,0-0.1-0.1-0.2C188.2,30.5,188.7,30.6,188.7,30.5z"/>
	<path class="st0" d="M203.6,40.3c-0.1,0.3-0.3,0-0.4-0.1C203.3,40.1,203.4,40.2,203.6,40.3z"/>
	<path class="st0" d="M855.2,171.1C853.8,171,854.9,169.7,855.2,171.1C855.2,171.2,855.2,171.1,855.2,171.1z"/>
	<path class="st0" d="M393,54.8c0.1,0,0.2,0,0.3,0.1C393.2,54.8,393.1,54.7,393,54.8z"/>
	<path class="st0" d="M404,51.7c0.1,0.1,0.1,0.2,0.1,0.2C404.1,51.9,404.1,51.5,404,51.7z"/>
	<path class="st0" d="M392.7,51.4c0.2-0.2,0.3,0,0.5,0.1c0,0.1-0.1,0.1-0.1,0.2C393,51.5,392.9,51.4,392.7,51.4
		C392.7,51.3,392.7,51.4,392.7,51.4z"/>
	<path class="st0" d="M889.1,456c0.2,0,0.3,0.1,0.5,0C889.5,456.2,889.2,456.1,889.1,456z"/>
	<path class="st0" d="M768.9,22.8C767.3,21.4,770.1,21.4,768.9,22.8C768.9,22.7,768.9,22.8,768.9,22.8z"/>
	<path class="st0" d="M768.9,22.7c0.1,0,0.2,0,0.3,0C769.1,22.5,769,22.8,768.9,22.7z"/>
	<path class="st0" d="M495.2,10.7c0.3-0.1,0.6-0.1,1.3-0.2C495.9,10.9,495.4,10.7,495.2,10.7z"/>
	<path class="st0" d="M26.6,82.5c0.1,0,0.2-0.1,0.3-0.1C26.8,82.5,26.5,82.5,26.6,82.5z"/>
	<path d="M185.8,114.9c-0.1,0-0.3,0.2-0.4,0C185.6,115,185.7,115,185.8,114.9L185.8,114.9z"/>
	<path d="M185.9,115c-0.1-0.2-0.2-0.5,0.2-0.5C186,114.7,185.9,114.8,185.9,115C185.8,114.9,185.9,115,185.9,115z"/>
	<path d="M200,122.7C204.2,120.8,203,125.7,200,122.7L200,122.7z"/>
	<path d="M200,122.6c-0.3,0-0.5,0-1-0.1C199.5,122.2,199.8,122.3,200,122.6C200,122.7,200,122.6,200,122.6z"/>
	<path d="M197.6,122.1c0,0,0-0.1,0.1-0.1c0,0.1,0.1,0.1,0.1,0.2C197.7,122.2,197.7,122.1,197.6,122.1z"/>
	<path d="M605.2,139.8c0.2,0.3,0.3,0.6,0.5,0.9C605.5,140.4,605.3,140.1,605.2,139.8z"/>
	<path d="M604.7,138.9c0.2,0.3,0.3,0.6,0.5,0.9C605,139.6,604.9,139.3,604.7,138.9z"/>
</g>
</svg>
